<svg width="206" height="217" viewBox="0 0 206 217" fill="none" xmlns="http://www.w3.org/2000/svg">
<path d="M56.3422 42.4205C56.3422 42.4205 54.2505 41.1047 55.188 38.953C56.1256 36.8012 69.6938 26.0934 74.3449 24.5249C78.9966 22.9564 77.0639 30.63 77.0639 30.63L56.3422 42.4205Z" fill="#455A64"/>
<path d="M60.2514 54.6895C60.1456 54.8027 54.4413 52.9068 52.4989 48.3714C50.5564 43.836 58.1358 39.1532 63.0286 35.0517C68.5101 30.4575 89.6914 17.4602 94.0175 19.2423C98.3436 21.0244 100.393 28.8908 100.393 28.8908L60.2514 54.6895Z" fill="#263238"/>
<path d="M96.88 21.5526C96.8849 21.5624 96.7784 21.6315 96.5697 21.7539C96.3292 21.8904 96.0245 22.063 95.6493 22.2759C94.8464 22.7215 93.6757 23.3518 92.2216 24.1143C89.3159 25.6455 85.2573 27.6712 80.8387 30.0236C78.6289 31.2005 76.5249 32.321 74.6045 33.3436C73.6516 33.8552 72.7202 34.3271 71.8934 34.7916C71.0832 35.2989 70.3378 35.8197 69.593 36.1912C69.2197 36.3736 68.8488 36.537 68.448 36.5712C68.0171 36.5902 67.6971 36.3136 67.4737 36.0822C67.0221 35.5859 66.7503 35.0865 66.5208 34.6881C66.3189 34.3069 66.1555 33.9972 66.0257 33.753C65.915 33.5382 65.8538 33.4281 65.8642 33.4214C65.888 33.4048 66.1622 33.8381 66.6279 34.6257C66.8703 35.0107 67.1597 35.499 67.601 35.958C67.8225 36.1765 68.1065 36.3944 68.4357 36.3687C68.7748 36.3332 69.134 36.174 69.4908 35.9898C70.2105 35.6147 70.9369 35.0921 71.7551 34.5658C72.6051 34.0749 73.5109 33.6062 74.4668 33.0835C76.3835 32.0542 78.4832 30.9263 80.6894 29.7415C85.1147 27.3854 89.1898 25.3915 92.12 23.9124C93.5582 23.189 94.735 22.5966 95.593 22.1652C95.9792 21.9742 96.2931 21.8188 96.541 21.6964C96.7576 21.5936 96.8745 21.5434 96.88 21.5526Z" fill="#455A64"/>
<path d="M134.618 89.895C134.904 90.0089 138.436 92.4017 138.436 92.5731C138.436 92.7444 139.063 95.3649 140.658 96.1623C142.253 96.9604 151.277 96.2701 151.277 96.2701L153.535 96.9028V95.9898C153.535 94.5632 152.706 93.2664 151.411 92.6667C148.98 91.54 145.311 89.8571 145.159 89.895C144.932 89.9519 138.305 84.7446 137.963 84.859C137.621 84.9729 134.618 89.895 134.618 89.895Z" fill="#FF9A6C"/>
<path d="M90.8916 49.1859C91.5574 49.7336 108.85 72.6952 111.936 76.5623C114.354 79.591 131.246 88.6875 131.246 88.6875L138.679 92.6898C138.514 92.5099 143.095 85.8301 143.095 85.8301L136.465 79.665C136.465 79.665 118.62 62.188 116.715 60.3766C114.811 58.5651 112.187 47.7459 112.187 47.7459C112.187 47.7459 116.092 33.7658 104.392 32.898C92.6933 32.0302 90.8916 49.1859 90.8916 49.1859Z" fill="#F17832"/>
<g opacity="0.3">
<path d="M90.8916 49.1859C91.5574 49.7336 108.85 72.6952 111.936 76.5623C114.354 79.591 131.246 88.6875 131.246 88.6875L138.679 92.6898C138.514 92.5099 143.095 85.8301 143.095 85.8301L136.465 79.665C136.465 79.665 118.62 62.188 116.715 60.3766C114.811 58.5651 112.187 47.7459 112.187 47.7459C112.187 47.7459 116.092 33.7658 104.392 32.898C92.6933 32.0302 90.8916 49.1859 90.8916 49.1859Z" fill="black"/>
</g>
<path d="M139.334 87.9236C139.619 88.0374 143.152 90.4309 143.152 90.6016C143.152 90.7724 143.778 93.3935 145.374 94.1909C146.969 94.9883 155.992 94.2986 155.992 94.2986L158.251 94.9314V94.0183C158.251 92.5918 157.422 91.295 156.127 90.6953C153.696 89.5686 150.027 87.8856 149.874 87.9236C149.647 87.9805 143.02 82.7732 142.678 82.8876C142.337 83.0014 139.334 87.9236 139.334 87.9236Z" fill="#FFBF9D"/>
<path d="M117.851 23.3095C118.714 20.8101 119.596 18.3016 120.875 15.9877C122.155 13.6738 123.862 11.5441 126.091 10.1207C126.429 9.90463 128.898 8.61029 129.193 8.88262C129.403 9.07662 127.401 10.5117 127.367 10.7963C127.042 13.511 125.629 16.0042 123.811 18.047C121.994 20.0892 120.064 21.7042 117.851 23.3095Z" fill="#263238"/>
<path d="M141.678 27.7035C145.266 22.6743 144.387 15.7338 139.663 11.7529L139.193 11.3575C133.881 7.38759 127.542 9.6813 123.72 15.101L110.783 32.8203L110.368 45.09L117.558 48.1388C118.699 46.6603 122.905 41.2987 122.916 41.3073C122.916 41.3073 128.421 44.6512 132.581 39.8361C134.591 37.5099 138.34 32.3828 141.678 27.7035Z" fill="#FFBF9D"/>
<path d="M122.917 41.3073C122.917 41.3073 119.698 38.9028 118.159 34.0957C118.159 34.0957 116.601 39.0387 121.826 42.6916L122.917 41.3073Z" fill="#FF9A6C"/>
<path d="M137.281 30.321C136.985 30.6992 136.421 30.7598 136.021 30.4575C135.621 30.1558 135.536 29.605 135.832 29.2274C136.128 28.8492 136.693 28.788 137.092 29.0897C137.493 29.392 137.578 29.9434 137.281 30.321Z" fill="#263238"/>
<path d="M138.833 28.9807C138.67 28.9985 138.472 28.1656 137.723 27.5377C136.983 26.8994 136.11 26.8217 136.106 26.6619C136.101 26.5879 136.326 26.4979 136.712 26.5255C137.093 26.5506 137.636 26.7201 138.1 27.1142C138.564 27.5095 138.811 28.0107 138.888 28.3761C138.969 28.7463 138.909 28.9758 138.833 28.9807Z" fill="#263238"/>
<path d="M130.388 25.4581C130.091 25.8357 129.527 25.8969 129.127 25.5946C128.727 25.2935 128.642 24.7427 128.938 24.3645C129.235 23.9869 129.799 23.9257 130.199 24.2268C130.599 24.5291 130.684 25.0805 130.388 25.4581Z" fill="#263238"/>
<path d="M131.418 23.2397C131.255 23.2575 131.057 22.424 130.307 21.7961C129.568 21.1584 128.695 21.08 128.691 20.9203C128.686 20.8463 128.91 20.7563 129.297 20.7845C129.678 20.8089 130.221 20.9791 130.686 21.3732C131.149 21.7685 131.396 22.2704 131.474 22.6351C131.554 23.0047 131.494 23.2348 131.418 23.2397Z" fill="#263238"/>
<path d="M129.198 30.9843C129.23 30.939 129.763 31.2505 130.597 31.7885C130.804 31.9298 131.017 32.0443 131.159 31.9409C131.32 31.8411 131.414 31.5676 131.509 31.2677C131.718 30.6545 131.939 30.0119 132.169 29.3381C133.129 26.6068 133.995 24.4263 134.105 24.4661C134.215 24.5059 133.526 26.7519 132.565 29.4825C132.324 30.152 132.095 30.7909 131.874 31.4011C131.763 31.6789 131.68 32.0296 131.341 32.234C131.169 32.3331 130.942 32.3191 130.792 32.2487C130.639 32.1832 130.529 32.0945 130.43 32.0204C129.638 31.4219 129.165 31.029 129.198 30.9843Z" fill="#263238"/>
<path d="M132.731 21.5408C132.476 21.654 131.992 20.9233 131.21 20.2557C130.443 19.5702 129.645 19.181 129.733 18.9221C129.778 18.801 130.059 18.741 130.473 18.8175C130.884 18.8915 131.416 19.121 131.881 19.5262C132.345 19.9325 132.637 20.4227 132.757 20.8126C132.88 21.2048 132.85 21.4845 132.731 21.5408Z" fill="#263238"/>
<path d="M141.219 26.1662C140.921 26.2096 140.45 25.5273 139.716 24.9128C139 24.277 138.252 23.9098 138.255 23.6118C138.263 23.4728 138.503 23.381 138.91 23.4428C139.312 23.5016 139.873 23.7384 140.372 24.168C140.87 24.5977 141.184 25.1148 141.298 25.5016C141.415 25.8914 141.356 26.1386 141.219 26.1662Z" fill="#263238"/>
<path d="M121.082 19.0385C121.03 18.9327 118.572 15.2326 115.875 18.6487C113.179 22.0648 117.165 24.0678 117.248 23.9742C117.331 23.8818 121.082 19.0385 121.082 19.0385Z" fill="#FFBF9D"/>
<path d="M117.226 21.8567C117.22 21.8341 117.134 21.8512 116.996 21.8181C116.863 21.7857 116.67 21.6835 116.544 21.476C116.288 21.0587 116.436 20.246 116.906 19.6168C117.143 19.2992 117.441 19.0544 117.745 18.8965C118.047 18.7289 118.346 18.6817 118.553 18.7931C118.767 18.8941 118.81 19.1046 118.775 19.2337C118.746 19.3653 118.67 19.4167 118.684 19.4369C118.686 19.4528 118.802 19.4375 118.886 19.2748C118.925 19.1958 118.949 19.0832 118.921 18.9547C118.891 18.8231 118.798 18.694 118.66 18.6083C118.382 18.4186 117.954 18.4737 117.62 18.6469C117.271 18.8103 116.928 19.0795 116.662 19.4363C116.141 20.1419 115.985 21.0642 116.366 21.5972C116.557 21.85 116.815 21.9356 116.982 21.9363C117.155 21.9344 117.233 21.8726 117.226 21.8567Z" fill="#FF9A6C"/>
<path d="M143.87 20.2802C144.664 20.4044 144.391 17.3066 143.504 15.6255C142.163 13.0845 139.454 10.0595 137.129 9.12193C134.329 7.99344 131.536 7.65746 128.765 8.85327C125.993 10.0491 123.673 12.1476 121.891 14.5845C121.347 15.328 120.835 16.145 120.746 17.0618C120.637 18.1946 121.188 19.3885 120.334 20.4063C120.022 20.7784 119.832 21.2502 119.877 21.7336C119.988 22.8915 121.245 22.8591 122.088 22.5023C123.889 21.741 125.22 20.1976 126.483 18.7056C127.381 17.645 128.294 16.5587 128.801 15.2656C129.077 14.5618 129.227 13.8103 129.542 13.1231C129.856 12.4358 130.386 11.789 131.117 11.595C131.236 11.5631 131.408 11.5411 131.616 11.5289C133.252 11.4303 134.813 12.2314 135.7 13.6102C137.106 15.7974 139.621 19.3849 140.994 19.3971C142.971 19.4149 143.746 19.0287 143.746 19.0287L143.87 20.2802Z" fill="#263238"/>
<path d="M126.4 29.5835C126.525 29.668 125.917 30.4617 126.165 31.5455C126.409 32.63 127.323 33.1893 127.244 33.305C127.217 33.3631 126.938 33.3148 126.573 33.0504C126.214 32.794 125.789 32.2897 125.638 31.6263C125.488 30.9636 125.664 30.3663 125.886 30.0205C126.111 29.6662 126.35 29.5376 126.4 29.5835Z" fill="#263238"/>
<path d="M120.931 15.7264C119.854 11.6396 119.808 9.38504 121.02 7.03625L147.422 28.075C147.422 28.075 143.908 28.7867 141.73 27.69L142.715 26.0762C142.715 26.0762 129.719 15.2405 124.792 14.5746L122.618 14.186L120.931 15.7264Z" fill="#455A64"/>
<path d="M125.947 12.9578C125.947 12.9578 120.316 19.4705 117.388 25.4147C114.347 31.5872 119.842 37.7351 119.842 37.7351C119.842 37.7351 116.459 29.8381 120.461 24.2397C124.087 19.1688 127.885 14.4419 127.885 14.4419L125.947 12.9578Z" fill="#455A64"/>
<path d="M150.075 26.9128C149.864 25.4747 148.587 18.3384 146.066 13.5361C143.546 8.73453 139.842 6.09505 139.842 6.09505C139.842 6.09505 131.958 0.10681 130.791 0.415861C130.791 0.415861 129.753 0.585383 129.937 1.92256L130.161 3.54676C130.161 3.54676 128.105 3.72974 126.109 4.35335H126.107C126.107 4.35335 124.246 4.73584 123.7 5.34966H123.699C123.379 5.39617 122.445 5.51918 121.692 6.1997C120.196 7.55034 119.623 9.65311 120.028 11.6274L120.518 14.0147L124.338 13.5392C125.802 13.3568 127.276 13.7571 128.455 14.6457C131.156 16.6799 136.57 20.0519 137.736 20.9791C138.711 21.755 145.47 27.9826 147.063 28.0566C148.656 28.1313 150.285 28.351 150.075 26.9128Z" fill="#F17832"/>
<path d="M139.688 10.6905C139.72 10.666 139.332 10.0974 138.597 9.26515C137.863 8.43285 136.761 7.35393 135.409 6.32703C134.054 5.30196 132.718 4.53269 131.718 4.05045C130.718 3.56699 130.066 3.34729 130.051 3.38401C130.03 3.43174 130.647 3.72672 131.61 4.25914C132.572 4.79034 133.871 5.58041 135.208 6.59201C136.542 7.60545 137.654 8.64215 138.425 9.4261C139.197 10.2094 139.648 10.7235 139.688 10.6905Z" fill="#263238"/>
<g opacity="0.3">
<path d="M134.013 10.0252C134.073 9.83673 134.253 9.70393 134.444 9.65436C134.636 9.60479 135.02 9.50809 135.214 9.54542C135.782 9.65619 136.312 9.91261 136.766 10.778C137.048 11.4542 136.094 11.9315 135.563 11.7853C135.033 11.639 134.617 11.2284 134.275 10.7963C134.099 10.5748 133.927 10.2951 134.013 10.0252Z" fill="black"/>
</g>
<g opacity="0.3">
<path d="M139.462 14.0171C139.632 14.0318 139.78 14.1352 139.915 14.2393C141.038 15.1089 141.877 16.301 142.508 17.5733C143.139 18.8457 143.843 20.3915 144.276 21.744C142.108 19.7092 140.351 17.2362 139.145 14.5183C139.111 14.4425 139.078 14.3629 139.085 14.2803C139.1 14.1114 139.292 14.0024 139.462 14.0171Z" fill="black"/>
</g>
<g opacity="0.3">
<path d="M144.539 13.4804C144.695 13.5484 144.803 13.6934 144.897 13.8354C145.686 15.0165 146.104 16.4143 146.298 17.8206C146.492 19.2276 146.474 20.6541 146.455 22.0745C145.045 19.4558 144.359 16.8163 144.079 13.8556C144.071 13.7736 144.064 13.6867 144.097 13.6108C144.165 13.4541 144.382 13.4119 144.539 13.4804Z" fill="black"/>
</g>
<path d="M125.015 5.4133C124.998 5.45614 125.693 5.78355 126.83 6.27926C127.967 6.77496 129.547 7.43774 131.299 8.15131C131.738 8.32878 132.166 8.50136 132.582 8.66966C132.765 8.74799 132.999 8.63967 133.063 8.46648C133.102 8.38142 133.109 8.27493 133.072 8.18374C133.054 8.13968 133.025 8.09684 133 8.06808L132.945 8.0075C132.798 7.84532 132.65 7.6911 132.499 7.54728C131.895 6.97018 131.273 6.54119 130.722 6.23948C130.172 5.9341 129.694 5.75479 129.362 5.64892C129.028 5.54366 128.835 5.51612 128.83 5.53448C128.809 5.59078 129.557 5.80191 130.603 6.44204C131.125 6.7615 131.713 7.19723 132.284 7.76637C132.428 7.90835 132.568 8.0589 132.707 8.21801C132.805 8.32633 132.77 8.29145 132.77 8.33429C132.752 8.36673 132.727 8.37652 132.699 8.36489C132.286 8.19537 131.86 8.02096 131.424 7.84226C129.671 7.12869 128.078 6.50018 126.918 6.06078C125.758 5.62138 125.032 5.37108 125.015 5.4133Z" fill="#263238"/>
<path d="M113.631 29.1962C113.279 29.2678 109.678 29.8045 109.678 29.8045C109.678 29.8045 106.713 27.84 101.529 28.6552C96.3457 29.4703 70.1107 46.5311 65.1469 50.2355C60.1831 53.9392 48.6779 67.1274 52.187 65.0075C52.7249 64.6825 56.7064 62.8723 61.9628 64.3282C67.2191 65.7841 70.4944 67.2235 70.4944 67.2235C70.4944 67.2235 87.3667 80.1032 87.8967 79.9521C88.4267 79.8015 93.1059 76.6082 97.0764 73.645C101.047 70.6818 110.562 62.7321 110.301 62.7205C110.039 62.7089 117.348 51.4325 117.348 51.4325L122.449 46.6003L121.666 44.1646L120.264 45.0991L113.631 29.1962Z" fill="#F17832"/>
<path d="M81.4487 94.5943C81.4487 94.5943 88.0318 128.124 88.8151 134.256C89.5979 140.388 89.5183 184.295 89.5183 184.295L78.2915 186.216C78.2915 186.216 73.5272 160.29 71.8541 152.907C70.1809 145.524 69.8333 138.628 69.3119 136.177C68.7905 133.726 59.5802 109.808 57.8611 105.612C56.1414 101.417 55.6298 100.006 54.1121 97.8556C52.5944 95.7051 49.1538 89.3392 48.5786 86.9047C46.3699 77.561 49.8625 70.8519 49.8625 70.8519L51.0277 70.1664L74.0786 83.8559L81.4487 94.5943Z" fill="#342A57"/>
<path d="M81.4487 94.5943C81.4487 94.5943 88.0318 128.124 88.8151 134.256C89.5979 140.388 89.5183 184.295 89.5183 184.295L78.2915 186.216C78.2915 186.216 73.5272 160.29 71.8541 152.907C70.1809 145.524 69.8333 138.628 69.3119 136.177C68.7905 133.726 59.5802 109.808 57.8611 105.612C56.1414 101.417 55.6298 100.006 54.1121 97.8556C52.5944 95.7051 49.1538 89.3392 48.5786 86.9047C46.3699 77.561 49.8625 70.8519 49.8625 70.8519L51.0277 70.1664L74.0786 83.8559L81.4487 94.5943Z" fill="black" fill-opacity="0.2"/>
<path d="M81.4487 94.5943C81.4487 94.5943 88.0318 128.124 88.8151 134.256C89.5979 140.388 89.5183 184.295 89.5183 184.295L78.2915 186.216C78.2915 186.216 73.5272 160.29 71.8541 152.907C70.1809 145.524 69.8333 138.628 69.3119 136.177C68.7905 133.726 59.5802 109.808 57.8611 105.612C56.1414 101.417 55.6298 100.006 54.1121 97.8556C52.5944 95.7051 49.1538 89.3392 48.5786 86.9047C46.3699 77.561 49.8625 70.8519 49.8625 70.8519L51.0277 70.1664L74.0786 83.8559L81.4487 94.5943Z" fill="black" fill-opacity="0.2"/>
<path d="M81.4487 94.5943C81.4487 94.5943 88.0318 128.124 88.8151 134.256C89.5979 140.388 89.5183 184.295 89.5183 184.295L78.2915 186.216C78.2915 186.216 73.5272 160.29 71.8541 152.907C70.1809 145.524 69.8333 138.628 69.3119 136.177C68.7905 133.726 59.5802 109.808 57.8611 105.612C56.1414 101.417 55.6298 100.006 54.1121 97.8556C52.5944 95.7051 49.1538 89.3392 48.5786 86.9047C46.3699 77.561 49.8625 70.8519 49.8625 70.8519L51.0277 70.1664L74.0786 83.8559L81.4487 94.5943Z" fill="black" fill-opacity="0.2"/>
<path d="M104.848 199.009C104.848 199.009 100.188 200.563 96.1195 200.37C92.0511 200.177 86.0108 198.971 83.7899 198.554C81.569 198.136 75.1879 199.142 74.653 196.914C74.1182 194.686 77.9082 186.275 77.9082 186.275C77.9082 186.275 79.0385 188.678 81.2649 188.509C83.4913 188.34 87.7813 187.018 87.7813 187.018C87.7813 187.018 89.5511 184.033 90.8289 183.873C92.1067 183.712 91.8142 187.366 91.8142 187.366C91.8142 187.366 95.103 191.622 97.2853 192.488C99.4677 193.353 99.5723 194.008 102.078 193.981C104.584 193.953 105.818 194.827 105.818 194.827C105.818 194.827 107.042 196.834 106.482 197.593C105.922 198.352 104.848 199.009 104.848 199.009Z" fill="#455A64"/>
<path d="M106.511 197.549C106.02 198.396 104.856 199.042 104.856 199.042C104.856 199.042 100.196 200.596 96.1275 200.403C92.059 200.209 86.0188 199.004 83.7979 198.586C81.577 198.169 75.1959 199.175 74.661 196.947C74.5086 196.337 74.5197 195.707 74.6916 195.056C74.6916 195.056 81.2484 196.571 84.383 196.401C87.5175 196.232 94.2793 198.187 97.8209 198.03C101.362 197.872 105.319 196.864 105.319 196.864L106.459 196.194C106.617 196.705 106.807 197.056 106.511 197.549Z" fill="#E0E0E0"/>
<path d="M96.4697 191.902C96.4072 191.901 96.395 192.475 96.0798 193.079C95.7751 193.69 95.3173 194.036 95.3552 194.085C95.3754 194.135 95.9299 193.839 96.2653 193.174C96.6067 192.513 96.5217 191.889 96.4697 191.902Z" fill="white"/>
<path d="M94.3601 190.166C94.2971 190.158 94.2353 190.844 93.7934 191.537C93.3632 192.235 92.772 192.591 92.8069 192.644C92.8204 192.696 93.5046 192.398 93.9697 191.647C94.4433 190.901 94.4127 190.155 94.3601 190.166Z" fill="white"/>
<path d="M92.8444 188.489C92.7899 188.462 92.5121 188.944 92.0678 189.455C91.6272 189.97 91.1914 190.316 91.2263 190.365C91.2539 190.412 91.7637 190.13 92.2251 189.59C92.6902 189.056 92.894 188.51 92.8444 188.489Z" fill="white"/>
<path d="M80.7442 193.639C80.7417 193.667 81.0636 193.723 81.5881 193.775C82.1125 193.827 82.8402 193.872 83.6449 193.877C84.4497 193.882 85.178 193.848 85.703 193.803C86.2281 193.757 86.5506 193.705 86.5488 193.678C86.5439 193.618 85.2465 193.682 83.6462 193.67C82.0464 193.661 80.7497 193.579 80.7442 193.639Z" fill="white"/>
<g opacity="0.3">
<path d="M78.3337 96.9983C76.2352 96.2559 73.9531 96.2828 71.7273 96.3189C67.5383 96.3863 63.3493 96.4542 59.1603 96.5215L55.1714 99.396C57.0135 101.342 59.5513 102.531 62.1682 103.105C64.7856 103.678 67.4955 103.674 70.1704 103.515C74.3937 103.264 78.5937 102.63 82.7032 101.623C82.344 99.426 80.4321 97.7406 78.3337 96.9983Z" fill="black"/>
</g>
<path d="M95.8423 52.1351L98.7412 49.4839L102.015 56.2237L96.125 54.6895L95.8423 52.1351Z" fill="#263238"/>
<g opacity="0.3">
<path d="M77.1411 65.0081C77.1411 65.0081 83.226 68.3324 84.3839 68.2718C85.5412 68.2112 98.0066 69.4437 101.628 68.2718C105.249 67.0998 106.061 63.6923 106.061 63.6923L77.1411 65.0081Z" fill="black"/>
</g>
<path d="M116.922 49.1168C116.893 49.0862 117.318 48.6358 118.014 47.8959C118.36 47.525 118.776 47.0826 119.216 46.5716C119.427 46.317 119.672 46.0349 119.821 45.746C119.89 45.5942 119.918 45.4333 119.879 45.3011C119.845 45.172 119.712 45.0563 119.578 45.0061L119.683 45.0031C119.49 45.0771 119.287 45.1561 119.08 45.2356C117.613 45.7986 116.268 46.3005 115.246 46.6676L115.148 46.7025L115.099 46.6181C114.41 45.4425 114.051 44.6438 114.154 44.6108C114.167 44.6163 114.178 44.6579 114.227 44.7454C114.296 44.8641 114.369 44.989 114.448 45.1236C114.695 45.5171 114.979 45.9712 115.304 46.4914L115.158 46.4418C116.163 46.03 117.498 45.5012 118.965 44.9382C119.172 44.8592 119.376 44.7809 119.569 44.7069L119.625 44.6854L119.675 44.7038C119.91 44.7919 120.102 44.9633 120.178 45.2099C120.246 45.4535 120.184 45.6873 120.099 45.8702C119.9 46.2411 119.655 46.4938 119.429 46.7576C118.968 47.2656 118.534 47.6927 118.165 48.0458C117.427 48.7496 116.949 49.1462 116.922 49.1168Z" fill="#263238"/>
<path d="M61.2095 52.0182C61.2095 52.0182 79.4539 54.4221 84.7732 54.5004C90.0925 54.5793 96.1255 54.6895 96.1255 54.6895L95.8421 52.1345C95.8421 52.1345 81.7255 51.5837 78.2403 51.3481C74.7551 51.1131 64.8434 48.9222 64.8434 48.9222L61.2095 52.0182Z" fill="#263238"/>
<path d="M100.101 27.9232C100.101 27.9232 107.535 28.2788 111.187 32.3307L114.228 37.0999C114.228 37.0999 112.264 26.4942 99.5039 26.2782L100.101 27.9232Z" fill="#263238"/>
<path d="M123.164 174.096C123.164 152.199 140.98 134.384 162.877 134.384C184.774 134.384 202.589 152.2 202.589 174.096C202.589 195.994 184.774 213.81 162.877 213.81C140.98 213.81 123.164 195.994 123.164 174.096ZM125.082 174.096C125.082 194.937 142.037 211.892 162.877 211.892C183.717 211.892 200.672 194.937 200.672 174.096C200.672 153.256 183.717 136.301 162.877 136.301C142.037 136.302 125.082 153.256 125.082 174.096Z" fill="#E0E0E0"/>
<path d="M120.569 174.096C120.569 150.768 139.548 131.788 162.877 131.788C186.206 131.788 205.185 150.768 205.185 174.096C205.185 197.425 186.206 216.404 162.877 216.404C139.548 216.404 120.569 197.425 120.569 174.096ZM123.126 174.096C123.126 196.016 140.958 213.848 162.877 213.848C184.796 213.848 202.628 196.016 202.628 174.096C202.628 152.178 184.796 134.345 162.877 134.345C140.958 134.346 123.126 152.178 123.126 174.096Z" fill="#263238"/>
<path d="M125.025 174.222C125.025 174.222 125.042 174.014 125.058 173.608C125.084 173.203 125.071 172.598 125.144 171.81C125.243 170.232 125.509 167.902 126.233 164.986C126.981 162.084 128.234 158.586 130.427 154.922C132.616 151.274 135.754 147.457 140.027 144.202C142.155 142.571 144.574 141.107 147.238 139.898C149.902 138.691 152.812 137.721 155.914 137.164C162.097 136.005 169.06 136.358 175.731 138.779C182.381 141.189 188.7 145.687 193.252 151.925C197.828 158.121 200.572 166.027 200.557 174.216C200.575 182.407 197.831 190.316 193.254 196.514C188.702 202.754 182.382 207.253 175.731 209.663C169.059 212.084 162.095 212.437 155.913 211.278C152.809 210.72 149.899 209.75 147.236 208.543C144.571 207.334 142.153 205.87 140.025 204.238C135.751 200.984 132.614 197.166 130.425 193.518C128.233 189.855 126.98 186.357 126.233 183.456C125.509 180.54 125.243 178.211 125.144 176.633C125.071 175.845 125.085 175.239 125.058 174.835C125.042 174.43 125.025 174.222 125.025 174.222C125.025 174.222 124.998 175.055 125.075 176.638C125.152 178.22 125.397 180.558 126.104 183.489C126.834 186.407 128.073 189.927 130.261 193.618C132.445 197.294 135.587 201.145 139.879 204.433C142.015 206.081 144.446 207.561 147.127 208.785C149.806 210.007 152.735 210.991 155.861 211.559C158.981 212.14 162.285 212.372 165.66 212.113C169.036 211.887 172.475 211.163 175.839 209.963C182.55 207.54 188.93 203.007 193.526 196.714C198.147 190.465 200.92 182.482 200.901 174.217C200.916 165.955 198.144 157.975 193.524 151.727C188.927 145.436 182.549 140.905 175.839 138.483C172.475 137.282 169.037 136.557 165.661 136.332C162.286 136.073 158.983 136.304 155.863 136.885C152.738 137.453 149.808 138.436 147.129 139.658C144.448 140.882 142.018 142.362 139.88 144.01C135.589 147.298 132.447 151.148 130.262 154.825C128.074 158.516 126.835 162.036 126.104 164.954C125.398 167.885 125.153 170.224 125.075 171.806C124.999 173.389 125.025 174.222 125.025 174.222Z" fill="#263238"/>
<path d="M79.6275 122.734L74.4863 100.039H70.4741L75.3645 123.988L79.6275 122.734Z" fill="#E0E0E0"/>
<path d="M3.41064 173.536C3.41064 151.638 21.226 133.823 43.1233 133.823C65.0206 133.823 82.836 151.638 82.836 173.536C82.836 195.434 65.0206 213.249 43.1233 213.249C21.226 213.248 3.41064 195.433 3.41064 173.536ZM5.3286 173.536C5.3286 194.377 22.2829 211.331 43.1233 211.331C63.9638 211.331 80.9181 194.377 80.9181 173.536C80.9181 152.696 63.9638 135.741 43.1233 135.741C22.2829 135.741 5.3286 152.696 5.3286 173.536Z" fill="#E0E0E0"/>
<path d="M0.815186 173.536C0.815186 150.208 19.7946 131.228 43.1233 131.228C66.452 131.228 85.4314 150.208 85.4314 173.536C85.4314 196.865 66.452 215.844 43.1233 215.844C19.7946 215.844 0.815186 196.864 0.815186 173.536ZM3.37204 173.536C3.37204 195.456 21.2046 213.288 43.1233 213.288C65.042 213.288 82.8745 195.456 82.8745 173.536C82.8745 151.617 65.042 133.785 43.1233 133.785C21.2046 133.785 3.37204 151.617 3.37204 173.536Z" fill="#263238"/>
<path d="M5.27171 173.662C5.27171 173.662 5.28884 173.454 5.30475 173.048C5.33168 172.643 5.31822 172.038 5.39104 171.249C5.49018 169.672 5.75639 167.342 6.48037 164.425C7.22821 161.523 8.48094 158.025 10.6737 154.362C12.8627 150.714 16.001 146.897 20.2744 143.642C22.4023 142.011 24.8208 140.547 27.4854 139.338C30.1487 138.131 33.0581 137.161 36.1615 136.604C42.3443 135.445 49.3068 135.798 55.978 138.219C62.6284 140.629 68.9471 145.127 73.4991 151.365C78.0748 157.561 80.819 165.467 80.8037 173.656C80.822 181.847 78.0779 189.756 73.5015 195.954C68.949 202.194 62.629 206.693 55.978 209.103C49.3062 211.524 42.3425 211.878 36.1596 210.718C33.0563 210.16 30.1463 209.19 27.483 207.983C24.8184 206.774 22.3998 205.31 20.272 203.678C15.9985 200.424 12.8609 196.606 10.6718 192.958C8.47971 189.295 7.22699 185.797 6.47976 182.895C5.75639 179.979 5.48957 177.65 5.39043 176.072C5.3176 175.284 5.33107 174.679 5.30414 174.274C5.28884 173.87 5.27171 173.662 5.27171 173.662C5.27171 173.662 5.246 174.495 5.32189 176.078C5.399 177.66 5.6444 179.998 6.35063 182.929C7.08072 185.846 8.31998 189.366 10.5078 193.057C12.692 196.733 15.8339 200.585 20.1251 203.872C22.2615 205.52 24.6923 207.001 27.3728 208.225C30.0521 209.447 32.981 210.43 36.107 210.999C39.2269 211.58 42.5303 211.811 45.9054 211.553C49.2823 211.327 52.7211 210.603 56.0851 209.402C62.7961 206.98 69.1754 202.447 73.772 196.154C78.3925 189.904 81.1653 181.921 81.1464 173.656C81.1623 165.395 78.39 157.414 73.7696 151.167C69.173 144.876 62.7949 140.344 56.0851 137.922C52.7211 136.721 49.283 135.997 45.9067 135.772C42.5322 135.513 39.2287 135.744 36.1088 136.325C32.9834 136.893 30.0539 137.876 27.3752 139.098C24.6948 140.322 22.2634 141.801 20.1269 143.449C15.8351 146.737 12.6932 150.588 10.5084 154.264C8.3206 157.955 7.08133 161.476 6.35063 164.393C5.6444 167.325 5.399 169.663 5.32189 171.246C5.24539 172.829 5.27171 173.662 5.27171 173.662Z" fill="#263238"/>
<path d="M145.652 107.158L141.362 108.208L144.087 118.298L79.4757 120.153L75.5419 120.627C75.5419 120.627 52.7688 156.364 48.7567 161.218C44.4667 166.409 39.4741 172.863 39.4741 172.863L43.6221 175.484C43.6221 175.484 54.9426 162.131 60.5979 153.116C66.2532 144.101 76.9494 127.267 76.9494 127.267L91.6143 182.939L96.8045 182.082L146.178 128.086L162.877 176.03L166.614 174.906L145.652 107.158ZM94.834 173.796L83.3012 125.306L140.822 123.988L94.834 173.796Z" fill="#F17832"/>
<path d="M90.4726 177.9L43.9143 171.91L43.123 175.414L90.4726 182.939V177.9Z" fill="#F17832"/>
<path d="M86.3973 99.6127C87.7565 99.5796 88.2962 97.8545 87.2087 97.0387C86.4003 96.4316 85.2394 95.9414 83.5846 95.8888C78.9849 95.7431 53.4041 95.8888 53.4041 95.8888C53.4041 95.8888 52.4684 97.2247 54.2621 98.707C56.0558 100.189 60.9694 101.671 63.6211 101.671C66.2729 101.671 73.7598 100.437 77.8154 100.04C80.3117 99.7951 83.9603 99.6714 86.3973 99.6127Z" fill="#455A64"/>
<path d="M158.701 174.097C158.701 176.415 160.58 178.294 162.898 178.294C165.215 178.294 167.095 176.415 167.095 174.097C167.095 171.779 165.216 169.9 162.898 169.9C160.58 169.9 158.701 171.779 158.701 174.097Z" fill="#E0E0E0"/>
<path d="M158.701 174.097C158.737 174.099 158.724 173.723 158.897 173.088C159.067 172.466 159.493 171.556 160.431 170.857C161.338 170.156 162.83 169.765 164.273 170.303C164.983 170.561 165.661 171.046 166.141 171.715C166.636 172.375 166.914 173.222 166.922 174.096C166.914 174.969 166.636 175.817 166.141 176.477C165.66 177.146 164.983 177.632 164.272 177.889C162.829 178.428 161.337 178.036 160.431 177.335C159.493 176.637 159.067 175.727 158.896 175.105C158.723 174.471 158.737 174.094 158.701 174.097C158.689 174.097 158.682 174.189 158.68 174.367C158.674 174.544 158.695 174.807 158.767 175.138C158.904 175.79 159.31 176.763 160.285 177.529C161.225 178.297 162.818 178.751 164.381 178.187C165.151 177.917 165.888 177.399 166.413 176.677C166.952 175.965 167.258 175.044 167.266 174.096C167.258 173.15 166.952 172.229 166.413 171.517C165.888 170.795 165.151 170.276 164.381 170.006C162.818 169.443 161.226 169.897 160.285 170.664C159.31 171.43 158.903 172.404 158.767 173.056C158.694 173.386 158.674 173.65 158.679 173.827C158.682 174.004 158.689 174.097 158.701 174.097Z" fill="#263238"/>
<path d="M79.6275 120.933L78.7812 117.208H73.5854L74.3694 121.472L79.1734 122.55L79.6275 120.933Z" fill="#F17832"/>
<path d="M43.144 177.733C45.4619 177.733 47.341 175.854 47.341 173.536C47.341 171.218 45.4619 169.339 43.144 169.339C40.8261 169.339 38.947 171.218 38.947 173.536C38.947 175.854 40.8261 177.733 43.144 177.733Z" fill="#E0E0E0"/>
<path d="M38.947 173.536C38.9837 173.538 38.9702 173.162 39.1428 172.527C39.3135 171.905 39.7395 170.995 40.6776 170.296C41.5846 169.596 43.0766 169.205 44.519 169.743C45.2296 170 45.907 170.485 46.3874 171.154C46.8819 171.815 47.1597 172.662 47.1683 173.535C47.1604 174.408 46.8825 175.256 46.3874 175.916C45.9064 176.586 45.2289 177.071 44.5184 177.329C43.0754 177.867 41.5834 177.476 40.677 176.775C39.7389 176.077 39.3129 175.167 39.1422 174.544C38.9702 173.91 38.9837 173.534 38.947 173.536C38.9353 173.536 38.928 173.627 38.9261 173.806C38.9206 173.982 38.9408 174.246 39.0137 174.577C39.1501 175.228 39.5565 176.201 40.5308 176.968C41.4714 177.736 43.0638 178.19 44.6274 177.626C45.3972 177.356 46.1341 176.838 46.6591 176.116C47.1983 175.403 47.5043 174.482 47.5122 173.535C47.5043 172.588 47.1983 171.667 46.6591 170.956C46.1341 170.233 45.3972 169.715 44.6274 169.446C43.0644 168.882 41.472 169.336 40.5314 170.104C39.5571 170.87 39.1501 171.844 39.0137 172.495C38.9414 172.826 38.9206 173.09 38.9261 173.266C38.928 173.444 38.9353 173.536 38.947 173.536Z" fill="#263238"/>
<path d="M86.2069 203.909L97.8323 208.609L99.5131 204.451L87.8877 199.751L86.2069 203.909Z" fill="#263238"/>
<path d="M86.2117 203.921L86.197 203.914L87.8843 199.743L87.8904 199.729L99.5303 204.434L99.5449 204.44L97.8577 208.613L97.8516 208.627L86.2117 203.921ZM87.9069 199.77L86.238 203.897L97.8338 208.586L99.5027 204.458L87.9069 199.77Z" fill="#455A64"/>
<path d="M93.021 204.164C94.1984 204.063 95.0705 203.026 94.9689 201.848L93.4958 184.766C93.3943 183.588 92.3576 182.716 91.1801 182.818C90.0027 182.919 89.1306 183.956 89.2322 185.133L90.7052 202.216C90.8068 203.394 91.8435 204.266 93.021 204.164Z" fill="#263238"/>
<path d="M93.0206 204.164C93.02 204.146 92.8511 204.166 92.5421 204.115C92.2397 204.061 91.7746 203.917 91.3634 203.49C91.1608 203.279 90.984 202.998 90.8787 202.66C90.7704 202.327 90.7826 201.922 90.7392 201.494C90.6725 200.632 90.5972 199.66 90.5139 198.588C90.3383 196.424 90.1296 193.865 89.8989 191.027C89.7796 189.603 89.6541 188.111 89.5238 186.564C89.4907 186.177 89.4577 185.786 89.424 185.393C89.3787 184.99 89.3775 184.644 89.5109 184.287C89.7526 183.586 90.4313 183.048 91.1932 182.989C91.9539 182.916 92.7152 183.33 93.0739 183.979C93.2666 184.307 93.3248 184.649 93.3493 185.053C93.3835 185.447 93.4178 185.837 93.4515 186.224C93.5885 187.771 93.7201 189.264 93.8462 190.687C94.1044 193.523 94.3376 196.08 94.5347 198.243C94.6363 199.312 94.7287 200.284 94.8101 201.144C94.8407 201.573 94.9221 201.97 94.8725 202.316C94.8266 202.667 94.6999 202.974 94.5365 203.216C94.2048 203.707 93.7709 203.929 93.4827 204.034C93.1877 204.137 93.0182 204.146 93.0206 204.164C93.0206 204.164 93.1926 204.184 93.5053 204.1C93.8101 204.012 94.277 203.802 94.6479 203.293C94.8303 203.041 94.9765 202.716 95.0365 202.338C95.0995 201.952 95.0236 201.552 95.0034 201.127C94.9367 200.265 94.8615 199.293 94.7782 198.221C94.602 196.057 94.3939 193.498 94.1632 190.66C94.0439 189.235 93.9184 187.742 93.788 186.195C93.755 185.807 93.722 185.417 93.6883 185.023C93.6693 184.643 93.5953 184.175 93.3719 183.808C92.9521 183.047 92.058 182.559 91.1645 182.646C90.2698 182.714 89.473 183.348 89.1902 184.17C89.033 184.569 89.0403 185.043 89.0868 185.42C89.1211 185.814 89.1553 186.204 89.189 186.591C89.3261 188.138 89.4577 189.63 89.5837 191.053C89.842 193.888 90.0752 196.445 90.2722 198.608C90.3738 199.678 90.4662 200.649 90.5476 201.509C90.6002 201.932 90.5947 202.339 90.722 202.708C90.845 203.07 91.0452 203.366 91.2679 203.582C91.7208 204.021 92.2165 204.148 92.5317 204.182C92.8548 204.213 93.0206 204.164 93.0206 204.164Z" fill="#455A64"/>
<path d="M94.3751 193.144C100.456 192.007 104.465 186.156 103.329 180.075C102.192 173.993 96.3409 169.985 90.2596 171.121C84.1782 172.257 80.1696 178.109 81.306 184.19C82.4425 190.271 88.2937 194.28 94.3751 193.144Z" fill="#E0E0E0"/>
<path d="M98.7637 164.159L87.5847 158.478L85.5527 162.476L96.7317 168.157L98.7637 164.159Z" fill="#263238"/>
<path d="M85.5461 162.48L85.532 162.473L87.5711 158.461L87.5784 158.447L98.771 164.136L98.785 164.143L96.7459 168.155L96.7386 168.169L85.5461 162.48ZM87.5919 158.489L85.5748 162.459L96.7251 168.126L98.7422 164.156L87.5919 158.489Z" fill="#455A64"/>
<path d="M92.1583 188.468C95.6913 188.468 98.5553 185.604 98.5553 182.071C98.5553 178.538 95.6913 175.674 92.1583 175.674C88.6253 175.674 85.7612 178.538 85.7612 182.071C85.7612 185.604 88.6253 188.468 92.1583 188.468Z" fill="#263238"/>
<path d="M92.0077 163.308C90.8259 163.308 89.8682 164.265 89.8682 165.447V182.594C89.8682 183.775 90.8259 184.733 92.0077 184.733C93.1894 184.733 94.1471 183.775 94.1471 182.594V165.447C94.1471 164.266 93.1894 163.308 92.0077 163.308Z" fill="#263238"/>
<path d="M92.0078 163.308C92.0071 163.326 92.1767 163.32 92.4808 163.397C92.7776 163.478 93.2287 163.661 93.6014 164.122C93.785 164.35 93.9373 164.645 94.0132 164.99C94.0928 165.331 94.0457 165.734 94.0518 166.164C94.0444 167.028 94.0359 168.003 94.0261 169.078C94.0157 171.249 94.0034 173.817 93.9893 176.664C93.9863 178.093 93.9826 179.591 93.9796 181.144C93.979 181.532 93.9783 181.924 93.9777 182.319C93.9887 182.724 93.9594 183.069 93.7966 183.413C93.4955 184.09 92.7727 184.569 92.009 184.562C91.2446 184.57 90.5219 184.092 90.2202 183.414C90.0568 183.07 90.0274 182.724 90.0378 182.319C90.0372 181.925 90.0366 181.532 90.036 181.144C90.0323 179.591 90.0292 178.092 90.0262 176.663C90.0121 173.816 89.9998 171.249 89.9894 169.077C89.9803 168.002 89.9717 167.027 89.9637 166.162C89.9699 165.733 89.9233 165.33 90.0023 164.989C90.0782 164.644 90.2306 164.349 90.4142 164.121C90.7869 163.661 91.2379 163.477 91.5347 163.397C91.8382 163.321 92.0084 163.326 92.0078 163.308C92.0078 163.308 91.8382 163.273 91.5194 163.33C91.2085 163.391 90.725 163.56 90.312 164.036C90.1082 164.271 89.935 164.583 89.8432 164.954C89.7477 165.333 89.7881 165.738 89.7722 166.163C89.7648 167.027 89.7563 168.003 89.7465 169.077C89.7361 171.249 89.7232 173.816 89.7098 176.664C89.7067 178.093 89.703 179.592 89.7 181.144C89.6994 181.533 89.6988 181.925 89.6981 182.32C89.6841 182.701 89.7177 183.174 89.9093 183.557C90.2618 184.352 91.1112 184.915 92.0084 184.906C92.9055 184.914 93.7544 184.351 94.1062 183.556C94.2972 183.172 94.3308 182.699 94.3168 182.319C94.3161 181.925 94.3155 181.532 94.3155 181.144C94.3119 179.592 94.3088 178.094 94.3057 176.665C94.2917 173.818 94.2794 171.25 94.269 169.079C94.2598 168.004 94.2513 167.028 94.2433 166.164C94.2274 165.739 94.2678 165.333 94.1723 164.955C94.0805 164.584 93.9067 164.273 93.7036 164.038C93.2905 163.562 92.807 163.392 92.4961 163.331C92.1767 163.273 92.0078 163.308 92.0078 163.308Z" fill="#455A64"/>
<path d="M160.129 96.4749C160.129 96.4749 167.891 93.3177 168.44 91.3055C168.989 89.2933 169.995 87.6465 171.458 89.1103C172.922 90.5736 173.62 92.8263 171.339 95.5673L163.637 100.453L160.128 97.5752V96.4749H160.129Z" fill="#263238"/>
<path d="M174.271 108.765C173.278 108.054 172.257 107.269 171.712 106.142C171.049 104.767 171.257 103.34 171.469 101.885C171.747 99.9675 171.857 96.833 169.569 96.0215C168.94 95.7981 168.519 95.1775 168.705 94.5007C168.873 93.8918 169.594 93.4132 170.226 93.6372C172.859 94.5711 174.066 97.2044 174.094 99.8623C174.109 101.267 173.699 102.634 173.71 104.031C173.721 105.247 174.599 105.972 175.519 106.63C176.061 107.018 176.321 107.707 175.962 108.32C175.649 108.857 174.817 109.155 174.271 108.765Z" fill="#263238"/>
<path d="M143.261 95.6777L137.968 97.0542L142.084 112.879L147.376 111.503L143.261 95.6777Z" fill="#E0E0E0"/>
<path d="M142.09 112.869C142.086 112.877 142.054 112.78 141.997 112.586C141.933 112.362 141.852 112.076 141.751 111.722C141.533 110.923 141.23 109.818 140.855 108.447C140.093 105.589 139.038 101.633 137.825 97.0826L137.785 96.9339L137.935 96.8947C139.605 96.459 141.387 95.9933 143.225 95.5135C143.616 95.7405 143.334 95.579 143.422 95.631L143.423 95.6359L143.425 95.6451L143.43 95.6634L143.44 95.7008L143.459 95.7748L143.497 95.9229L143.575 96.2185L143.728 96.8066C143.829 97.1971 143.929 97.5851 144.029 97.97C144.228 98.7392 144.425 99.4963 144.617 100.239C144.999 101.722 145.365 103.146 145.712 104.492C146.394 107.174 146.997 109.546 147.485 111.465L147.511 111.569L147.41 111.594C145.757 111.999 144.427 112.325 143.474 112.558C143.045 112.659 142.702 112.739 142.437 112.801C142.204 112.853 142.086 112.877 142.09 112.869C142.095 112.86 142.224 112.82 142.464 112.749C142.732 112.672 143.078 112.574 143.51 112.45C144.442 112.193 145.742 111.835 147.357 111.39L147.281 111.518C146.772 109.604 146.143 107.238 145.431 104.565C145.078 103.22 144.704 101.797 144.315 100.316C144.121 99.574 143.923 98.8176 143.722 98.0489C143.622 97.664 143.521 97.2766 143.418 96.8862L143.265 96.2981L143.188 96.0025L143.15 95.8544L143.131 95.7803L143.121 95.743L143.116 95.7246L143.114 95.7155L143.112 95.7106C143.199 95.7601 142.918 95.5924 143.305 95.8213C141.466 96.2981 139.682 96.7601 138.012 97.1928L138.122 97.0049C139.269 101.529 140.267 105.461 140.987 108.303C141.331 109.697 141.608 110.821 141.809 111.634C141.897 112.005 141.968 112.304 142.024 112.539C142.073 112.748 142.095 112.861 142.09 112.869Z" fill="#263238"/>
<path d="M154.375 112.196C156.61 111.877 158.88 110.627 160.277 108.454C161.572 106.443 162.096 103.72 161.261 101.322C160.394 98.8311 158.454 97.7956 156.319 97.6194C153.584 97.3935 150.789 97.6298 148.051 97.7222C144.796 97.8317 141.543 97.9896 138.291 98.1922C136.527 98.3023 136.532 95.0056 138.291 94.896C141.633 94.688 144.977 94.527 148.323 94.4169C149.95 94.3636 151.578 94.322 153.206 94.292C154.714 94.2645 156.213 94.2375 157.708 94.5123C160.582 95.0411 162.859 97.1793 163.906 100.445C164.908 103.571 164.352 107.221 162.764 109.923C160.793 113.274 157.703 115.017 154.375 115.492C153.638 115.598 153.003 114.659 153.003 113.844C153.003 112.866 153.636 112.302 154.375 112.196Z" fill="#E0E0E0"/>
<path d="M154.375 112.196C154.393 112.227 153.996 112.2 153.516 112.634C153.285 112.851 153.084 113.217 153.057 113.683C153.023 114.139 153.179 114.703 153.599 115.128C154.019 115.642 154.764 115.346 155.476 115.205C156.2 115.029 156.972 114.774 157.758 114.404C159.331 113.675 160.949 112.426 162.183 110.616C163.427 108.827 164.244 106.469 164.271 103.901C164.286 102.62 164.085 101.29 163.605 100.013C163.128 98.7411 162.399 97.5037 161.352 96.5233C160.312 95.5386 158.951 94.8569 157.469 94.6255C155.98 94.3795 154.423 94.4211 152.839 94.4572C151.254 94.5007 149.643 94.5454 148.006 94.5901C146.371 94.6684 144.712 94.7479 143.033 94.8281C142.193 94.8679 141.359 94.9077 140.53 94.9474C140.115 94.967 139.702 94.9866 139.29 95.0062L138.673 95.0356C138.466 95.0435 138.257 95.0515 138.091 95.0919C137.366 95.2632 137.045 96.1598 137.143 96.8838C137.189 97.2509 137.334 97.6206 137.609 97.8323C137.887 98.0588 138.228 98.0477 138.642 98.0184C141.811 97.869 144.868 97.7246 147.782 97.5875C150.688 97.4878 153.464 97.2699 156.067 97.4688C157.372 97.5361 158.655 97.9364 159.62 98.716C160.59 99.4908 161.181 100.581 161.479 101.652C162.087 103.829 161.647 105.937 160.894 107.516C160.131 109.122 158.99 110.22 157.953 110.89C156.911 111.572 155.978 111.87 155.35 112.028C154.718 112.18 154.375 112.196 154.375 112.196C154.374 112.191 154.458 112.171 154.62 112.138C154.783 112.107 155.024 112.052 155.336 111.965C155.954 111.789 156.87 111.474 157.887 110.786C158.898 110.109 160.002 109.019 160.735 107.439C161.458 105.885 161.869 103.817 161.265 101.714C160.968 100.676 160.394 99.6383 159.468 98.907C158.545 98.1714 157.327 97.7919 156.049 97.7314C153.474 97.5459 150.709 97.7717 147.794 97.8801C144.883 98.0233 141.829 98.1732 138.662 98.3293C138.301 98.3592 137.773 98.3856 137.414 98.0765C137.049 97.7883 136.887 97.3434 136.832 96.9217C136.781 96.4933 136.836 96.0508 137.021 95.6488C137.199 95.2498 137.558 94.8905 138.014 94.784C138.249 94.7296 138.451 94.7271 138.654 94.718L139.272 94.6886C139.684 94.669 140.097 94.6488 140.512 94.6292C141.342 94.5894 142.178 94.5497 143.018 94.5093C144.699 94.4291 146.359 94.3502 147.996 94.2724C149.633 94.229 151.247 94.1861 152.833 94.1439C154.415 94.1109 155.992 94.0692 157.519 94.3244C159.055 94.5662 160.479 95.2834 161.553 96.3085C162.637 97.3293 163.383 98.6083 163.869 99.9149C164.356 101.227 164.558 102.594 164.536 103.903C164.497 106.526 163.65 108.927 162.369 110.743C161.101 112.579 159.439 113.841 157.835 114.565C157.033 114.934 156.246 115.183 155.511 115.353C155.144 115.438 154.788 115.499 154.448 115.55C154.084 115.623 153.726 115.446 153.513 115.216C153.067 114.751 152.918 114.157 152.963 113.676C153 113.189 153.224 112.806 153.472 112.588C153.988 112.152 154.39 112.208 154.375 112.196Z" fill="#263238"/>
<path d="M35.8519 190.819C35.8501 190.836 35.5484 190.83 35.0086 190.754C34.4688 190.68 33.6928 190.508 32.7755 190.167C30.953 189.507 28.5375 187.992 26.898 185.449C25.2646 182.901 24.8901 180.074 25.0468 178.142C25.1178 177.166 25.283 176.389 25.4397 175.867C25.5951 175.344 25.7145 175.067 25.7316 175.073C25.8007 175.09 25.3552 176.228 25.272 178.154C25.1759 180.055 25.5792 182.801 27.1667 185.277C28.7597 187.748 31.0895 189.256 32.8587 189.958C34.6445 190.681 35.866 190.749 35.8519 190.819Z" fill="#263238"/>
<path d="M39.3856 197.047C39.385 197.058 39.2583 197.061 39.0159 197.057C38.7742 197.047 38.4156 197.055 37.9572 197.009C37.0392 196.946 35.7118 196.768 34.1127 196.362C32.5149 195.958 30.6514 195.284 28.7389 194.222C26.8277 193.168 24.8871 191.693 23.2091 189.801C21.5506 187.891 20.356 185.759 19.61 183.704C18.8622 181.647 18.5268 179.684 18.4717 178.034C18.4111 176.382 18.5678 175.046 18.7581 174.145C18.8316 173.69 18.9503 173.35 19.006 173.115C19.0702 172.881 19.1094 172.76 19.1198 172.763C19.1498 172.771 19.0274 173.265 18.8799 174.167C18.7281 175.068 18.6082 176.394 18.6963 178.023C18.7795 179.652 19.1333 181.582 19.8848 183.603C20.6345 185.622 21.8174 187.715 23.4477 189.592C25.0983 191.453 27.0027 192.912 28.8815 193.967C30.7609 195.028 32.5944 195.718 34.1696 196.145C35.7461 196.576 37.0582 196.786 37.9676 196.886C38.4211 196.952 38.7773 196.963 39.0172 196.994C39.2595 197.018 39.3862 197.036 39.3856 197.047Z" fill="#263238"/>
<path d="M172.674 153.08C172.674 153.062 172.975 153.045 173.519 153.078C174.063 153.11 174.85 153.221 175.792 153.488C177.66 154.003 180.188 155.324 182.022 157.73C183.85 160.142 184.446 162.931 184.441 164.869C184.447 165.848 184.344 166.636 184.228 167.169C184.115 167.702 184.017 167.987 184 167.983C183.93 167.972 184.284 166.801 184.216 164.875C184.163 162.972 183.545 160.267 181.768 157.923C179.986 155.584 177.544 154.264 175.726 153.704C173.888 153.123 172.666 153.152 172.674 153.08Z" fill="#263238"/>
<path d="M168.662 147.149C168.661 147.138 168.788 147.125 169.029 147.11C169.271 147.102 169.628 147.065 170.088 147.075C171.009 147.066 172.345 147.138 173.971 147.418C175.596 147.695 177.507 148.22 179.496 149.129C181.484 150.029 183.535 151.348 185.356 153.101C187.159 154.875 188.517 156.907 189.422 158.896C190.33 160.888 190.818 162.819 191.003 164.46C191.192 166.101 191.142 167.446 191.023 168.359C190.985 168.818 190.894 169.167 190.857 169.406C190.811 169.644 190.782 169.768 190.771 169.765C190.74 169.76 190.823 169.258 190.9 168.347C190.981 167.437 190.996 166.106 190.78 164.488C190.569 162.871 190.065 160.975 189.156 159.019C188.25 157.065 186.907 155.072 185.134 153.329C183.342 151.604 181.329 150.298 179.373 149.394C177.417 148.483 175.535 147.941 173.93 147.639C172.325 147.334 171.001 147.227 170.086 147.198C169.628 147.169 169.272 147.185 169.031 147.173C168.79 147.168 168.662 147.16 168.662 147.149Z" fill="#263238"/>
<g opacity="0.3">
<path d="M92.7071 119.773L89.8682 125.155H95.0149L98.2388 119.586L92.7071 119.773Z" fill="black"/>
</g>
<path d="M108.112 66.3605C108.042 66.4144 104.613 62.0693 100.453 56.6569C96.2923 51.2427 92.9772 46.812 93.047 46.7581C93.1167 46.7043 96.5451 51.0487 100.706 56.4629C104.865 61.8753 108.181 66.3073 108.112 66.3605Z" fill="#263238"/>
<path d="M144.354 92.1121C144.019 91.9781 146.291 94.904 146.633 95.8158C146.975 96.7277 147.202 100.431 148.513 100.545C149.823 100.659 150.165 99.1781 149.994 98.8929C149.824 98.6083 148.57 93.822 148.57 93.822C148.57 93.822 144.638 92.226 144.354 92.1121Z" fill="#FFBF9D"/>
<path d="M157.181 97.5037C156.896 97.5037 155.073 97.5037 155.073 97.5037C155.073 97.5037 152.167 94.7688 151.141 94.9395C150.115 95.1102 150.856 96.2179 150.856 96.2179C150.856 96.2179 149.033 96.3073 149.147 96.877C149.261 97.4468 151.825 99.1561 151.995 99.1561C152.166 99.1561 157.18 99.6689 157.636 98.757C158.093 97.8458 157.181 97.5037 157.181 97.5037Z" fill="#FFBF9D"/>
<path d="M89.1523 141.377C89.1523 141.152 92.0078 135.666 92.0078 135.666C92.0078 135.666 103.6 139.864 103.044 140.208C102.487 140.553 98.4422 146.546 98.2176 146.546C97.993 146.546 92.9736 146.546 92.9736 146.546L89.153 143.849L89.1523 141.377Z" fill="#FFBF9D"/>
<path d="M88.9128 141.393L90.1803 139.224L100.096 144.077L98.2174 146.546L93.5725 147.654L89.1521 145.048L88.9128 141.393Z" fill="#E0E0E0"/>
<path d="M90.097 135.806L102.009 143.532C102.009 143.532 103.176 142.939 104.28 141.106C104.539 140.677 104.325 139.718 104.627 139.212C109.288 131.411 118.826 114.903 121.952 105.425C126.157 92.674 82.4485 74.62 82.4485 74.62L53.4149 64.5896C53.4149 64.5896 48.5539 74.06 47.9603 77.1787C47.3667 80.2973 47.6488 81.2826 51.6444 86.6962C56.6131 93.428 64.7427 95.8056 74.6586 98.9273C84.5751 102.048 100.725 106.311 100.725 106.311C100.725 106.311 103.122 105.559 103.224 106.311C103.326 107.062 101.355 107.983 101.355 107.983L100.725 109.518L92.0688 130.381L90.1944 132.638L90.097 135.806Z" fill="#342A57"/>
<path d="M90.097 135.806L102.009 143.532C102.009 143.532 103.176 142.939 104.28 141.106C104.539 140.677 104.325 139.718 104.627 139.212C109.288 131.411 118.826 114.903 121.952 105.425C126.157 92.674 82.4485 74.62 82.4485 74.62L53.4149 64.5896C53.4149 64.5896 48.5539 74.06 47.9603 77.1787C47.3667 80.2973 47.6488 81.2826 51.6444 86.6962C56.6131 93.428 64.7427 95.8056 74.6586 98.9273C84.5751 102.048 100.725 106.311 100.725 106.311C100.725 106.311 103.122 105.559 103.224 106.311C103.326 107.062 101.355 107.983 101.355 107.983L100.725 109.518L92.0688 130.381L90.1944 132.638L90.097 135.806Z" fill="black" fill-opacity="0.2"/>
<path d="M90.097 135.806L102.009 143.532C102.009 143.532 103.176 142.939 104.28 141.106C104.539 140.677 104.325 139.718 104.627 139.212C109.288 131.411 118.826 114.903 121.952 105.425C126.157 92.674 82.4485 74.62 82.4485 74.62L53.4149 64.5896C53.4149 64.5896 48.5539 74.06 47.9603 77.1787C47.3667 80.2973 47.6488 81.2826 51.6444 86.6962C56.6131 93.428 64.7427 95.8056 74.6586 98.9273C84.5751 102.048 100.725 106.311 100.725 106.311C100.725 106.311 103.122 105.559 103.224 106.311C103.326 107.062 101.355 107.983 101.355 107.983L100.725 109.518L92.0688 130.381L90.1944 132.638L90.097 135.806Z" fill="black" fill-opacity="0.2"/>
<path d="M90.097 135.806L102.009 143.532C102.009 143.532 103.176 142.939 104.28 141.106C104.539 140.677 104.325 139.718 104.627 139.212C109.288 131.411 118.826 114.903 121.952 105.425C126.157 92.674 82.4485 74.62 82.4485 74.62L53.4149 64.5896C53.4149 64.5896 48.5539 74.06 47.9603 77.1787C47.3667 80.2973 47.6488 81.2826 51.6444 86.6962C56.6131 93.428 64.7427 95.8056 74.6586 98.9273C84.5751 102.048 100.725 106.311 100.725 106.311C100.725 106.311 103.122 105.559 103.224 106.311C103.326 107.062 101.355 107.983 101.355 107.983L100.725 109.518L92.0688 130.381L90.1944 132.638L90.097 135.806Z" fill="black" fill-opacity="0.2"/>
<path d="M104.336 165.073C104.336 165.073 99.6523 163.846 96.3984 161.494C93.1439 159.143 88.8086 154.894 87.1997 153.353C85.5915 151.812 79.7825 149.205 80.5414 147.077C81.3002 144.95 89.3074 140.208 89.3074 140.208C89.3074 140.208 88.5975 142.642 90.5265 143.702C92.4554 144.762 96.7087 145.981 96.7087 145.981C96.7087 145.981 99.7772 144.472 100.919 145.027C102.06 145.583 99.85 148.441 99.85 148.441C99.85 148.441 100.272 153.726 101.607 155.616C102.942 157.507 102.676 158.103 104.759 159.431C106.843 160.758 107.39 162.144 107.39 162.144C107.39 162.144 107.319 164.459 106.448 164.784C105.577 165.109 104.336 165.073 104.336 165.073Z" fill="#455A64"/>
<path d="M106.495 164.764C105.634 165.199 104.324 165.105 104.324 165.105C104.324 165.105 99.6405 163.878 96.3866 161.527C93.1321 159.176 88.7968 154.927 87.1885 153.385C85.5802 151.844 79.7713 149.236 80.5302 147.109C80.7327 146.524 81.0816 146.01 81.5742 145.565C81.5742 145.565 86.1702 150.347 88.8488 151.895C91.5275 153.444 96.0555 158.701 99.0634 160.479C102.071 162.257 105.88 163.557 105.88 163.557L107.183 163.618C107.036 164.125 107.004 164.516 106.495 164.764Z" fill="#E0E0E0"/>
<path d="M101.249 154.694C101.198 154.659 100.879 155.126 100.293 155.455C99.7118 155.795 99.1482 155.834 99.1525 155.895C99.1421 155.947 99.7596 156.001 100.395 155.633C101.033 155.272 101.299 154.711 101.249 154.694Z" fill="white"/>
<path d="M100.443 152.124C100.396 152.084 99.974 152.618 99.2366 152.951C98.5053 153.296 97.826 153.271 97.826 153.333C97.8094 153.383 98.534 153.506 99.3229 153.137C100.115 152.776 100.492 152.144 100.443 152.124Z" fill="white"/>
<path d="M100.095 149.924C100.064 149.872 99.5759 150.121 98.9333 150.303C98.2926 150.491 97.7461 150.541 97.7485 150.601C97.7467 150.654 98.3189 150.696 98.9903 150.5C99.6628 150.308 100.125 149.968 100.095 149.924Z" fill="white"/>
<path d="M87.3331 147.656C87.316 147.678 87.5516 147.897 87.9568 148.224C88.3613 148.549 88.9384 148.978 89.5993 149.416C90.2609 149.853 90.8808 150.217 91.3386 150.463C91.7963 150.709 92.0907 150.839 92.1042 150.815C92.1329 150.763 91.0271 150.117 89.7125 149.245C88.3968 148.375 87.3699 147.609 87.3331 147.656Z" fill="white"/>
<path d="M51.7322 65.092C51.7322 65.092 53.3 63.8821 56.4634 63.1275C61.4486 61.9391 68.2293 64.2842 72.9324 67.5332C72.9324 67.5332 66.3732 65.7615 61.8035 66.1305C57.2339 66.4996 49.8625 70.8514 49.8625 70.8514L51.7322 65.092Z" fill="#455A64"/>
<path d="M58.7283 66.6428C58.7283 66.6428 69.1583 64.0271 75.813 66.8331C77.2395 67.4347 79.8043 71.5943 81.0393 73.4896C82.2743 75.3855 84.3831 77.1817 84.3831 77.1817L74.5156 81.1284L66.509 70.8514L58.7283 66.6428Z" fill="#342A57"/>
<path d="M58.7283 66.6428C58.7283 66.6428 69.1583 64.0271 75.813 66.8331C77.2395 67.4347 79.8043 71.5943 81.0393 73.4896C82.2743 75.3855 84.3831 77.1817 84.3831 77.1817L74.5156 81.1284L66.509 70.8514L58.7283 66.6428Z" fill="black" fill-opacity="0.2"/>
<path d="M58.7283 66.6428C58.7283 66.6428 69.1583 64.0271 75.813 66.8331C77.2395 67.4347 79.8043 71.5943 81.0393 73.4896C82.2743 75.3855 84.3831 77.1817 84.3831 77.1817L74.5156 81.1284L66.509 70.8514L58.7283 66.6428Z" fill="black" fill-opacity="0.2"/>
<path d="M58.7283 66.6428C58.7283 66.6428 69.1583 64.0271 75.813 66.8331C77.2395 67.4347 79.8043 71.5943 81.0393 73.4896C82.2743 75.3855 84.3831 77.1817 84.3831 77.1817L74.5156 81.1284L66.509 70.8514L58.7283 66.6428Z" fill="black" fill-opacity="0.2"/>
<path d="M68.707 68.6954C68.7052 68.6734 68.9145 68.6336 69.2945 68.581C69.6752 68.5277 70.2266 68.4616 70.9096 68.3864C71.6213 68.3129 72.4285 68.2297 73.3091 68.1385C73.7608 68.1012 74.2547 68.0547 74.7724 68.1642C75.2901 68.2615 75.806 68.6152 76.0637 69.1232C76.3323 69.6232 76.399 70.188 76.3225 70.7052C76.2411 71.2296 76.0104 71.6831 75.7424 72.0674C75.1928 72.8342 74.5129 73.3336 73.9676 73.7449C73.4138 74.1518 72.9738 74.4823 72.6855 74.732C72.3955 74.9786 72.2467 75.1304 72.2278 75.1145C72.1837 75.0833 72.7369 74.4052 73.8293 73.5668C74.3569 73.1347 75.0013 72.6262 75.5006 71.9004C75.7436 71.5399 75.9474 71.1158 76.0135 70.6593C76.0777 70.2021 76.0135 69.7003 75.7834 69.275C75.5588 68.8429 75.1555 68.562 74.7038 68.4684C74.2522 68.3674 73.781 68.4004 73.3318 68.4304C72.4499 68.4965 71.6415 68.5565 70.9291 68.6097C70.245 68.6562 69.6899 68.6881 69.3062 68.7034C68.9231 68.7193 68.7095 68.7174 68.707 68.6954Z" fill="#455A64"/>
<path d="M71.7408 74.5728C71.7983 74.645 70.3185 75.8965 68.5738 77.5243C66.8247 79.1492 65.471 80.5347 65.4031 80.4729C65.3719 80.4441 65.6705 80.0592 66.1962 79.4741C66.7219 78.8897 67.4783 78.1094 68.3565 77.2912C69.2347 76.4742 70.067 75.7753 70.6876 75.2924C71.3087 74.8096 71.7139 74.5391 71.7408 74.5728Z" fill="#455A64"/>
<path d="M66.3997 70.0332C66.4108 70.0766 65.8887 70.2455 65.0418 70.4989C64.0779 70.7841 62.9623 71.1133 61.7303 71.4774C60.4996 71.8477 59.3858 72.183 58.4238 72.4725C57.5762 72.7253 57.0474 72.8691 57.0328 72.8269C57.0187 72.7865 57.5217 72.5661 58.3528 72.2589C59.1839 71.9511 60.3436 71.5588 61.6398 71.1721C62.9353 70.7859 64.1207 70.4787 64.9842 70.281C65.8477 70.0833 66.3893 69.9915 66.3997 70.0332Z" fill="#455A64"/>
<path d="M66.7642 71.1964C66.7985 71.2778 64.3787 72.3702 61.361 73.6364C58.3421 74.9032 55.8679 75.864 55.8336 75.7826C55.7993 75.7018 58.2185 74.6094 61.2374 73.3426C64.2557 72.0764 66.7305 71.1156 66.7642 71.1964Z" fill="#455A64"/>
<path d="M107.162 106.321C107.159 106.297 107.535 106.242 108.213 106.133C108.89 106.024 109.869 105.864 111.067 105.609C112.265 105.353 113.682 105.005 115.226 104.521C115.611 104.395 116.005 104.265 116.407 104.133C116.798 103.983 117.244 103.879 117.569 103.662C117.733 103.551 117.846 103.406 117.832 103.254C117.83 103.107 117.695 102.961 117.525 102.893C117.182 102.762 116.696 102.911 116.239 102.966C112.541 103.543 109.232 104.284 106.852 104.881C105.703 105.179 104.755 105.425 104.039 105.611C103.376 105.787 103.007 105.879 103 105.858C102.997 105.847 103.085 105.81 103.255 105.748C103.462 105.677 103.709 105.593 104.004 105.492C104.658 105.279 105.609 104.989 106.795 104.663C109.164 104.008 112.478 103.231 116.189 102.651C116.422 102.616 116.653 102.58 116.883 102.545C117.119 102.515 117.382 102.498 117.643 102.6C117.889 102.699 118.13 102.923 118.146 103.239C118.165 103.554 117.941 103.792 117.745 103.92C117.326 104.188 116.902 104.269 116.504 104.422C116.099 104.558 115.701 104.683 115.312 104.802C113.752 105.275 112.32 105.601 111.111 105.831C109.901 106.059 108.912 106.186 108.228 106.257C107.886 106.293 107.62 106.313 107.438 106.323C107.258 106.332 107.162 106.332 107.162 106.321Z" fill="black"/>
<path d="M108.406 107.98C108.421 108.067 107.196 108.361 105.67 108.636C104.143 108.912 102.893 109.066 102.877 108.979C102.861 108.892 104.086 108.598 105.613 108.322C107.14 108.047 108.39 107.893 108.406 107.98Z" fill="black"/>
<path d="M57.3518 62.8142L57.9387 67.3539L60.4576 66.5467L60.0421 62.8142C60.0421 62.8142 58.3585 62.4715 57.3518 62.8142Z" fill="#342A57"/>
<path d="M57.3518 62.8142L57.9387 67.3539L60.4576 66.5467L60.0421 62.8142C60.0421 62.8142 58.3585 62.4715 57.3518 62.8142Z" fill="black" fill-opacity="0.2"/>
<path d="M57.3518 62.8142L57.9387 67.3539L60.4576 66.5467L60.0421 62.8142C60.0421 62.8142 58.3585 62.4715 57.3518 62.8142Z" fill="black" fill-opacity="0.2"/>
<path d="M57.3518 62.8142L57.9387 67.3539L60.4576 66.5467L60.0421 62.8142C60.0421 62.8142 58.3585 62.4715 57.3518 62.8142Z" fill="black" fill-opacity="0.2"/>
<g opacity="0.3">
<path d="M75.6655 68.9451C75.056 68.2138 74.2971 68.2579 73.3455 68.2836C72.3939 68.3087 70.3284 68.7799 69.3884 68.6324L69.7789 68.6691C70.5934 68.7444 71.3902 69.0075 72.0891 69.4323C72.3504 69.5914 72.6185 69.8025 72.6735 70.1036C72.7549 70.5503 72.3455 70.9157 72.0034 71.2143C71.6864 71.4909 71.3884 71.8018 71.2066 72.1813C71.0249 72.5607 70.9722 73.0191 71.1473 73.4016C71.3761 73.9022 71.9545 74.1745 72.5052 74.1788C73.056 74.1831 73.3498 73.7467 73.8369 73.4903C74.7004 73.0368 75.239 72.4585 75.6986 71.598C76.1588 70.737 76.2903 69.6942 75.6655 68.9451Z" fill="black"/>
</g>
<g opacity="0.3">
<path d="M114.066 45.9162C114.304 46.5147 114.54 47.1132 114.778 47.7117C115.888 47.1848 117.032 46.7295 118.201 46.3488C117.837 46.825 117.616 47.4088 117.575 48.0061C118.4 47.5648 119.149 46.9804 119.778 46.287C119.972 46.0734 120.161 45.8348 120.207 45.5496C120.253 45.2644 120.099 44.929 119.817 44.8697C119.649 44.8342 119.478 44.9009 119.319 44.9658C118.444 45.3232 117.57 45.6799 116.695 46.0373C116.28 46.2069 115.827 46.3788 115.395 46.2576C114.796 46.0887 114.492 45.4394 114.263 44.8605" fill="black"/>
</g>
<g opacity="0.3">
<path d="M101.627 106.163C106.523 104.696 111.487 103.453 116.497 102.438C117.04 102.328 117.817 102.376 117.884 102.926C117.933 103.322 117.532 103.612 117.18 103.798C113.04 105.983 108.268 106.95 103.604 106.551" fill="black"/>
</g>
<path d="M92.0676 130.381L105.132 138.364L107.181 134.881L93.5596 126.786L92.0676 130.381Z" fill="#F17832"/>
<path d="M92.8672 128.288L92.5483 128.81L105.937 136.985L106.256 136.462L92.8672 128.288Z" fill="white"/>
<path d="M117.072 49.1168C117.072 49.1168 104.399 59.4335 100.393 60.6355C96.3878 61.8368 79.6274 58.4587 79.6274 58.4587L72.8008 61.1624L78.6679 66.3612C78.6679 66.3612 97.6778 69.5998 103 66.3612C108.323 63.122 118.581 50.4484 118.581 50.4484L117.072 49.1168Z" fill="#455A64"/>
<path d="M117.248 46.5011L116.387 49.9343L118.023 50.9888L120.76 48.6198L119.528 46.0091L117.248 46.5011Z" fill="#455A64"/>
<path d="M93.0342 47.0432C93.7 47.591 110.992 70.5525 114.079 74.4196C116.496 77.4483 133.388 86.5448 133.388 86.5448L140.821 90.5472C140.657 90.3672 145.237 83.6875 145.237 83.6875L138.608 77.5224C138.608 77.5224 120.762 60.0454 118.858 58.2345C116.954 56.4231 114.33 45.6039 114.33 45.6039C114.33 45.6039 118.234 31.6237 106.535 30.7559C94.8358 29.8875 93.0342 47.0432 93.0342 47.0432Z" fill="#F17832"/>
<path d="M112.208 43.7435C112.19 43.7913 111.527 43.5691 110.438 43.2851C109.35 43 107.828 42.6793 106.122 42.5128C104.415 42.35 102.859 42.3739 101.737 42.4461C100.614 42.5171 99.9206 42.6083 99.9126 42.5581C99.9059 42.5214 100.589 42.3506 101.717 42.2215C102.845 42.0912 104.423 42.0306 106.152 42.1958C107.881 42.3641 109.418 42.7252 110.5 43.0691C111.584 43.4106 112.221 43.7086 112.208 43.7435Z" fill="#263238"/>
<path d="M113.712 43.8273C113.64 43.8903 112.506 42.6211 110.886 41.3066C109.272 39.9828 107.802 39.1273 107.849 39.0435C107.883 38.9712 109.446 39.7136 111.088 41.0593C112.735 42.3971 113.776 43.7796 113.712 43.8273Z" fill="#263238"/>
<path d="M116.904 54.3369C116.898 54.3387 116.874 54.2861 116.833 54.1808C116.787 54.0542 116.731 53.9006 116.662 53.7139C116.51 53.2714 116.302 52.6711 116.042 51.9177C115.512 50.3266 114.766 48.0928 113.862 45.3824L113.853 45.3542L113.857 45.3218C114.152 43.4185 114.457 41.2319 114.234 38.8929C114.112 37.732 113.856 36.5282 113.305 35.4163C113.039 34.8563 112.679 34.3386 112.278 33.849C111.861 33.371 111.381 32.9396 110.854 32.5607C109.542 31.6538 108.015 31.1563 106.518 30.9959C105.017 30.8429 103.539 31.0051 102.221 31.4316C100.893 31.8319 99.8332 32.6734 98.9379 33.5222C98.042 34.3796 97.3082 35.2828 96.6913 36.1408C95.4704 37.8715 94.7403 39.4413 94.3768 40.5655C94.0072 41.6915 93.99 42.358 93.9509 42.3531C93.9509 42.3531 93.9209 41.6805 94.2587 40.5288C94.5898 39.3794 95.2966 37.7785 96.5071 36.0117C97.1191 35.1354 97.851 34.2131 98.7549 33.3318C99.6539 32.4628 100.746 31.5797 102.131 31.152C103.486 30.7052 105.004 30.5314 106.55 30.685C108.092 30.846 109.672 31.3558 111.037 32.2994C111.585 32.6935 112.085 33.1427 112.519 33.6421C112.938 34.1531 113.312 34.6947 113.588 35.2773C114.157 36.4358 114.415 37.6775 114.535 38.8635C114.75 41.2533 114.425 43.4528 114.109 45.3646L114.105 45.304C114.966 48.0286 115.675 50.2739 116.18 51.8737C116.412 52.6362 116.597 53.2439 116.734 53.6913C116.788 53.8828 116.833 54.0401 116.87 54.1698C116.899 54.2781 116.911 54.3351 116.904 54.3369Z" fill="#263238"/>
<g opacity="0.3">
<path d="M93.742 47.7703C93.5841 49.1234 94.3038 50.4085 95.0192 51.5676C96.3827 53.7763 97.8257 55.9347 99.2682 58.0932C100.99 60.6684 103.537 63.9339 105.461 66.3604C106.06 67.115 107.444 69.2214 107.848 69.2698C108.252 69.3188 109.679 68.853 109.771 68.4565L93.742 47.7703Z" fill="black"/>
</g>
</svg>
