<svg width="54" height="54" viewBox="0 0 54 54" fill="none" xmlns="http://www.w3.org/2000/svg">
<path d="M42.834 43.0031C39.874 43.0031 37.5007 45.3764 37.5007 48.3364C37.5007 49.7509 38.0626 51.1075 39.0628 52.1077C40.063 53.1079 41.4195 53.6698 42.834 53.6698C44.2485 53.6698 45.6051 53.1079 46.6053 52.1077C47.6055 51.1075 48.1674 49.7509 48.1674 48.3364C48.1674 45.3764 45.7674 43.0031 42.834 43.0031ZM0.167358 0.336426V5.66976H5.50069L15.1007 25.9098L11.474 32.4431C11.074 33.1898 10.834 34.0698 10.834 35.0031C10.834 36.4176 11.3959 37.7741 12.3961 38.7743C13.3963 39.7745 14.7529 40.3364 16.1674 40.3364H48.1674V35.0031H17.2874C17.1105 35.0031 16.941 34.9329 16.816 34.8078C16.6909 34.6828 16.6207 34.5132 16.6207 34.3364C16.6207 34.2031 16.6474 34.0964 16.7007 34.0164L19.1007 29.6698H38.9674C40.9674 29.6698 42.7274 28.5498 43.634 26.9231L53.1807 9.66976C53.3674 9.24309 53.5007 8.78976 53.5007 8.33643C53.5007 7.62918 53.2197 6.9509 52.7196 6.45081C52.2195 5.95071 51.5413 5.66976 50.834 5.66976H11.394L8.88736 0.336426H0.167358ZM16.1674 43.0031C13.2074 43.0031 10.834 45.3764 10.834 48.3364C10.834 49.7509 11.3959 51.1075 12.3961 52.1077C13.3963 53.1079 14.7529 53.6698 16.1674 53.6698C17.5818 53.6698 18.9384 53.1079 19.9386 52.1077C20.9388 51.1075 21.5007 49.7509 21.5007 48.3364C21.5007 45.3764 19.1007 43.0031 16.1674 43.0031Z" fill="#342A57"/>
<path d="M42.834 43.0031C39.874 43.0031 37.5007 45.3764 37.5007 48.3364C37.5007 49.7509 38.0626 51.1075 39.0628 52.1077C40.063 53.1079 41.4195 53.6698 42.834 53.6698C44.2485 53.6698 45.6051 53.1079 46.6053 52.1077C47.6055 51.1075 48.1674 49.7509 48.1674 48.3364C48.1674 45.3764 45.7674 43.0031 42.834 43.0031ZM0.167358 0.336426V5.66976H5.50069L15.1007 25.9098L11.474 32.4431C11.074 33.1898 10.834 34.0698 10.834 35.0031C10.834 36.4176 11.3959 37.7741 12.3961 38.7743C13.3963 39.7745 14.7529 40.3364 16.1674 40.3364H48.1674V35.0031H17.2874C17.1105 35.0031 16.941 34.9329 16.816 34.8078C16.6909 34.6828 16.6207 34.5132 16.6207 34.3364C16.6207 34.2031 16.6474 34.0964 16.7007 34.0164L19.1007 29.6698H38.9674C40.9674 29.6698 42.7274 28.5498 43.634 26.9231L53.1807 9.66976C53.3674 9.24309 53.5007 8.78976 53.5007 8.33643C53.5007 7.62918 53.2197 6.9509 52.7196 6.45081C52.2195 5.95071 51.5413 5.66976 50.834 5.66976H11.394L8.88736 0.336426H0.167358ZM16.1674 43.0031C13.2074 43.0031 10.834 45.3764 10.834 48.3364C10.834 49.7509 11.3959 51.1075 12.3961 52.1077C13.3963 53.1079 14.7529 53.6698 16.1674 53.6698C17.5818 53.6698 18.9384 53.1079 19.9386 52.1077C20.9388 51.1075 21.5007 49.7509 21.5007 48.3364C21.5007 45.3764 19.1007 43.0031 16.1674 43.0031Z" fill="black" fill-opacity="0.2"/>
<path d="M42.834 43.0031C39.874 43.0031 37.5007 45.3764 37.5007 48.3364C37.5007 49.7509 38.0626 51.1075 39.0628 52.1077C40.063 53.1079 41.4195 53.6698 42.834 53.6698C44.2485 53.6698 45.6051 53.1079 46.6053 52.1077C47.6055 51.1075 48.1674 49.7509 48.1674 48.3364C48.1674 45.3764 45.7674 43.0031 42.834 43.0031ZM0.167358 0.336426V5.66976H5.50069L15.1007 25.9098L11.474 32.4431C11.074 33.1898 10.834 34.0698 10.834 35.0031C10.834 36.4176 11.3959 37.7741 12.3961 38.7743C13.3963 39.7745 14.7529 40.3364 16.1674 40.3364H48.1674V35.0031H17.2874C17.1105 35.0031 16.941 34.9329 16.816 34.8078C16.6909 34.6828 16.6207 34.5132 16.6207 34.3364C16.6207 34.2031 16.6474 34.0964 16.7007 34.0164L19.1007 29.6698H38.9674C40.9674 29.6698 42.7274 28.5498 43.634 26.9231L53.1807 9.66976C53.3674 9.24309 53.5007 8.78976 53.5007 8.33643C53.5007 7.62918 53.2197 6.9509 52.7196 6.45081C52.2195 5.95071 51.5413 5.66976 50.834 5.66976H11.394L8.88736 0.336426H0.167358ZM16.1674 43.0031C13.2074 43.0031 10.834 45.3764 10.834 48.3364C10.834 49.7509 11.3959 51.1075 12.3961 52.1077C13.3963 53.1079 14.7529 53.6698 16.1674 53.6698C17.5818 53.6698 18.9384 53.1079 19.9386 52.1077C20.9388 51.1075 21.5007 49.7509 21.5007 48.3364C21.5007 45.3764 19.1007 43.0031 16.1674 43.0031Z" fill="black" fill-opacity="0.2"/>
<path d="M42.834 43.0031C39.874 43.0031 37.5007 45.3764 37.5007 48.3364C37.5007 49.7509 38.0626 51.1075 39.0628 52.1077C40.063 53.1079 41.4195 53.6698 42.834 53.6698C44.2485 53.6698 45.6051 53.1079 46.6053 52.1077C47.6055 51.1075 48.1674 49.7509 48.1674 48.3364C48.1674 45.3764 45.7674 43.0031 42.834 43.0031ZM0.167358 0.336426V5.66976H5.50069L15.1007 25.9098L11.474 32.4431C11.074 33.1898 10.834 34.0698 10.834 35.0031C10.834 36.4176 11.3959 37.7741 12.3961 38.7743C13.3963 39.7745 14.7529 40.3364 16.1674 40.3364H48.1674V35.0031H17.2874C17.1105 35.0031 16.941 34.9329 16.816 34.8078C16.6909 34.6828 16.6207 34.5132 16.6207 34.3364C16.6207 34.2031 16.6474 34.0964 16.7007 34.0164L19.1007 29.6698H38.9674C40.9674 29.6698 42.7274 28.5498 43.634 26.9231L53.1807 9.66976C53.3674 9.24309 53.5007 8.78976 53.5007 8.33643C53.5007 7.62918 53.2197 6.9509 52.7196 6.45081C52.2195 5.95071 51.5413 5.66976 50.834 5.66976H11.394L8.88736 0.336426H0.167358ZM16.1674 43.0031C13.2074 43.0031 10.834 45.3764 10.834 48.3364C10.834 49.7509 11.3959 51.1075 12.3961 52.1077C13.3963 53.1079 14.7529 53.6698 16.1674 53.6698C17.5818 53.6698 18.9384 53.1079 19.9386 52.1077C20.9388 51.1075 21.5007 49.7509 21.5007 48.3364C21.5007 45.3764 19.1007 43.0031 16.1674 43.0031Z" fill="black" fill-opacity="0.2"/>
</svg>
