<svg width="64" height="65" viewBox="0 0 64 65" fill="none" xmlns="http://www.w3.org/2000/svg">
<path d="M64 32.0934C64 36.413 63.1538 40.6041 61.4849 44.5495C59.8728 48.3602 57.5657 51.7825 54.6276 54.7214C51.6887 57.6595 48.2671 59.9666 44.4565 61.5788C40.5104 63.2477 36.32 64.0938 32.0004 64.0938C27.6808 64.0938 23.4897 63.2477 19.5442 61.5788C15.7336 59.9667 12.3113 57.6596 9.37247 54.7214C6.43426 51.7825 4.12723 48.3602 2.51506 44.5495C0.846174 40.604 0 36.413 0 32.0934C0 27.7738 0.846174 23.5835 2.51506 19.6373C4.12716 15.8267 6.43426 12.4044 9.37247 9.46622C12.3113 6.52808 15.7337 4.22024 19.5442 2.6088C23.4897 0.939915 27.6808 0.09375 32.0004 0.09375C36.32 0.09375 40.5104 0.939915 44.4565 2.6088C48.2671 4.22024 51.6887 6.52801 54.6276 9.46622C57.5657 12.4044 59.8728 15.8267 61.4849 19.6373C63.1538 23.5835 64 27.7738 64 32.0934Z" fill="black"/>
<path d="M50.2249 19.6663C49.4916 18.8989 48.4574 18.4211 47.3116 18.4211H16.6884C15.5427 18.4211 14.5091 18.8989 13.7751 19.6663C13.0823 20.3904 12.657 21.3721 12.657 22.4525V41.7341C12.657 42.8145 13.0822 43.7963 13.7758 44.5204C14.5091 45.2884 15.5427 45.7662 16.6884 45.7662H47.3116C48.4574 45.7662 49.491 45.2884 50.2249 44.521C50.9177 43.7969 51.343 42.8152 51.343 41.734V22.4525C51.343 21.3721 50.9185 20.3904 50.2249 19.6663Z" fill="#EFEFEF"/>
<path d="M50.225 19.6663L36.0346 32.0933L33.6445 34.1868C32.7032 35.0109 31.2969 35.0109 30.3556 34.1868L27.9655 32.0933L13.7751 19.6663C14.5091 18.8989 15.5427 18.4211 16.6884 18.4211H47.3117C48.4574 18.4211 49.4916 18.8989 50.225 19.6663Z" fill="white"/>
<path d="M50.2249 44.5212C49.4909 45.2886 48.4573 45.7663 47.3116 45.7663H16.6884C15.5427 45.7663 14.5091 45.2886 13.7758 44.5205L27.9654 32.0935L30.3555 34.1869C31.2968 35.0111 32.7031 35.0111 33.6443 34.1869L36.0345 32.0935L50.2249 44.5212Z" fill="#DCDEE2"/>
</svg>
