<svg width="52" height="51" viewBox="0 0 52 51" fill="none" xmlns="http://www.w3.org/2000/svg">
<path d="M26.3017 24.9533L26.0828 25.0968L38.8965 44.1688L39.1154 44.0253L26.3017 24.9533Z" fill="#191919"/>
<path d="M38.9104 44.1853L26.031 25.0992L26.2899 24.9293L39.1693 44.0145L38.9104 44.1844V44.1853ZM26.0979 25.1124L38.9237 44.1202L39.1034 44.0022L26.2775 24.9954L26.0988 25.1124H26.0979Z" fill="#191919"/>
<path d="M26.3409 25.0183L26.0833 25.0695L30.6517 47.51L30.9093 47.4589L26.3409 25.0183Z" fill="#191919"/>
<path d="M30.6443 47.5331L30.6395 47.5105L26.0549 25.0492L26.3597 24.9888L26.3645 25.0115L30.9491 47.4727L30.6443 47.5331ZM26.1113 25.086L30.6815 47.4784L30.8927 47.4368L26.3225 25.0445L26.1113 25.086Z" fill="#191919"/>
<path d="M26.1249 25.0381L21.8145 47.5284L22.0736 47.5769L26.384 25.0866L26.1249 25.0381Z" fill="#191919"/>
<path d="M22.1051 47.6086L21.7993 47.552L21.8041 47.5284L26.0953 25.0105L26.4011 25.0681L26.3963 25.0917L22.1051 47.6086ZM21.8557 47.5142L22.0678 47.5529L26.3456 25.1049L26.1335 25.0652L21.8557 47.5133V47.5142Z" fill="#191919"/>
<path d="M26.1559 25.016L13.6641 44.2952L13.8854 44.4351L26.3772 25.1559L26.1559 25.016Z" fill="#191919"/>
<path d="M13.8946 44.477L13.6328 44.3118L13.6452 44.292L26.1462 24.9907L26.408 25.1559L26.3956 25.1757L13.8946 44.4761V44.477ZM13.6987 44.2977L13.8803 44.4119L26.3421 25.171L26.1605 25.0558L13.6987 44.2977Z" fill="#191919"/>
<path d="M26.2024 25.0296L7.2876 38.2533L7.43995 38.466L26.3547 25.2422L26.2024 25.0296Z" fill="#191919"/>
<path d="M7.43987 38.5082L7.25928 38.2581L7.27839 38.2449L26.2014 24.9917L26.381 25.2427L26.3619 25.2559L7.43891 38.5082H7.43987ZM7.32616 38.2685L7.45134 38.4422L26.316 25.2305L26.1918 25.0568L7.32712 38.2695L7.32616 38.2685Z" fill="#191919"/>
<path d="M26.2355 25.0519L3.63208 30.0917L3.69015 30.3458L26.2936 25.306L26.2355 25.0519Z" fill="#191919"/>
<path d="M3.67671 30.3818L3.60791 30.0817L3.63084 30.076L26.2536 25.0124L26.3224 25.3116L26.2994 25.3172L3.67671 30.3818ZM3.66524 30.1176L3.71302 30.3262L26.266 25.2776L26.2182 25.07L3.66524 30.1185V30.1176Z" fill="#191919"/>
<path d="M26.2661 25.0714L26.224 25.3282L3.34521 21.6963L3.38726 21.4396L26.2661 25.0714Z" fill="#191919"/>
<path d="M26.244 25.3541L26.2201 25.3504L3.31738 21.7147L3.36707 21.4118L3.39096 21.4155L26.2936 25.0512L26.244 25.3541ZM3.37185 21.676L26.2038 25.3003L26.2382 25.0908L3.40624 21.4665L3.37185 21.676Z" fill="#191919"/>
<path d="M6.67728 12.9148L6.53687 13.1353L26.1522 25.3226L26.2927 25.1021L6.67728 12.9148Z" fill="#191919"/>
<path d="M26.1498 25.3645L26.1297 25.3522L6.51685 13.1173L6.6831 12.8578L6.70317 12.8701L26.316 25.1049L26.1498 25.3654V25.3645ZM6.58278 13.1022L26.1354 25.2993L26.2501 25.1191L6.69744 12.922L6.58278 13.1022Z" fill="#191919"/>
<path d="M13.1523 6.29915L12.9351 6.44681L26.0704 25.3041L26.2877 25.1564L13.1523 6.29915Z" fill="#191919"/>
<path d="M26.0586 25.3362L26.0452 25.3164L12.9136 6.42851L13.1697 6.25391L13.183 6.27372L26.3146 25.1616L26.0576 25.3362H26.0586ZM12.9805 6.44078L26.071 25.2702L26.2487 25.1494L13.1572 6.31997L12.9795 6.44078H12.9805Z" fill="#191919"/>
<path d="M21.4528 2.80782L21.1948 2.86194L26.0086 25.2514L26.2666 25.1973L21.4528 2.80782Z" fill="#191919"/>
<path d="M25.9876 25.2768L25.9828 25.2532L21.1794 2.83722L21.4843 2.77399L26.2924 25.2126L25.9876 25.2768ZM21.2358 2.87403L26.0249 25.2211L26.236 25.1767L21.4479 2.82967L21.2368 2.87403H21.2358Z" fill="#191919"/>
<path d="M26.2323 25.2252L25.9734 25.1742L30.5446 2.73468L30.8035 2.78659L26.2323 25.2252Z" fill="#191919"/>
<path d="M26.2508 25.2521L25.9451 25.1927L25.9498 25.1691L30.5258 2.70688L30.8316 2.76729L30.8268 2.79088L26.2508 25.2531V25.2521ZM26.0014 25.1549L26.2136 25.1965L30.7752 2.80409L30.5631 2.76256L26.0014 25.1559V25.1549Z" fill="#191919"/>
<path d="M26.1896 25.2402L25.9727 25.093L39.1396 6.25696L39.3565 6.40608L26.1896 25.2402Z" fill="#191919"/>
<path d="M26.1955 25.273L25.9395 25.0984L39.1341 6.22372L39.3902 6.39928L26.1965 25.273H26.1955ZM26.0054 25.0871L26.1831 25.2079L39.3224 6.41155L39.1446 6.28979L26.0044 25.0871H26.0054Z" fill="#191919"/>
<path d="M45.41 12.507L26.0071 25.02L26.1513 25.2381L45.5541 12.7251L45.41 12.507Z" fill="#191919"/>
<path d="M26.1401 25.2711L25.97 25.0143L25.99 25.0011L45.4175 12.4822L45.5876 12.7399L45.5675 12.7531L26.1391 25.272L26.1401 25.2711ZM26.0359 25.0276L26.1534 25.2059L45.5217 12.7257L45.4032 12.5473L26.0349 25.0276H26.0359Z" fill="#191919"/>
<path d="M48.8807 20.9878L26.0627 24.9742L26.1087 25.2307L48.9267 21.2443L48.8807 20.9878Z" fill="#191919"/>
<path d="M26.0872 25.2465L26.0327 24.9435L26.0566 24.9397L48.902 20.9719L48.9564 21.2748L48.9325 21.2786L26.0872 25.2455V25.2465ZM26.0881 24.9822L26.1254 25.1917L48.9 21.2371L48.8628 21.0266L26.0872 24.9822H26.0881Z" fill="#191919"/>
<path d="M26.0779 25.1894L26.1314 24.9345L48.8334 29.5263L48.7799 29.782L26.0779 25.1894Z" fill="#191919"/>
<path d="M48.7979 29.809L48.775 29.8043L26.05 25.2069L26.1131 24.9058L26.136 24.9105L48.861 29.5079L48.7979 29.809ZM26.1064 25.1701L48.7616 29.7533L48.8056 29.5447L26.1504 24.9615L26.1064 25.1701Z" fill="#191919"/>
<path d="M26.0632 25.1485L26.2113 24.9343L45.3082 37.9006L45.1582 38.1149L26.0632 25.1485Z" fill="#191919"/>
<path d="M45.1651 38.1477L45.1451 38.1345L26.03 25.1549L26.2058 24.902L26.2259 24.9152L45.3419 37.8947L45.1651 38.1477ZM26.0969 25.1426L45.1527 38.0825L45.275 37.907L26.2183 24.9671L26.0969 25.1426Z" fill="#191919"/>
<path d="M26.2734 2.98511H25.9944V5.75713H26.2734V2.98511Z" fill="#EAEAEA"/>
<path d="M26.2955 5.77909H25.9688V2.95987H26.2955V5.77909ZM26.0165 5.7319H26.2478V3.00706H26.0165V5.7319Z" fill="#191919"/>
<path d="M26.3519 2.00955H25.9143V4.78158H26.3519V2.00955Z" fill="#EAEAEA"/>
<path d="M26.3748 4.80414H25.8894V1.98492H26.3748V4.80414ZM25.9372 4.75695H26.327V2.03212H25.9372V4.75695Z" fill="#191919"/>
<path d="M51.4766 25.0568C51.4766 11.2306 40.1299 0.022644 26.1336 0.022644C12.1372 0.022644 0.789551 11.2297 0.789551 25.0568C0.789551 38.8839 12.1363 50.09 26.1336 50.09C40.1309 50.09 51.4766 38.882 51.4766 25.0568ZM48.3349 25.0568C48.3349 37.168 38.3947 46.9876 26.1336 46.9876C13.8724 46.9876 3.93128 37.168 3.93128 25.0568C3.93128 12.9456 13.8715 3.12501 26.1336 3.12501C38.3957 3.12501 48.3349 12.9437 48.3349 25.0568Z" fill="#F17832"/>
<path d="M26.1321 50.1126C22.7075 50.1126 19.3852 49.4501 16.2578 48.1438C13.2365 46.8819 10.5238 45.0754 8.19423 42.7744C5.86469 40.4733 4.03584 37.7938 2.75736 34.8103C1.43493 31.7212 0.76416 28.4395 0.76416 25.0568C0.76416 21.6741 1.43493 18.3924 2.75736 15.3032C4.03488 12.3198 5.86373 9.63933 8.19423 7.33827C10.5238 5.03722 13.2365 3.23073 16.2578 1.96883C19.3852 0.662567 22.7075 0 26.1321 0C29.5566 0 32.8789 0.662567 36.0063 1.96883C39.0267 3.23073 41.7394 5.03722 44.0699 7.33827C46.3994 9.63933 48.2283 12.3189 49.5068 15.3032C50.8292 18.3924 51.5 21.6741 51.5 25.0568C51.5 28.4395 50.8292 31.7212 49.5068 34.8103C48.2293 37.7938 46.4004 40.4733 44.0699 42.7744C41.7404 45.0754 39.0277 46.8819 36.0063 48.1438C32.8789 49.4501 29.5566 50.1126 26.1321 50.1126ZM26.1321 0.0462467C22.7142 0.0462467 19.3976 0.707872 16.276 2.0113C13.2613 3.27131 10.5534 5.07403 8.22767 7.37131C5.90195 9.66859 4.07692 12.3425 2.80131 15.3212C1.4808 18.4047 0.811936 21.6798 0.811936 25.0568C0.811936 28.4338 1.48175 31.7079 2.80131 34.7914C4.07692 37.7692 5.90195 40.444 8.22767 42.7413C10.5534 45.0386 13.2613 46.8413 16.276 48.1013C19.3976 49.4057 22.7132 50.0664 26.1321 50.0664C29.5509 50.0664 32.8656 49.4048 35.9872 48.1013C39.0019 46.8413 41.7098 45.0386 44.0355 42.7413C46.3612 40.444 48.1863 37.7702 49.4619 34.7914C50.7824 31.7079 51.4512 28.4329 51.4512 25.0568C51.4512 21.6807 50.7814 18.4047 49.4619 15.3212C48.1863 12.3434 46.3612 9.66859 44.0355 7.37131C41.7098 5.07403 39.0028 3.27131 35.9872 2.0113C32.8656 0.706928 29.5499 0.0462467 26.1321 0.0462467ZM26.1321 47.0103C23.1318 47.0103 20.2203 46.4298 17.4809 45.2849C14.8341 44.1788 12.4568 42.596 10.4158 40.5799C8.37482 38.5639 6.77242 36.2157 5.65256 33.6013C4.49353 30.8944 3.90589 28.0195 3.90589 25.0558C3.90589 22.0922 4.49353 19.2164 5.65256 16.5104C6.77242 13.896 8.37482 11.5477 10.4158 9.53173C12.4568 7.51571 14.8341 5.93197 17.4809 4.82675C20.2213 3.68188 23.1318 3.10142 26.1321 3.10142C29.1324 3.10142 32.0429 3.68188 34.7833 4.82675C37.43 5.93291 39.8064 7.51571 41.8483 9.53173C43.8893 11.5477 45.4917 13.896 46.6116 16.5104C47.7706 19.2173 48.3582 22.0922 48.3582 25.0558C48.3582 28.0195 47.7706 30.8944 46.6116 33.6013C45.4917 36.2157 43.8893 38.563 41.8483 40.5799C39.8074 42.596 37.43 44.1788 34.7833 45.2849C32.0429 46.4298 29.1324 47.0103 26.1321 47.0103ZM26.1321 3.14861C23.1384 3.14861 20.2337 3.72812 17.499 4.87016C14.858 5.97349 12.4864 7.55347 10.4492 9.56477C8.41209 11.577 6.81351 13.9196 5.69652 16.5283C4.54035 19.2296 3.95366 22.0979 3.95366 25.0558C3.95366 28.0138 4.54035 30.8821 5.69652 33.5824C6.81351 36.1911 8.41304 38.5337 10.4492 40.546C12.4864 42.5582 14.858 44.1372 17.499 45.2406C20.2337 46.3826 23.1375 46.9621 26.1321 46.9621C29.1266 46.9621 32.0304 46.3826 34.7642 45.2406C37.4052 44.1372 39.7768 42.5573 41.8139 40.546C43.8511 38.5347 45.4497 36.1911 46.5667 33.5824C47.7228 30.8821 48.3095 28.0129 48.3095 25.0558C48.3095 22.0988 47.7228 19.2296 46.5667 16.5283C45.4497 13.9196 43.8501 11.577 41.8139 9.56477C39.7768 7.55253 37.4052 5.97349 34.7642 4.87016C32.0295 3.72812 29.1257 3.14861 26.1321 3.14861Z" fill="#191919"/>
<path d="M50.2572 25.0567C50.2572 38.1958 39.4351 48.8837 26.1343 48.8837C12.8336 48.8837 2.0105 38.1948 2.0105 25.0567C2.0105 11.9186 12.8317 1.22787 26.1343 1.22787C39.437 1.22787 50.2572 11.9177 50.2572 25.0567ZM49.7307 25.0567C49.7307 12.2037 39.1455 1.74793 26.1343 1.74793C13.1231 1.74793 2.53699 12.2046 2.53699 25.0567C2.53699 37.9089 13.1231 48.3646 26.1343 48.3646C39.1455 48.3646 49.7307 37.9089 49.7307 25.0567Z" fill="#F17832"/>
<path d="M26.1321 48.9074C12.817 48.9074 1.98438 38.2081 1.98438 25.0568C1.98438 11.9055 12.817 1.20435 26.1321 1.20435C39.4472 1.20435 50.2788 11.9045 50.2788 25.0568C50.2788 38.2091 39.4462 48.9074 26.1321 48.9074ZM26.1321 1.25154C12.8438 1.25154 2.03215 11.931 2.03215 25.0568C2.03215 38.1827 12.8428 48.8602 26.1321 48.8602C39.4214 48.8602 50.2311 38.1817 50.2311 25.0568C50.2311 11.9319 39.4204 1.25154 26.1321 1.25154ZM26.1321 48.3883C13.1075 48.3883 2.51086 37.9222 2.51086 25.0568C2.51086 12.1915 13.1075 1.72439 26.1321 1.72439C39.1567 1.72439 49.7524 12.1915 49.7524 25.0568C49.7524 37.9222 39.1567 48.3883 26.1321 48.3883ZM26.1321 1.77158C13.1333 1.77158 2.55864 12.217 2.55864 25.0568C2.55864 37.8967 13.1333 48.3411 26.1321 48.3411C39.1309 48.3411 49.7046 37.8957 49.7046 25.0568C49.7046 12.2179 39.1299 1.77158 26.1321 1.77158Z" fill="#191919"/>
</svg>
