<svg width="263" height="218" viewBox="0 0 263 218" fill="none" xmlns="http://www.w3.org/2000/svg">
<path d="M113.015 45.8879C113.015 45.8879 127.188 82.5839 130.467 88.5524C133.746 94.5209 155.351 115.195 155.351 115.195L160.014 109.329L143.465 80.6663C143.465 80.6663 130.348 45.0595 126.978 43.0625C123.608 41.0654 113.015 45.8879 113.015 45.8879Z" fill="#FFBF9D"/>
<path d="M201.181 122.44C201.181 122.44 194.186 113.244 194.504 110.861C194.816 108.478 200.245 106.912 200.245 106.912L204.869 120.755L201.181 122.435V122.44Z" fill="#263238"/>
<path d="M165.046 175.271L151.306 175.427L151.362 180.34L165.102 180.184L165.046 175.271Z" fill="#263238"/>
<path d="M165.058 175.243H165.075L165.132 180.174V180.191L151.374 180.35H151.357L151.3 175.419V175.402L165.058 175.243ZM165.098 180.157L165.041 175.277L151.334 175.431L151.391 180.31L165.098 180.151V180.157Z" fill="#455A64"/>
<path d="M156.049 178.863C155.708 180.111 156.446 181.399 157.7 181.739L175.832 186.658C177.08 186.999 178.368 186.261 178.709 185.007C179.049 183.759 178.312 182.471 177.058 182.131L158.925 177.212C157.677 176.872 156.389 177.609 156.049 178.863Z" fill="#263238"/>
<path d="M156.049 178.863C156.049 178.863 156.111 178.687 156.281 178.386C156.452 178.097 156.775 177.671 157.371 177.411C157.666 177.28 158.017 177.206 158.409 177.223C158.795 177.235 159.203 177.405 159.663 177.518C160.576 177.774 161.603 178.063 162.738 178.381C165.03 179.016 167.742 179.765 170.749 180.593C172.258 181.007 173.841 181.439 175.486 181.887C175.895 182 176.309 182.114 176.729 182.227C177.16 182.329 177.517 182.46 177.835 182.732C178.465 183.243 178.765 184.145 178.538 184.951C178.329 185.762 177.614 186.386 176.814 186.511C176.405 186.585 176.031 186.516 175.605 186.392C175.185 186.278 174.771 186.165 174.363 186.057C172.717 185.614 171.135 185.189 169.62 184.78C166.607 183.98 163.884 183.254 161.586 182.641C160.446 182.341 159.413 182.074 158.5 181.83C158.046 181.7 157.609 181.632 157.269 181.45C156.928 181.268 156.656 181.025 156.469 180.764C156.089 180.236 156.026 179.708 156.026 179.374C156.032 179.033 156.089 178.852 156.066 178.846C156.066 178.846 155.981 179.016 155.952 179.368C155.93 179.714 155.969 180.276 156.355 180.849C156.548 181.132 156.826 181.405 157.189 181.609C157.564 181.819 158 181.893 158.449 182.029C159.362 182.284 160.389 182.573 161.524 182.891C163.816 183.527 166.528 184.275 169.535 185.104C171.044 185.518 172.627 185.949 174.272 186.397C174.681 186.511 175.095 186.624 175.515 186.738C175.912 186.863 176.422 186.959 176.882 186.868C177.824 186.721 178.663 185.989 178.907 185.036C179.174 184.088 178.822 183.033 178.079 182.432C177.727 182.119 177.239 181.949 176.831 181.853C176.411 181.739 175.997 181.626 175.588 181.518C173.943 181.076 172.36 180.65 170.845 180.242C167.833 179.442 165.109 178.715 162.812 178.103C161.671 177.802 160.639 177.535 159.72 177.291C159.266 177.189 158.846 177.025 158.42 177.019C158 177.008 157.62 177.104 157.314 177.252C156.69 177.552 156.372 178.018 156.219 178.324C156.066 178.647 156.054 178.835 156.054 178.835L156.049 178.863Z" fill="#455A64"/>
<path d="M132.481 213.466C115.954 213.466 102.508 200.019 102.508 183.493C102.508 166.966 115.954 153.52 132.481 153.52C149.008 153.52 162.454 166.966 162.454 183.493C162.454 200.019 149.008 213.466 132.481 213.466ZM132.481 158.149C118.507 158.149 107.138 169.519 107.138 183.493C107.138 197.466 118.507 208.836 132.481 208.836C146.455 208.836 157.824 197.466 157.824 183.493C157.824 169.519 146.455 158.149 132.481 158.149Z" fill="#263238"/>
<path d="M232.527 212.909C216 212.909 202.554 199.463 202.554 182.936C202.554 166.41 216 152.964 232.527 152.964C249.054 152.964 262.5 166.41 262.5 182.936C262.5 199.463 249.054 212.909 232.527 212.909ZM232.527 157.593C218.553 157.593 207.184 168.963 207.184 182.936C207.184 196.91 218.553 208.28 232.527 208.28C246.501 208.28 257.871 196.91 257.871 182.936C257.871 168.963 246.501 157.593 232.527 157.593Z" fill="#263238"/>
<path d="M169.24 122.622C169.24 122.622 189.12 134.15 190.515 140.403C191.905 146.655 163.555 173.093 163.555 173.093L156.123 167.885L173.041 144.119L160.639 137.328L169.24 122.616V122.622Z" fill="#FFBF9D"/>
<path d="M165.109 168.764L164.928 169.978C164.928 169.978 175.48 176.145 173.614 180.803L152.208 175.215L154.982 165.882C157.649 168.662 160.922 169.751 165.104 168.764H165.109Z" fill="#455A64"/>
<path d="M152.219 175.215L152.889 172.968L173.79 179.056C173.79 179.056 173.971 179.941 173.625 180.803L152.219 175.215Z" fill="#E0E0E0"/>
<path d="M151.771 145.282C152.316 146.309 168.752 178.006 168.752 178.006L171.793 175.362L155.691 142.195L151.771 145.282Z" fill="#342A57"/>
<path d="M160.417 154.337L206.083 133.549L200.886 121.782L203.978 120.767L234.882 181.87L231.37 184.259C231.37 184.259 211.422 143.829 211.002 143.676C210.582 143.523 186.277 174.143 186.277 174.143L180.893 170.353L206.219 138.888L164.009 159.539L160.412 153.639" fill="#342A57"/>
<path d="M160.48 156.827L131.415 183.498L132.481 185.631L161.91 159.17L160.48 156.827Z" fill="#342A57"/>
<path d="M146.534 131.189C146.534 131.189 136.305 131.711 134.58 133.248C132.856 134.786 134.796 140.567 134.796 140.567L152.843 147.347L155.93 144.062C155.93 144.062 188.995 148.306 161.291 136.647C160.531 136.329 156.752 132.511 146.54 131.183L146.534 131.189Z" fill="#455A64"/>
<path d="M175.401 125.061C175.401 125.061 198.225 127.756 201.981 132.947C205.743 138.139 190.197 173.655 190.197 173.655L181.313 171.822L187.417 143.296L173.342 141.98L175.401 125.067V125.061Z" fill="#FFBF9D"/>
<path d="M186.878 46.6596C188.342 47.6751 189.142 49.0027 188.631 50.5572C188.631 50.5572 188.603 50.2509 189.783 50.6026C190.957 50.9544 191.201 51.8451 191.587 52.6735C192.013 53.5812 193.289 55.913 191.655 57.2406C192.954 58.9767 189.261 63.68 188.228 64.792C186.753 66.3862 186.441 66.1253 184.274 66.2614C180.79 66.4827 180.819 64.4573 178.107 62.2616C173.086 58.1994 167.236 55.3059 161.444 52.4522C161.268 48.6963 164.769 44.7816 168.507 44.3958C172.155 44.0214 174.856 46.2511 179.593 45.5873C179.593 45.5873 184.251 44.8384 186.872 46.6539L186.878 46.6596Z" fill="#263238"/>
<path d="M188.03 60.9908C188.121 56.1116 183.281 50.8352 178.402 50.9487L164.706 52.7132L164.054 55.045L163.316 87.2646L175.401 89.4149L177.46 83.0719C177.46 83.0719 184.944 83.8265 186.895 75.8383C187.866 71.8668 187.934 66.4203 188.036 60.9964L188.03 60.9908Z" fill="#FFBF9D"/>
<path d="M177.46 83.0663C177.46 83.0663 173.069 83.0493 167.94 79.3672C167.94 79.3672 168.712 85.1768 176.876 85.0804L177.46 83.072V83.0663Z" fill="#FF9A6C"/>
<path d="M162.783 49.4735C162.783 49.4735 157.79 49.0196 156.525 54.7215C155.26 60.4233 157.297 65.7451 159.594 68.4513C161.892 71.1576 163.543 71.6739 163.543 71.6739L167.191 62.1027L162.783 49.4735Z" fill="#263238"/>
<path d="M187.707 56.3441C186.475 53.4563 183.854 51.2947 180.915 50.1941C177.977 49.0877 174.743 48.9629 171.628 49.3544C168.513 49.7459 165.484 50.6423 162.477 51.5273C161.745 51.7429 160.95 52.0096 160.559 52.662C160.292 53.1046 160.27 53.6492 160.253 54.1655C160.105 58.5171 159.952 62.8686 159.804 67.2202L160.741 69.9832C162.142 70.1193 163.521 67.0159 164.53 66.0344C168.059 62.602 170.085 59.9638 170.238 55.0449C170.607 55.6236 170.675 56.3328 170.839 56.9966C171.004 57.6604 171.35 58.3582 171.991 58.5965C173.063 58.988 174.096 57.8306 174.368 56.7186C174.641 55.6066 174.555 54.3697 175.197 53.4223C176.167 55.1357 177.528 56.6221 179.145 57.7341C179.911 58.2561 180.944 58.6986 181.715 58.188C182.266 57.8249 182.459 57.0873 182.357 56.4406C182.254 55.7938 181.914 55.2094 181.579 54.6477C182.776 56.2193 184.45 57.4334 186.317 58.0859C186.725 58.2277 187.213 58.3355 187.57 58.0859C188.092 57.7284 187.956 56.9228 187.712 56.3441H187.707Z" fill="#263238"/>
<path d="M169.296 51.4366C169.296 51.4366 169.302 51.4593 169.308 51.4991C169.313 51.5501 169.319 51.6069 169.33 51.6806C169.353 51.8395 169.37 52.0778 169.393 52.3784C169.427 52.9855 169.455 53.8762 169.313 54.9599C169.177 56.0378 168.859 57.3371 168.128 58.5966C167.764 59.2207 167.288 59.8561 166.59 60.2646C166.238 60.4632 165.841 60.588 165.421 60.605C165.002 60.6277 164.57 60.4972 164.219 60.2476C163.804 59.9525 163.532 59.5157 163.345 59.0845C163.152 58.6476 163.033 58.1938 162.931 57.7569L163.038 57.7966C162.505 58.1711 162.063 58.642 161.592 59.0448C161.127 59.4476 160.599 59.771 160.037 59.8958C159.481 60.032 158.897 59.9128 158.5 59.6008C158.097 59.3001 157.853 58.8803 157.728 58.4831C157.603 58.0803 157.609 57.6945 157.654 57.3711C157.7 57.0477 157.785 56.7811 157.87 56.5711C157.955 56.3612 158.034 56.208 158.097 56.1059C158.154 56.0038 158.193 55.9527 158.193 55.9527C158.193 55.9527 158.171 56.0095 158.12 56.1173C158.069 56.2251 157.995 56.3782 157.915 56.5882C157.842 56.7981 157.762 57.0647 157.722 57.3825C157.688 57.7002 157.688 58.0746 157.813 58.4547C157.938 58.8349 158.176 59.2377 158.562 59.5157C158.942 59.805 159.481 59.9128 160.009 59.7823C160.542 59.6575 161.047 59.3455 161.507 58.9483C161.972 58.5512 162.409 58.0803 162.959 57.6888C162.987 57.6661 163.033 57.6718 163.056 57.7058C163.056 57.7115 163.067 57.7229 163.067 57.7285C163.169 58.1597 163.288 58.6023 163.475 59.0278C163.663 59.4476 163.924 59.8618 164.304 60.1341C164.633 60.3667 165.024 60.4802 165.421 60.4632C165.813 60.4518 166.193 60.3327 166.528 60.1454C167.197 59.7596 167.668 59.1469 168.025 58.5342C168.757 57.2974 169.075 56.0208 169.228 54.9485C169.376 53.8706 169.364 52.9855 169.353 52.3784C169.342 52.0721 169.33 51.8395 169.319 51.6806C169.319 51.6069 169.313 51.5501 169.308 51.4991C169.308 51.4593 169.308 51.4366 169.308 51.4366H169.296Z" fill="#455A64"/>
<path d="M183.037 49.4678C183.037 49.4678 183.009 49.5302 182.986 49.6607C182.964 49.7855 182.992 49.9784 183.105 50.194C183.213 50.4153 183.401 50.6536 183.559 50.9713C183.639 51.1302 183.707 51.3174 183.701 51.533C183.701 51.7429 183.593 51.9642 183.429 52.123C183.264 52.2876 183.037 52.401 182.788 52.4407C182.544 52.4861 182.283 52.4748 182.022 52.4407C181.506 52.3613 180.955 52.2478 180.394 52.072C179.27 51.7259 178.084 51.1642 176.995 50.3472C176.553 50.0182 176.144 49.6607 175.781 49.2976L175.895 49.2693C175.713 49.8196 175.531 50.3642 175.265 50.8465C174.998 51.3287 174.629 51.7372 174.187 51.9869C173.75 52.2422 173.239 52.3329 172.802 52.2195C172.366 52.1117 172.02 51.8564 171.764 51.584C171.509 51.3117 171.339 51.0167 171.208 50.7557C171.083 50.4947 170.998 50.2564 170.936 50.0635C170.873 49.8707 170.828 49.7231 170.8 49.621C170.771 49.5189 170.76 49.4622 170.76 49.4622C170.76 49.4622 170.783 49.5132 170.822 49.6097C170.862 49.7231 170.913 49.865 170.981 50.0465C171.129 50.4153 171.327 50.9883 171.827 51.516C172.076 51.7713 172.411 52.0096 172.825 52.106C173.234 52.2024 173.71 52.123 174.119 51.8734C174.533 51.6294 174.885 51.2436 175.14 50.7727C175.401 50.3075 175.577 49.7742 175.753 49.2182C175.764 49.1842 175.804 49.1615 175.838 49.1728C175.849 49.1728 175.86 49.1842 175.866 49.1898C176.229 49.5473 176.632 49.899 177.069 50.2224C178.147 51.028 179.316 51.584 180.422 51.9358C180.978 52.1117 181.517 52.2308 182.028 52.3102C182.283 52.3443 182.532 52.3613 182.759 52.3159C182.992 52.2762 183.196 52.1741 183.349 52.0322C183.503 51.8904 183.599 51.6975 183.599 51.5103C183.61 51.3231 183.548 51.1415 183.474 50.9883C183.327 50.6763 183.14 50.4266 183.037 50.1997C182.93 49.9728 182.907 49.7685 182.941 49.638C182.952 49.57 182.981 49.5302 182.992 49.4962C183.009 49.4678 183.015 49.4508 183.02 49.4508L183.037 49.4678Z" fill="#455A64"/>
<path d="M184.842 68.3379C184.819 68.8882 184.331 69.3194 183.752 69.3024C183.179 69.2853 182.731 68.8315 182.76 68.2811C182.782 67.7308 183.27 67.2996 183.843 67.3166C184.416 67.3337 184.864 67.7932 184.836 68.3435L184.842 68.3379Z" fill="#263238"/>
<path d="M186.311 64.6161C186.169 64.7409 185.432 64.0941 184.314 64.009C183.196 63.9069 182.334 64.4119 182.22 64.2643C182.164 64.2019 182.317 63.9636 182.697 63.7367C183.071 63.5041 183.69 63.3055 184.388 63.3623C185.086 63.4247 185.647 63.7254 185.965 64.0147C186.288 64.3041 186.385 64.5594 186.317 64.6161H186.311Z" fill="#263238"/>
<path d="M176.076 67.85C176.053 68.4003 175.566 68.8315 174.987 68.8145C174.414 68.7975 173.966 68.3436 173.994 67.7933C174.017 67.243 174.505 66.8118 175.078 66.8288C175.651 66.8458 176.099 67.3054 176.07 67.8557L176.076 67.85Z" fill="#263238"/>
<path d="M175.997 64.1395C175.855 64.2643 175.117 63.6175 174 63.5324C172.888 63.4303 172.019 63.9352 171.906 63.7877C171.849 63.7196 172.002 63.487 172.383 63.2601C172.757 63.0275 173.375 62.8289 174.073 62.8856C174.771 62.948 175.333 63.2487 175.65 63.5381C175.974 63.8274 176.07 64.0827 176.002 64.1395H175.997Z" fill="#263238"/>
<path d="M179.299 72.3718C179.299 72.3207 179.378 72.2867 180.513 72.2526C180.802 72.2526 181.075 72.2243 181.137 72.0768C181.222 71.9236 181.12 71.6739 181.007 71.4073C180.791 70.8513 180.564 70.2726 180.32 69.6655C180.059 69.0301 179.384 67.0274 179.395 66.6926C179.526 66.6643 179.843 67.0898 180.785 69.5691C181.012 70.1818 181.228 70.7605 181.432 71.3222C181.517 71.5832 181.676 71.8782 181.5 72.2016C181.409 72.3604 181.188 72.4682 181.001 72.4909C180.814 72.5193 180.655 72.5136 180.513 72.5079C179.378 72.4739 179.299 72.3718 179.299 72.3718Z" fill="#263238"/>
<path d="M175.571 60.1568C175.446 60.5653 174.312 60.344 172.961 60.5256C171.611 60.6731 170.516 61.1667 170.346 60.7922C170.272 60.6107 170.471 60.2305 170.913 59.8391C171.356 59.4476 172.059 59.0845 172.865 58.988C173.676 58.8916 174.408 59.0788 174.89 59.3568C175.378 59.6348 175.617 59.9639 175.565 60.1568H175.571Z" fill="#263238"/>
<path d="M186.538 62.0403C186.198 62.2786 185.455 61.6261 184.416 61.229C183.395 60.7864 182.414 60.7354 182.334 60.3269C182.306 60.1283 182.561 59.856 183.06 59.6971C183.554 59.5326 184.28 59.5213 184.984 59.8049C185.693 60.0943 186.203 60.6162 186.442 61.0758C186.686 61.541 186.686 61.9211 186.533 62.0403H186.538Z" fill="#263238"/>
<path d="M179.265 74.1135C178.686 73.7958 177.284 73.1717 176.706 72.8483C176.433 72.7008 176.133 72.5419 175.832 72.6043C175.446 72.6781 175.208 73.0696 175.083 73.444C174.856 74.1078 174.834 74.8397 175.015 75.5205C175.214 76.258 175.719 76.9729 176.456 77.1545C177.211 77.3417 178.016 76.9162 178.487 76.2921C178.952 75.668 179.14 74.8794 179.27 74.1135" fill="#FF9A6C"/>
<path d="M155.697 63.0445C155.782 63.3055 158.239 73.5121 163.6 74.8964C163.6 74.8964 172.706 82.5386 175.038 83.2307C177.375 83.9229 177.92 83.0832 177.92 83.0832C177.92 83.0832 168.371 78.1189 167.713 73.5007C167.367 71.0498 167.935 59.5723 167.935 59.5723L165.251 59.561C165.251 59.561 166.113 75.2084 164.729 74.5163C163.345 73.8241 158.358 62.0857 158.358 62.0857L155.691 63.0388L155.697 63.0445Z" fill="#263238"/>
<path d="M176.831 146.422L182.05 125.555L172.031 123.592V116.182C172.031 116.182 144.662 108.415 142.83 117.782C142.83 117.782 134.512 141.174 156.628 142.825" fill="#F17832"/>
<path d="M169.813 79.1685C168.077 78.4764 163.969 75.6623 158.086 83.6676C152.202 91.6786 139.624 115.842 141.519 119.603C142.37 121.3 172.525 126.485 174.051 123.28C175.577 120.074 178.136 98.4867 177.915 93.2785C177.699 88.0702 173.977 80.8252 169.818 79.1629L169.813 79.1685Z" fill="#342A57"/>
<path opacity="0.3" d="M159.72 101.908C159.72 101.908 163.039 115.161 166.806 117.527C170.573 119.893 175.577 116.46 175.577 116.46L176.456 110.134L168.701 100.575L159.714 101.914L159.72 101.908Z" fill="black"/>
<path d="M160.656 91.202C160.656 91.202 161.859 109.556 165.58 112.727C169.296 115.893 192.274 111.167 192.274 111.167V104.285L174.919 104.104C174.919 104.104 173.824 92.1665 172.173 91.202C170.522 90.2375 160.661 91.202 160.661 91.202H160.656Z" fill="#FFBF9D"/>
<path d="M191.247 104.353C191.247 104.353 199.417 103.979 200.08 104.353C200.744 104.728 203.541 107.53 203.541 108.483C203.541 109.437 203.025 113.051 202.066 113.641C201.107 114.231 197.8 115.337 197.391 114.673C196.983 114.009 196.983 113.346 196.983 113.346C196.983 113.346 199.632 113.567 200.001 112.387C200.37 111.207 200.444 109.953 200.444 109.953L198.01 108.035C198.01 108.035 196.166 111.57 194.696 111.717C193.221 111.865 191.241 110.69 191.241 110.69V104.342L191.247 104.353Z" fill="#FFBF9D"/>
<path d="M198.231 113.817C199.86 113.817 201.181 112.496 201.181 110.866C201.181 109.237 199.86 107.916 198.231 107.916C196.602 107.916 195.281 109.237 195.281 110.866C195.281 112.496 196.602 113.817 198.231 113.817Z" fill="#263238"/>
<path d="M167.373 79.9686C167.101 79.9459 162.046 80.2806 159.635 88.144C157.223 96.0075 158.942 101.08 159.124 101.806C159.306 102.532 175.804 99.2187 175.804 99.2187C175.804 99.2187 176.167 92.2857 174.987 88.5582C173.807 84.8307 170.091 80.1728 167.373 79.9686Z" fill="#342A57"/>
<path d="M167.373 79.9688C167.373 79.9688 167.413 79.9688 167.481 79.9745C167.566 79.9858 167.674 80.0028 167.804 80.0199C168.088 80.0766 168.491 80.2128 168.984 80.4681C169.955 80.9957 171.203 82.051 172.44 83.6509C173.058 84.4509 173.676 85.3813 174.227 86.4536C174.777 87.5259 175.248 88.757 175.492 90.1187C175.974 92.8363 176.071 95.9226 175.946 99.2246V99.3324L175.832 99.3551C172.774 99.9678 169.444 100.609 165.972 101.205C164.86 101.398 163.759 101.573 162.664 101.732C161.569 101.874 160.508 102.061 159.402 102.044C159.328 102.039 159.26 102.033 159.175 102.005C159.135 101.988 159.079 101.982 159.016 101.902C158.976 101.84 158.982 101.823 158.976 101.812L158.965 101.766L158.863 101.386C158.795 101.131 158.732 100.87 158.676 100.615C158.562 100.098 158.477 99.5877 158.409 99.0771C158.279 98.0559 158.216 97.046 158.233 96.0645C158.239 94.0958 158.517 92.2349 158.891 90.5328C159.271 88.8308 159.748 87.2649 160.378 85.9146C160.996 84.5587 161.745 83.424 162.545 82.5502C163.345 81.6708 164.185 81.0695 164.922 80.6837C165.66 80.2922 166.29 80.1163 166.721 80.0369C166.936 79.9972 167.101 79.9802 167.214 79.9745C167.328 79.9688 167.385 79.9802 167.385 79.9802C167.385 79.9858 167.328 79.9858 167.22 80.0029C167.112 80.0142 166.948 80.0482 166.738 80.0936C166.318 80.1901 165.7 80.383 164.979 80.7858C164.258 81.1829 163.447 81.79 162.67 82.6637C161.893 83.5318 161.172 84.6665 160.571 86.0054C159.964 87.3443 159.504 88.8989 159.135 90.5896C158.772 92.2803 158.511 94.1241 158.511 96.0701C158.5 97.0403 158.562 98.0388 158.698 99.0487C158.767 99.5537 158.857 100.059 158.965 100.564C159.022 100.819 159.084 101.068 159.152 101.324L159.26 101.71L159.271 101.761V101.783C159.271 101.783 159.113 101.829 159.198 101.806C159.198 101.806 159.209 101.806 159.209 101.795C159.271 101.721 159.243 101.744 159.277 101.749C159.317 101.761 159.379 101.772 159.442 101.772C160.469 101.789 161.558 101.602 162.636 101.46C163.719 101.301 164.82 101.12 165.932 100.932C169.399 100.337 172.735 99.7012 175.787 99.0998L175.674 99.2303C175.804 95.951 175.725 92.876 175.265 90.1867C175.032 88.8421 174.584 87.6337 174.051 86.5727C173.518 85.5061 172.916 84.5757 172.315 83.7814C171.112 82.1815 169.892 81.1205 168.956 80.5702C168.009 80.0255 167.379 80.0312 167.39 79.9915L167.373 79.9688Z" fill="#263238"/>
<path d="M164.769 66.5394C164.65 66.477 159.907 64.7012 159.697 69.6541C159.487 74.6128 164.508 73.8015 164.519 73.6596C164.536 73.5178 164.769 66.5394 164.769 66.5394Z" fill="#FFBF9D"/>
<path d="M161.552 70.1421C161.547 70.0457 161.541 69.9492 161.541 69.8528C161.547 69.3989 161.66 68.9734 161.836 68.6273C162 68.2699 162.25 68.0259 162.511 67.9919C162.778 67.9408 162.954 68.1053 163.01 68.2528C163.073 68.3947 163.033 68.4911 163.061 68.5025C163.073 68.5138 163.169 68.423 163.141 68.2188C163.124 68.1223 163.073 67.9975 162.959 67.9011C162.846 67.799 162.67 67.7422 162.488 67.7536C162.103 67.7649 161.745 68.0997 161.552 68.4854C161.337 68.8712 161.2 69.3478 161.195 69.8528C161.183 70.8513 161.654 71.8101 162.364 72.0484C162.71 72.1562 163.005 72.0597 163.158 71.9519C163.317 71.8385 163.345 71.725 163.328 71.7137C163.305 71.6966 163.237 71.7704 163.09 71.8328C162.942 71.8895 162.698 71.9236 162.443 71.8215C161.983 71.6286 161.615 70.9364 161.547 70.1535" fill="#FF9A6C"/>
<path d="M179.802 193.658C186.461 192.381 190.824 185.947 189.546 179.288C188.269 172.628 181.835 168.266 175.175 169.543C168.516 170.821 164.154 177.255 165.431 183.914C166.709 190.573 173.143 194.936 179.802 193.658Z" fill="#E0E0E0"/>
<path d="M177.313 188.553C181.186 188.553 184.325 185.414 184.325 181.541C184.325 177.668 181.186 174.529 177.313 174.529C173.44 174.529 170.301 177.668 170.301 181.541C170.301 185.414 173.44 188.553 177.313 188.553Z" fill="#263238"/>
<path d="M191.519 171.306L191.338 172.52C191.338 172.52 201.89 178.687 200.024 183.345L178.618 177.757L181.392 168.424C184.059 171.204 187.332 172.293 191.513 171.306H191.519Z" fill="#455A64"/>
<path d="M178.624 177.762L179.293 175.516L200.194 181.603C200.194 181.603 200.376 182.488 200.03 183.351L178.624 177.762Z" fill="#E0E0E0"/>
<path d="M200.986 183.037L187.464 180.591L186.59 185.426L200.111 187.871L200.986 183.037Z" fill="#263238"/>
<path d="M186.589 185.438H186.572L187.452 180.582V180.565L200.994 183.01H201.011L200.132 187.867V187.884L186.589 185.438ZM187.48 180.605L186.612 185.404L200.098 187.844L200.966 183.044L187.48 180.605Z" fill="#455A64"/>
<path d="M198.821 181.104C198.583 179.833 197.357 178.993 196.087 179.232L177.619 182.681C176.349 182.92 175.509 184.145 175.747 185.416C175.985 186.687 177.211 187.526 178.482 187.288L196.949 183.839C198.22 183.6 199.06 182.375 198.821 181.104Z" fill="#263238"/>
<path d="M198.821 181.104C198.821 181.104 198.844 181.291 198.821 181.632C198.793 181.966 198.685 182.488 198.265 182.982C198.055 183.226 197.772 183.447 197.414 183.6C197.062 183.753 196.62 183.788 196.16 183.878C195.23 184.043 194.175 184.23 193.017 184.44C190.674 184.865 187.911 185.37 184.836 185.926C183.298 186.21 181.682 186.511 180.008 186.817C179.588 186.897 179.168 186.97 178.743 187.05C178.306 187.141 177.931 187.18 177.529 187.072C176.74 186.885 176.076 186.204 175.934 185.376C175.77 184.553 176.144 183.68 176.808 183.22C177.143 182.976 177.512 182.874 177.948 182.806C178.374 182.727 178.794 182.647 179.214 182.568C180.887 182.25 182.499 181.944 184.036 181.654C187.1 181.064 189.863 180.537 192.2 180.088C193.358 179.861 194.407 179.657 195.332 179.476C195.797 179.396 196.223 179.266 196.603 179.283C196.989 179.294 197.34 179.402 197.618 179.549C198.191 179.856 198.475 180.31 198.623 180.61C198.764 180.922 198.793 181.104 198.815 181.104C198.815 181.104 198.815 180.917 198.691 180.582C198.56 180.259 198.282 179.771 197.686 179.425C197.391 179.254 197.023 179.13 196.603 179.107C196.177 179.079 195.746 179.203 195.287 179.271C194.356 179.436 193.301 179.623 192.143 179.833C189.8 180.259 187.032 180.764 183.962 181.32C182.425 181.603 180.808 181.904 179.134 182.21C178.714 182.29 178.294 182.363 177.869 182.443C177.455 182.505 176.956 182.636 176.581 182.919C175.798 183.458 175.361 184.485 175.554 185.45C175.724 186.42 176.502 187.22 177.432 187.436C177.886 187.566 178.402 187.504 178.805 187.413C179.231 187.333 179.65 187.254 180.07 187.175C181.744 186.857 183.355 186.551 184.893 186.261C187.956 185.671 190.719 185.143 193.057 184.695C194.214 184.468 195.264 184.264 196.189 184.083C196.643 183.98 197.091 183.941 197.477 183.765C197.857 183.589 198.157 183.339 198.373 183.073C198.804 182.534 198.889 181.978 198.889 181.632C198.889 181.274 198.815 181.104 198.815 181.104H198.821Z" fill="#455A64"/>
<path d="M136.3 186.926C138.323 184.903 138.323 181.623 136.3 179.6C134.277 177.577 130.998 177.577 128.975 179.6C126.952 181.623 126.952 184.903 128.975 186.926C130.998 188.949 134.277 188.949 136.3 186.926Z" fill="#E0E0E0"/>
<path d="M232.527 186.721C235.388 186.721 237.707 184.402 237.707 181.541C237.707 178.68 235.388 176.361 232.527 176.361C229.667 176.361 227.347 178.68 227.347 181.541C227.347 184.402 229.667 186.721 232.527 186.721Z" fill="#E0E0E0"/>
<path d="M155.697 63.0446C155.697 63.0446 154.193 56.0435 156.871 50.9601L160.519 47.312C160.519 47.312 169.597 37.1338 187.202 45.7972C187.202 45.7972 193.414 48.5432 192.535 57.7966C192.381 59.4306 190.844 60.5766 189.233 60.2702C184.087 59.2774 172.076 58.0292 155.697 63.0446Z" fill="#455A64"/>
<path d="M160.219 48.0837C160.219 48.0837 160.565 48.078 161.177 48.1234C161.79 48.1688 162.681 48.2596 163.776 48.3957C164.871 48.5319 166.17 48.7248 167.611 48.9801C167.969 49.0482 168.337 49.1049 168.717 49.1957C169.092 49.2921 169.5 49.4396 169.812 49.746C170.124 50.0354 170.346 50.5176 170.215 50.9828C170.096 51.4537 169.699 51.7658 169.313 51.953C168.916 52.1516 168.496 52.2594 168.093 52.3388C167.691 52.4182 167.293 52.4976 166.902 52.5714C166.119 52.7132 165.364 52.8381 164.638 52.9458C163.191 53.1614 161.887 53.2976 160.786 53.3884C159.685 53.4792 158.795 53.5189 158.176 53.5359C157.87 53.5472 157.626 53.5472 157.467 53.5416C157.302 53.5416 157.217 53.5359 157.217 53.5245C157.217 53.5018 157.558 53.4735 158.17 53.4224C158.783 53.3714 159.674 53.2976 160.769 53.1785C161.864 53.0593 163.163 52.9005 164.604 52.6735C165.325 52.5601 166.074 52.4296 166.851 52.2821C167.237 52.2026 167.634 52.1289 168.037 52.0438C168.434 51.97 168.825 51.8622 169.183 51.6807C169.534 51.5048 169.852 51.2438 169.937 50.8977C170.034 50.5573 169.88 50.1942 169.62 49.9446C169.086 49.434 168.269 49.3886 167.566 49.2354C166.136 48.9687 164.842 48.7531 163.753 48.5943C162.698 48.4468 161.83 48.322 161.172 48.2312C160.559 48.1461 160.224 48.1007 160.224 48.078L160.219 48.0837Z" fill="#263238"/>
<path d="M190.867 52.0663C190.867 52.0663 190.6 52.0436 190.141 51.9528C189.675 51.8563 189.006 51.7258 188.178 51.5783C186.515 51.2833 184.206 50.9599 181.636 50.8181C179.066 50.6819 176.734 50.7614 175.049 50.8862C174.21 50.9486 173.529 51.0053 173.058 51.0507C172.587 51.0961 172.326 51.1074 172.32 51.0904C172.32 51.0677 172.576 51.0167 173.041 50.9372C173.506 50.8578 174.187 50.767 175.032 50.6763C176.717 50.5004 179.066 50.3869 181.648 50.5231C184.235 50.6592 186.555 51.0223 188.212 51.3741C189.04 51.55 189.71 51.7088 190.163 51.8393C190.617 51.9698 190.867 52.0492 190.867 52.0663Z" fill="#263238"/>
<path d="M252.889 179.975C252.889 179.975 252.793 179.64 252.668 179.027C252.611 178.721 252.537 178.347 252.413 177.921C252.293 177.496 252.186 177.002 251.993 176.48C251.902 176.213 251.806 175.941 251.709 175.657C251.607 175.374 251.471 175.084 251.346 174.784C251.108 174.171 250.779 173.558 250.45 172.906C249.74 171.624 248.85 170.268 247.755 168.974C246.648 167.692 245.451 166.597 244.3 165.689C243.704 165.258 243.148 164.832 242.586 164.503C242.308 164.333 242.047 164.152 241.78 164.01C241.514 163.868 241.259 163.732 241.009 163.601C240.527 163.323 240.056 163.142 239.653 162.954C239.256 162.762 238.898 162.631 238.603 162.529C238.019 162.313 237.696 162.183 237.701 162.166C237.707 162.149 238.042 162.24 238.637 162.421C238.938 162.506 239.307 162.625 239.715 162.807C240.124 162.977 240.606 163.147 241.1 163.42C241.349 163.544 241.616 163.681 241.888 163.817C242.161 163.959 242.427 164.135 242.711 164.305C243.29 164.628 243.857 165.054 244.464 165.485C245.644 166.393 246.858 167.493 247.982 168.792C249.088 170.109 249.984 171.482 250.688 172.792C251.017 173.462 251.346 174.086 251.573 174.71C251.692 175.016 251.823 175.311 251.919 175.601C252.01 175.89 252.101 176.174 252.186 176.44C252.373 176.968 252.464 177.473 252.571 177.904C252.685 178.335 252.742 178.715 252.781 179.027C252.866 179.646 252.906 179.992 252.889 179.992V179.975Z" fill="#263238"/>
<path d="M247.732 173.343C247.647 173.388 246.841 171.76 245.355 170.12C243.88 168.469 242.342 167.499 242.393 167.425C242.41 167.397 242.819 167.595 243.426 168.015C244.027 168.435 244.816 169.088 245.576 169.922C246.331 170.756 246.898 171.607 247.25 172.253C247.607 172.9 247.766 173.326 247.732 173.343Z" fill="#263238"/>
<path d="M221.912 201.301C221.912 201.301 221.657 201.188 221.214 200.938C220.993 200.819 220.726 200.66 220.431 200.456C220.136 200.252 219.785 200.036 219.433 199.753C218.701 199.219 217.89 198.51 217.044 197.659C216.21 196.797 215.359 195.793 214.571 194.658C213.793 193.512 213.164 192.354 212.664 191.265C212.182 190.17 211.813 189.155 211.575 188.281C211.439 187.85 211.365 187.447 211.28 187.095C211.195 186.749 211.144 186.443 211.11 186.193C211.036 185.694 211.002 185.416 211.025 185.416C211.082 185.404 211.24 186.511 211.774 188.224C212.035 189.081 212.415 190.079 212.908 191.152C213.419 192.218 214.049 193.359 214.815 194.488C215.592 195.611 216.432 196.61 217.243 197.466C218.066 198.312 218.86 199.032 219.563 199.582C220.97 200.694 221.946 201.245 221.912 201.296V201.301Z" fill="#263238"/>
<path d="M133.865 161.633C133.865 161.689 132.878 161.627 131.301 161.74C130.512 161.791 129.582 161.922 128.555 162.115C127.534 162.325 126.422 162.62 125.287 163.023C124.158 163.437 123.114 163.919 122.195 164.407C121.281 164.912 120.481 165.411 119.84 165.871C118.552 166.79 117.838 167.465 117.798 167.425C117.787 167.408 117.951 167.232 118.274 166.92C118.592 166.608 119.08 166.188 119.716 165.7C120.345 165.213 121.145 164.691 122.064 164.169C122.989 163.658 124.044 163.164 125.19 162.745C126.342 162.336 127.466 162.047 128.504 161.848C129.542 161.661 130.489 161.559 131.289 161.53C132.084 161.496 132.731 161.508 133.179 161.547C133.621 161.582 133.865 161.61 133.865 161.633Z" fill="#263238"/>
<path d="M124.737 164.889C124.765 164.969 124.102 165.241 123.37 165.706C122.632 166.166 122.093 166.637 122.036 166.58C121.98 166.529 122.439 165.939 123.217 165.456C123.988 164.969 124.726 164.815 124.743 164.889H124.737Z" fill="#263238"/>
<path d="M144.146 199.775C144.146 199.775 144.407 199.611 144.889 199.35C145.371 199.083 146.058 198.675 146.852 198.096C148.441 196.956 150.443 195.032 151.884 192.4C153.325 189.767 153.859 187.038 153.955 185.087C154.012 184.105 153.984 183.311 153.95 182.761C153.915 182.21 153.881 181.904 153.91 181.904C153.921 181.904 153.938 181.978 153.967 182.12C153.989 182.261 154.035 182.477 154.069 182.749C154.142 183.3 154.199 184.105 154.171 185.098C154.125 187.078 153.615 189.858 152.151 192.542C150.687 195.225 148.622 197.16 146.982 198.266C146.16 198.828 145.456 199.214 144.951 199.452C144.702 199.577 144.503 199.651 144.367 199.707C144.231 199.764 144.157 199.787 144.151 199.775H144.146Z" fill="#263238"/>
<path d="M163.226 159.545C163.18 159.601 162.233 158.722 161.597 157.292C160.951 155.868 160.928 154.575 161.002 154.58C161.092 154.569 161.246 155.8 161.864 157.173C162.471 158.552 163.288 159.488 163.22 159.545H163.226Z" fill="#263238"/>
<path d="M159.68 161.264C159.606 161.292 159.317 160.719 159.039 159.987C158.761 159.255 158.596 158.637 158.676 158.609C158.75 158.58 159.039 159.153 159.317 159.885C159.595 160.617 159.759 161.235 159.68 161.264Z" fill="#263238"/>
<path d="M211.098 142.831C211.025 142.87 209.901 140.987 208.585 138.632C207.269 136.272 206.259 134.326 206.327 134.287C206.401 134.247 207.524 136.125 208.84 138.485C210.157 140.845 211.166 142.791 211.098 142.831Z" fill="#263238"/>
<path d="M154.074 28.408C154.976 26.4279 155.703 24.3684 156.429 22.3146C156.605 21.8211 156.747 21.3161 156.854 20.8055C156.854 20.8055 156.854 20.7942 156.86 20.7885C157.405 18.3092 157.252 15.6824 156.832 13.1577C156.406 10.5932 154.948 8.39193 152.979 6.69556C151.011 4.99352 150.024 3.71698 146.858 2.25323C141.247 -0.339554 135.312 -0.146655 129.712 2.46315C128.566 2.99645 127.46 3.70564 126.422 4.54531C118.15 10.0826 104.585 41.0598 108.301 55.391C115.886 63.2375 128.294 60.7184 139.652 65.8075L141.366 62.063C141.366 62.063 141.735 66.7834 142.296 67.0273C144.418 67.9578 146.472 68.8429 148.401 69.6825C147.737 62.8857 151.164 36.9068 154.074 28.408Z" fill="#263238"/>
<path d="M125.985 40.3677C125.985 40.3677 137.445 60.7979 137.003 64.4005C136.56 68.0089 125.792 73.949 124.362 73.5575C122.933 73.1604 125.991 40.3677 125.991 40.3677H125.985Z" fill="#342A57"/>
<path d="M100.778 202.533C100.613 202.311 99.439 194.754 99.439 194.754C99.439 194.754 114.06 190.443 113.759 191.197C113.458 191.946 113.816 200.882 113.594 201.046C113.373 201.211 108.369 204.887 108.369 204.887L102.588 205.001L100.778 202.538V202.533Z" fill="#FFBF9D"/>
<path d="M133.259 215.014C133.259 215.014 127.693 217.221 122.734 217.267C117.77 217.307 110.338 216.251 107.609 215.894C104.88 215.536 97.1809 217.193 96.3809 214.521C95.581 211.849 100.08 201.256 100.08 201.256C100.08 201.256 101.158 204.201 103.853 203.843C106.548 203.486 111.682 201.585 111.682 201.585C111.682 201.585 113.634 197.835 115.177 197.551C116.72 197.268 116.613 201.733 116.613 201.733C116.613 201.733 120.902 206.686 123.619 207.594C126.331 208.496 126.507 209.29 129.554 209.086C132.6 208.881 134.161 209.863 134.161 209.863C134.161 209.863 135.789 212.223 135.159 213.182C134.529 214.141 133.264 215.014 133.264 215.014H133.259Z" fill="#455A64"/>
<path d="M135.182 213.125C134.643 214.192 133.27 215.054 133.27 215.054C133.27 215.054 127.704 217.261 122.745 217.307C117.781 217.346 110.349 216.291 107.62 215.934C104.891 215.576 97.1921 217.233 96.3921 214.561C96.1652 213.829 96.1368 213.063 96.3013 212.257C96.3013 212.257 104.38 213.653 108.182 213.233C111.983 212.813 120.346 214.731 124.64 214.3C128.941 213.868 133.684 212.371 133.684 212.371L135.023 211.48C135.25 212.093 135.505 212.507 135.176 213.125H135.182Z" fill="#E0E0E0"/>
<path d="M122.581 206.941C122.507 206.941 122.53 207.645 122.184 208.399C121.855 209.165 121.321 209.613 121.373 209.67C121.401 209.727 122.053 209.33 122.416 208.501C122.785 207.673 122.643 206.918 122.581 206.941Z" fill="white"/>
<path d="M119.897 204.967C119.818 204.961 119.79 205.801 119.302 206.674C118.825 207.554 118.133 208.025 118.178 208.087C118.201 208.15 119.012 207.741 119.523 206.794C120.051 205.852 119.96 204.95 119.897 204.967Z" fill="white"/>
<path d="M117.934 203.032C117.866 203.004 117.56 203.611 117.055 204.263C116.556 204.921 116.045 205.369 116.09 205.426C116.125 205.483 116.726 205.103 117.254 204.416C117.781 203.735 117.991 203.055 117.934 203.032Z" fill="white"/>
<path d="M103.564 210.124C103.564 210.158 103.955 210.203 104.602 210.232C105.243 210.26 106.134 210.266 107.109 210.215C108.091 210.163 108.97 210.073 109.606 209.982C110.241 209.891 110.633 209.806 110.627 209.772C110.616 209.698 109.044 209.868 107.092 209.959C105.146 210.056 103.564 210.044 103.558 210.118L103.564 210.124Z" fill="white"/>
<path d="M13.4119 180.043C13.514 179.788 19.3179 174.807 19.3179 174.807C19.3179 174.807 30.6876 184.962 29.8876 185.098C29.0933 185.24 21.6895 190.25 21.4342 190.148C21.1788 190.045 15.4146 187.731 15.4146 187.731L12.2715 182.874L13.4119 180.037V180.043Z" fill="#FFBF9D"/>
<path d="M19.9195 214.22C19.9195 214.22 15.1141 210.657 12.4589 206.459C9.80937 202.26 6.79107 195.39 5.65638 192.882C4.52168 190.374 -0.941879 184.707 0.907675 182.613C2.75723 180.52 14.1269 178.766 14.1269 178.766C14.1269 178.766 12.1922 181.234 13.917 183.339C15.6417 185.444 19.9592 188.803 19.9592 188.803C19.9592 188.803 24.1746 188.485 25.2299 189.648C26.2851 190.811 22.4329 193.075 22.4329 193.075C22.4329 193.075 20.4812 199.333 21.145 202.119C21.8088 204.904 21.2244 205.466 23.0059 207.945C24.7873 210.43 24.776 212.268 24.776 212.268C24.776 212.268 23.63 214.895 22.4782 214.867C21.3265 214.838 19.9195 214.226 19.9195 214.226V214.22Z" fill="#455A64"/>
<path d="M22.5405 214.861C21.3547 214.963 19.8909 214.254 19.8909 214.254C19.8909 214.254 15.0855 210.691 12.4303 206.493C9.7808 202.294 6.76251 195.424 5.62781 192.916C4.49312 190.408 -0.970443 184.741 0.879111 182.647C1.37838 182.068 2.01948 181.637 2.7854 181.354C2.7854 181.354 5.85475 188.956 8.21492 191.969C10.5751 194.981 13.3494 203.094 15.9819 206.521C18.6144 209.948 22.3873 213.193 22.3873 213.193L23.851 213.863C23.4539 214.379 23.2326 214.81 22.5348 214.861H22.5405Z" fill="#E0E0E0"/>
<path d="M21.1558 200.893C21.1161 200.831 20.5318 201.216 19.7091 201.324C18.8864 201.449 18.2226 201.233 18.2 201.302C18.1659 201.358 18.8467 201.704 19.7431 201.574C20.6395 201.455 21.2069 200.933 21.1558 200.887V200.893Z" fill="white"/>
<path d="M21.4171 197.574C21.3831 197.506 20.6512 197.926 19.6527 197.966C18.6541 198.022 17.8882 197.682 17.8599 197.756C17.8201 197.807 18.5917 198.278 19.6697 198.221C20.7477 198.17 21.4682 197.619 21.4228 197.574H21.4171Z" fill="white"/>
<path d="M22.0296 194.885C22.0182 194.811 21.3431 194.874 20.5204 194.783C19.6978 194.703 19.051 194.51 19.0226 194.579C18.9943 194.641 19.6354 194.947 20.4921 195.032C21.3544 195.123 22.0409 194.942 22.0239 194.879L22.0296 194.885Z" fill="white"/>
<path d="M8.43055 186.409C8.40218 186.426 8.57239 186.789 8.88443 187.345C9.19647 187.906 9.6617 188.661 10.2177 189.467C10.7737 190.272 11.3184 190.976 11.7325 191.469C12.1467 191.963 12.4247 192.247 12.4474 192.224C12.5041 192.179 11.5339 190.925 10.4276 189.319C9.31561 187.714 8.49296 186.363 8.43055 186.403V186.409Z" fill="white"/>
<path d="M60.8929 63.4133C60.8929 63.4133 42.9023 75.8326 46.6298 94.0217C50.3572 112.211 87.076 142.797 87.076 142.797C87.076 142.797 94.826 196.956 97.6968 199.758C100.568 202.567 115.114 196.791 115.114 196.791C115.114 196.791 110.309 142.587 108.59 133.572C106.871 124.556 83.5698 90.3851 83.5698 90.3851L60.8986 63.4133H60.8929Z" fill="#F17832"/>
<path d="M56.3376 101.17L50.9251 97.6812C50.9251 97.6812 56.678 134.593 53.4725 137.861C50.267 141.123 16.8956 167.839 12.4192 176.457C10.7285 179.714 24.7023 191.379 25.1221 190.357C25.5419 189.336 73.3637 153.605 76.0756 148.504C78.7876 143.404 78.8783 121.89 78.8783 121.89L56.3433 101.176L56.3376 101.17Z" fill="#F17832"/>
<path d="M150.097 7.86435L147.714 6.35521L136.192 5.53255C134.762 4.93117 133.105 5.52121 132.385 6.89419L120.028 35.4885L114.956 39.9535L127.131 53.4734L127.494 48.8439L132.657 41.6953C132.748 41.6102 132.878 41.5818 132.992 41.6272C134.234 42.0641 141.468 44.2767 146.285 38.087C148.912 34.7113 152.072 28.5385 154.494 23.4097C156.673 18.7915 155.771 10.633 150.097 7.87003V7.86435Z" fill="#FFBF9D"/>
<path d="M132.833 41.5762C132.833 41.5762 128.249 39.2614 124.93 33.5425C124.93 33.5425 122.961 39.9819 130.802 43.3974L132.833 41.5762Z" fill="#FF9A6C"/>
<path d="M127.505 20.3686C127.812 19.8126 127.891 18.156 127.386 17.7645C126.047 16.7319 123.347 15.393 121.276 19.0921C118.445 24.1472 124.107 25.9513 124.198 25.8095C124.266 25.7017 126.45 22.2863 127.5 20.3686H127.505Z" fill="#FFBF9D"/>
<path d="M123.84 23.1771C123.829 23.1487 123.716 23.1885 123.528 23.1771C123.347 23.1601 123.069 23.0693 122.865 22.8197C122.439 22.3261 122.467 21.2254 122.95 20.3007C123.194 19.8354 123.534 19.4496 123.903 19.1773C124.266 18.8936 124.646 18.7688 124.947 18.8709C125.248 18.956 125.35 19.2284 125.333 19.4042C125.321 19.5858 125.23 19.6652 125.253 19.6879C125.259 19.7106 125.406 19.6652 125.486 19.4326C125.52 19.3191 125.531 19.166 125.463 19.0014C125.395 18.8369 125.247 18.6837 125.049 18.5986C124.646 18.4057 124.09 18.5702 123.687 18.8653C123.262 19.1546 122.87 19.5801 122.592 20.1021C122.053 21.1403 122.042 22.3828 122.655 23.0069C122.961 23.2963 123.313 23.3587 123.534 23.3246C123.761 23.2906 123.852 23.1885 123.84 23.1714V23.1771Z" fill="#FF9A6C"/>
<path d="M127.171 17.6738L127.835 19.6879C135.448 20.4708 153.967 8.66996 152.951 9.18625C152.951 9.18625 149.808 5.68571 145.207 4.35812C140.606 3.03052 131.517 1.26607 129.225 6.33816C126.933 11.4102 127.171 17.6738 127.171 17.6738Z" fill="#263238"/>
<path d="M148.764 28.3569C148.503 28.8732 147.856 29.0717 147.312 28.8107C146.773 28.5498 146.54 27.92 146.801 27.4094C147.062 26.8931 147.709 26.6945 148.253 26.9555C148.798 27.2165 149.025 27.8463 148.764 28.3625V28.3569Z" fill="#263238"/>
<path d="M151.533 25.1173C151.345 25.1741 150.92 24.2436 149.887 23.6763C148.866 23.0976 147.822 23.211 147.782 23.0238C147.76 22.9387 148.004 22.7799 148.463 22.7231C148.917 22.6664 149.598 22.7345 150.233 23.0919C150.869 23.4493 151.277 23.9826 151.459 24.3911C151.64 24.8053 151.623 25.0946 151.533 25.1173Z" fill="#263238"/>
<path d="M140.758 30.1214C140.787 30.0589 141.485 30.3029 142.591 30.7398C142.869 30.8589 143.147 30.944 143.289 30.7851C143.453 30.632 143.499 30.2859 143.544 29.9114C143.646 29.1398 143.754 28.3342 143.868 27.4889C144.355 24.0507 144.866 21.2821 145.002 21.3048C145.138 21.3275 144.855 24.1302 144.367 27.5683C144.242 28.4136 144.117 29.2193 144.004 29.9852C143.941 30.3369 143.924 30.7681 143.573 31.0915C143.391 31.2504 143.124 31.2844 142.931 31.239C142.733 31.1993 142.585 31.1199 142.449 31.0575C141.377 30.5412 140.73 30.1894 140.758 30.127V30.1214Z" fill="#263238"/>
<path d="M153.36 20.9871C153.048 21.146 152.31 20.5502 151.3 20.1247C150.307 19.6709 149.366 19.529 149.275 19.1943C149.241 19.0354 149.473 18.8425 149.944 18.7574C150.409 18.6723 151.102 18.7347 151.788 19.0354C152.475 19.3361 152.985 19.807 153.235 20.2042C153.49 20.6013 153.501 20.9077 153.36 20.9871Z" fill="#263238"/>
<path d="M137.786 22.5813C137.508 23.0862 137.706 23.7387 138.228 24.0394C138.75 24.3401 139.397 24.1756 139.675 23.6706C139.953 23.1657 139.755 22.5132 139.233 22.2125C138.711 21.9118 138.064 22.0764 137.786 22.5813Z" fill="#263238"/>
<path d="M137.445 17.8213C137.502 18.0085 138.512 17.8326 139.561 18.3659C140.617 18.8822 141.11 19.807 141.292 19.7389C141.377 19.7106 141.366 19.4212 141.156 19.007C140.946 18.5985 140.503 18.0766 139.851 17.7532C139.198 17.4298 138.523 17.3901 138.086 17.4752C137.638 17.5603 137.417 17.7362 137.445 17.8213Z" fill="#263238"/>
<path d="M139.057 31.1483C138.966 32.0561 138.16 32.7199 137.253 32.6348C136.345 32.5497 135.681 31.7383 135.766 30.8306C135.857 29.9228 136.663 29.259 137.57 29.3441C138.478 29.4292 139.142 30.2406 139.057 31.1483Z" fill="#FF9A6C"/>
<path d="M139.091 32.039C139.125 31.8461 138.149 31.5341 137.462 30.5866C136.765 29.6448 136.748 28.5952 136.555 28.5725C136.464 28.5612 136.339 28.8221 136.339 29.2874C136.339 29.7469 136.492 30.4107 136.923 31.0007C137.355 31.5908 137.933 31.9312 138.365 32.056C138.801 32.1865 139.079 32.1354 139.091 32.0447V32.039Z" fill="#263238"/>
<path d="M139.482 14.7916C139.584 15.1434 140.589 15.3476 141.655 15.8809C142.733 16.3802 143.527 17.0383 143.856 16.8965C144.01 16.8227 143.987 16.5107 143.715 16.0852C143.442 15.6653 142.892 15.1491 142.16 14.7973C141.423 14.4455 140.685 14.3377 140.191 14.3888C139.692 14.4399 139.448 14.6214 139.488 14.786L139.482 14.7916Z" fill="#263238"/>
<path d="M120.992 33.8432C115.449 33.2134 98.1054 40.8896 90.3838 45.4057C82.6622 49.9218 65.5907 56.6789 60.4789 62.2786C55.9231 67.2656 81.2835 88.6773 85.7202 91.0602C90.1569 93.4431 90.4916 87.9001 90.4916 87.9001C90.4916 87.9001 110.048 79.4069 113.81 77.4779C117.571 75.5489 127.239 74.9759 128.668 60.4348C129.321 53.8478 129.168 48.6226 129.168 48.6226L120.992 33.8375V33.8432Z" fill="#342A57"/>
<path opacity="0.3" d="M108.085 47.3007C108.085 47.3007 103.45 62.2447 104.08 68.372C104.709 74.4994 106.026 74.8284 106.026 74.8284L106.048 81.0636L115.29 76.8595L117.798 58.7952L108.085 47.3064V47.3007Z" fill="black"/>
<path d="M108.085 58.5738C108.085 58.5738 108.488 86.9129 109.571 93.097C110.649 99.2811 125.032 124.71 125.032 124.71L131.709 121.005L124.254 89.5227C123.908 89.7099 125.304 55.079 123.386 52.1004C121.435 49.0651 108.079 58.5682 108.079 58.5682L108.085 58.5738Z" fill="#FFBF9D"/>
<path d="M119.478 38.3705C118.712 38.0755 113.345 38.0471 109.6 44.5092C105.85 50.9713 104.931 67.2939 107.421 68.6499C109.912 70.0059 125.242 69.4499 125.56 68.3379C125.56 68.3379 129.73 42.3306 119.483 38.3705H119.478Z" fill="#342A57"/>
<path d="M119.477 38.3705C119.477 38.3705 119.529 38.3876 119.625 38.4273C119.733 38.4727 119.875 38.5351 120.05 38.6145C120.243 38.6939 120.476 38.8017 120.72 38.9776C120.975 39.1421 121.282 39.318 121.565 39.5903C121.713 39.7208 121.872 39.857 122.042 39.9988C122.189 40.1634 122.343 40.3336 122.507 40.5151C122.677 40.691 122.83 40.8896 122.978 41.1052C123.126 41.3208 123.307 41.5307 123.443 41.7803C124.062 42.7391 124.578 43.9362 125.026 45.3092C125.911 48.0608 126.388 51.5273 126.49 55.442C126.586 59.3567 126.354 63.7253 125.69 68.3606V68.3719C125.599 68.5761 125.463 68.6159 125.355 68.6783C125.242 68.735 125.128 68.769 125.015 68.8088C124.788 68.8768 124.555 68.9279 124.323 68.9733C123.857 69.0641 123.392 69.1321 122.921 69.1889C121.974 69.3024 121.015 69.3818 120.039 69.4442C118.087 69.5633 116.085 69.6087 114.048 69.5804C112.527 69.552 111.018 69.4952 109.543 69.308C108.806 69.2002 108.068 69.1151 107.359 68.7747C106.979 68.5591 106.803 68.1904 106.638 67.8613C106.491 67.5152 106.383 67.1635 106.304 66.8117C105.986 65.3933 105.912 63.975 105.889 62.5906C105.872 61.2063 105.929 59.856 106.026 58.5398C106.23 55.9073 106.61 53.4223 107.126 51.1359C107.654 48.8495 108.306 46.7446 109.231 44.9631C110.196 43.2044 111.342 41.769 112.55 40.7307C113.764 39.6981 115.007 39.057 116.062 38.6996C117.123 38.3365 118.002 38.2457 118.587 38.2457C118.882 38.2457 119.103 38.2741 119.256 38.3025C119.404 38.3365 119.472 38.3705 119.472 38.3705C119.472 38.3762 119.392 38.3592 119.251 38.3308C119.103 38.3138 118.882 38.2968 118.587 38.3025C118.008 38.3195 117.14 38.433 116.096 38.8017C115.058 39.1705 113.838 39.8173 112.652 40.8499C111.472 41.8881 110.349 43.3178 109.413 45.0539C108.511 46.8184 107.875 48.9119 107.365 51.1869C106.86 53.4677 106.491 55.9413 106.298 58.5625C106.202 59.873 106.15 61.2176 106.167 62.5906C106.196 63.9579 106.27 65.3706 106.582 66.7493C106.655 67.0954 106.763 67.4301 106.899 67.7478C107.047 68.0542 107.217 68.3776 107.489 68.5251C108.102 68.8201 108.851 68.9222 109.572 69.0187C111.03 69.2002 112.527 69.257 114.042 69.2853C116.068 69.3137 118.07 69.2683 120.011 69.1492C120.981 69.0924 121.94 69.013 122.876 68.8995C123.341 68.8428 123.806 68.7747 124.26 68.6896C124.487 68.6442 124.708 68.5932 124.924 68.5308C125.032 68.4967 125.134 68.4627 125.23 68.4173C125.321 68.3832 125.406 68.3038 125.418 68.2925L125.406 68.3095C126.076 63.7026 126.32 59.3397 126.246 55.442C126.166 51.5444 125.713 48.0949 124.856 45.3603C124.425 43.9986 123.925 42.8015 123.324 41.8541C123.194 41.6044 123.018 41.4002 122.87 41.1789C122.723 40.9633 122.581 40.7591 122.411 40.5889C122.252 40.4073 122.104 40.2371 121.957 40.0726C121.798 39.9251 121.645 39.7889 121.497 39.6584C121.219 39.3804 120.919 39.2045 120.675 39.0343C120.436 38.8528 120.209 38.7393 120.022 38.6542C119.846 38.5691 119.71 38.4954 119.608 38.4443C119.517 38.3932 119.466 38.3705 119.472 38.3649L119.477 38.3705Z" fill="#263238"/>
<path d="M87.0706 142.797C87.0706 142.797 86.9287 142.7 86.6791 142.496C86.4124 142.269 86.0493 141.968 85.5955 141.583C84.665 140.783 83.3261 139.608 81.7091 138.122C78.4582 135.16 74.0726 130.962 69.3977 126.156C64.7227 121.345 60.6492 116.84 57.8351 113.459C56.4224 111.774 55.3218 110.378 54.5842 109.397C54.2325 108.92 53.9545 108.54 53.7445 108.257C53.5573 107.996 53.4609 107.854 53.4665 107.848C53.4722 107.842 53.5857 107.973 53.7899 108.222C54.0055 108.495 54.3005 108.864 54.675 109.329C55.4409 110.288 56.5643 111.661 57.994 113.329C60.8421 116.67 64.9383 121.147 69.6076 125.952C74.2769 130.752 78.6398 134.973 81.851 137.969C83.4509 139.472 84.7671 140.669 85.6749 141.492C86.1117 141.895 86.4635 142.212 86.7188 142.445C86.9571 142.666 87.0762 142.785 87.0706 142.791V142.797Z" fill="#455A64"/>
<path d="M86.2421 86.6974C86.2421 86.6974 85.9471 86.4931 85.4422 86.0789C84.9372 85.6704 84.2224 85.052 83.3657 84.2634C81.6466 82.6919 79.3715 80.4055 77.0965 77.6652C74.8271 74.9249 72.9946 72.264 71.7691 70.284C71.1564 69.2968 70.6798 68.4798 70.3677 67.9068C70.0557 67.3338 69.8912 67.0161 69.9082 67.0047C69.9252 66.9934 70.1238 67.2941 70.4642 67.8501C70.8046 68.4061 71.3039 69.2003 71.9393 70.1705C73.2101 72.1165 75.0597 74.7433 77.3177 77.4723C79.5815 80.1955 81.8225 82.499 83.5018 84.1046C84.3415 84.9102 85.028 85.5513 85.5103 85.9825C85.9925 86.4193 86.2478 86.669 86.2365 86.686L86.2421 86.6974Z" fill="#263238"/>
<path d="M129.094 47.21C129.094 47.21 129.117 47.3007 129.128 47.4766C129.139 47.6865 129.156 47.9418 129.174 48.2482C129.213 48.9177 129.225 49.8878 129.208 51.0849C129.162 53.4792 128.964 56.7925 128.419 60.4065C127.891 64.0262 127.097 67.26 126.24 69.5067C126.036 70.0741 125.786 70.5563 125.605 70.9989C125.378 71.4074 125.179 71.7591 125.004 72.0711C124.816 72.3151 124.663 72.5194 124.533 72.6896C124.425 72.8257 124.362 72.8938 124.351 72.8881C124.345 72.8825 124.391 72.7974 124.482 72.6498C124.595 72.474 124.737 72.264 124.901 72.0087C125.06 71.6967 125.242 71.3393 125.452 70.9308C125.622 70.4882 125.855 70.0003 126.042 69.4387C126.842 67.192 127.596 63.9751 128.124 60.3668C128.669 56.7641 128.896 53.4678 128.998 51.0793C129.043 49.8878 129.066 48.9177 129.06 48.2539C129.06 47.9475 129.06 47.6922 129.066 47.4823C129.066 47.3064 129.077 47.2156 129.088 47.21H129.094Z" fill="#263238"/>
<path d="M124.833 122.463C124.833 122.463 123.636 135.189 123.665 135.864C123.693 136.539 131.789 140.232 132.748 139.886C133.701 139.54 136.6 137.906 136.6 137.906L135.392 137.129C135.392 137.129 136.044 134.003 136.373 132.579C136.702 131.16 136.186 127.456 135.04 125.969C133.894 124.483 133.173 123.966 133.173 123.966L131.222 119.83L124.833 122.457V122.463Z" fill="#FFBF9D"/>
<path d="M135.21 137.01C135.21 137.01 135.25 137.174 135.147 137.452C135.045 137.713 134.79 138.116 134.268 138.298C134.013 138.383 133.706 138.405 133.394 138.326C133.082 138.246 132.782 138.048 132.56 137.764C132.118 137.18 132.038 136.391 131.999 135.631C131.919 134.105 131.863 132.721 131.834 131.722C131.806 130.718 131.811 130.099 131.851 130.099C131.891 130.099 131.959 130.712 132.038 131.711C132.118 132.709 132.209 134.088 132.288 135.614C132.322 136.363 132.407 137.1 132.77 137.6C133.128 138.105 133.757 138.229 134.2 138.099C134.654 137.974 134.909 137.634 135.034 137.407C135.159 137.169 135.176 137.01 135.204 137.015L135.21 137.01Z" fill="#263238"/>
<path d="M155.198 24.9528C152.65 39.2159 151.867 53.7911 152.86 68.2471L149.683 68.3719L151.357 36.4529L155.192 24.9528H155.198Z" fill="#263238"/>
</svg>
