<svg width="180" height="51" viewBox="0 0 180 51" fill="none" xmlns="http://www.w3.org/2000/svg">
<rect width="180" height="51" fill="#1E1E1E"/>
<g clip-path="url(#clip0_36_44)">
<rect width="1440" height="4196.5" transform="translate(-32 -20)" fill="#FCF4D9"/>
<path d="M14.5474 3.25421L24.2766 36.295H24.6472L34.3764 3.25421H48.9238L33.2645 50.1154H15.6593L0 3.25421H14.5474Z" fill="#342A57"/>
<path d="M53.4931 50.1154V3.25421H87.6841V13.5051H66.3726V21.5594H85.9236V31.8103H66.3726V39.8645H87.5915V50.1154H53.4931Z" fill="#342A57"/>
<path d="M94.0718 50.1154V3.25421H106.951V39.8645H126.132V50.1154H94.0718Z" fill="#342A57"/>
<path d="M154.802 24.9533L154.583 25.0968L167.396 44.1688L167.615 44.0253L154.802 24.9533Z" fill="#191919"/>
<path d="M167.41 44.1853L154.531 25.0992L154.79 24.9293L167.669 44.0145L167.41 44.1844V44.1853ZM154.598 25.1124L167.424 44.1202L167.603 44.0022L154.778 24.9954L154.599 25.1124H154.598Z" fill="#191919"/>
<path d="M154.841 25.0183L154.583 25.0695L159.152 47.51L159.409 47.4589L154.841 25.0183Z" fill="#191919"/>
<path d="M159.144 47.5331L159.139 47.5105L154.555 25.0492L154.86 24.9888L154.865 25.0115L159.449 47.4727L159.144 47.5331ZM154.611 25.086L159.182 47.4784L159.393 47.4368L154.822 25.0445L154.611 25.086Z" fill="#191919"/>
<path d="M154.625 25.0381L150.314 47.5284L150.574 47.5769L154.884 25.0866L154.625 25.0381Z" fill="#191919"/>
<path d="M150.605 47.6086L150.299 47.552L150.304 47.5284L154.595 25.0105L154.901 25.0681L154.896 25.0917L150.605 47.6086ZM150.356 47.5142L150.568 47.5529L154.846 25.1049L154.634 25.0652L150.356 47.5133V47.5142Z" fill="#191919"/>
<path d="M154.656 25.016L142.164 44.2952L142.385 44.4351L154.877 25.1559L154.656 25.016Z" fill="#191919"/>
<path d="M142.395 44.477L142.133 44.3118L142.145 44.292L154.646 24.9907L154.908 25.1559L154.896 25.1757L142.395 44.4761V44.477ZM142.199 44.2977L142.38 44.4119L154.842 25.171L154.661 25.0558L142.199 44.2977Z" fill="#191919"/>
<path d="M154.702 25.0296L135.788 38.2533L135.94 38.466L154.855 25.2422L154.702 25.0296Z" fill="#191919"/>
<path d="M135.94 38.5082L135.759 38.2581L135.778 38.2449L154.701 24.9917L154.881 25.2427L154.862 25.2559L135.939 38.5082H135.94ZM135.826 38.2685L135.951 38.4422L154.816 25.2305L154.692 25.0568L135.827 38.2695L135.826 38.2685Z" fill="#191919"/>
<path d="M154.736 25.0519L132.132 30.0917L132.19 30.3458L154.794 25.306L154.736 25.0519Z" fill="#191919"/>
<path d="M132.177 30.3818L132.108 30.0817L132.131 30.076L154.754 25.0124L154.822 25.3116L154.799 25.3172L132.177 30.3818ZM132.165 30.1176L132.213 30.3262L154.766 25.2776L154.718 25.07L132.165 30.1185V30.1176Z" fill="#191919"/>
<path d="M154.766 25.0714L154.724 25.3282L131.845 21.6963L131.887 21.4396L154.766 25.0714Z" fill="#191919"/>
<path d="M154.744 25.3541L154.72 25.3504L131.817 21.7147L131.867 21.4118L131.891 21.4155L154.794 25.0512L154.744 25.3541ZM131.872 21.676L154.704 25.3003L154.738 25.0908L131.906 21.4665L131.872 21.676Z" fill="#191919"/>
<path d="M135.177 12.9148L135.037 13.1353L154.652 25.3226L154.793 25.1021L135.177 12.9148Z" fill="#191919"/>
<path d="M154.65 25.3645L154.63 25.3522L135.017 13.1173L135.183 12.8578L135.203 12.8701L154.816 25.1049L154.65 25.3654V25.3645ZM135.083 13.1022L154.635 25.2993L154.75 25.1191L135.197 12.922L135.083 13.1022Z" fill="#191919"/>
<path d="M141.652 6.29915L141.435 6.44681L154.57 25.3041L154.788 25.1564L141.652 6.29915Z" fill="#191919"/>
<path d="M154.559 25.3362L154.545 25.3164L141.414 6.42851L141.67 6.25391L141.683 6.27372L154.815 25.1616L154.558 25.3362H154.559ZM141.48 6.44078L154.571 25.2702L154.749 25.1494L141.657 6.31997L141.48 6.44078H141.48Z" fill="#191919"/>
<path d="M149.953 2.80782L149.695 2.86194L154.509 25.2514L154.767 25.1973L149.953 2.80782Z" fill="#191919"/>
<path d="M154.488 25.2768L154.483 25.2532L149.679 2.83722L149.984 2.77399L154.792 25.2126L154.488 25.2768ZM149.736 2.87403L154.525 25.2211L154.736 25.1767L149.948 2.82967L149.737 2.87403H149.736Z" fill="#191919"/>
<path d="M154.732 25.2252L154.473 25.1742L159.045 2.73468L159.304 2.78659L154.732 25.2252Z" fill="#191919"/>
<path d="M154.751 25.2521L154.445 25.1927L154.45 25.1691L159.026 2.70688L159.332 2.76729L159.327 2.79088L154.751 25.2531V25.2521ZM154.501 25.1549L154.714 25.1965L159.275 2.80409L159.063 2.76256L154.501 25.1559V25.1549Z" fill="#191919"/>
<path d="M154.69 25.2402L154.473 25.093L167.64 6.25696L167.857 6.40608L154.69 25.2402Z" fill="#191919"/>
<path d="M154.696 25.273L154.439 25.0984L167.634 6.22372L167.89 6.39928L154.696 25.273H154.696ZM154.505 25.0871L154.683 25.2079L167.822 6.41155L167.645 6.28979L154.504 25.0871H154.505Z" fill="#191919"/>
<path d="M173.91 12.507L154.507 25.02L154.651 25.2381L174.054 12.7251L173.91 12.507Z" fill="#191919"/>
<path d="M154.64 25.2711L154.47 25.0143L154.49 25.0011L173.918 12.4822L174.088 12.7399L174.068 12.7531L154.639 25.272L154.64 25.2711ZM154.536 25.0276L154.653 25.2059L174.022 12.7257L173.903 12.5473L154.535 25.0276H154.536Z" fill="#191919"/>
<path d="M177.381 20.9878L154.563 24.9742L154.609 25.2307L177.427 21.2443L177.381 20.9878Z" fill="#191919"/>
<path d="M154.587 25.2465L154.533 24.9435L154.557 24.9397L177.402 20.9719L177.456 21.2748L177.433 21.2786L154.587 25.2455V25.2465ZM154.588 24.9822L154.625 25.1917L177.4 21.2371L177.363 21.0266L154.587 24.9822H154.588Z" fill="#191919"/>
<path d="M154.578 25.1894L154.631 24.9345L177.333 29.5263L177.28 29.782L154.578 25.1894Z" fill="#191919"/>
<path d="M177.298 29.809L177.275 29.8043L154.55 25.2069L154.613 24.9058L154.636 24.9105L177.361 29.5079L177.298 29.809ZM154.606 25.1701L177.262 29.7533L177.306 29.5447L154.65 24.9615L154.606 25.1701Z" fill="#191919"/>
<path d="M154.563 25.1485L154.711 24.9343L173.808 37.9006L173.658 38.1149L154.563 25.1485Z" fill="#191919"/>
<path d="M173.665 38.1477L173.645 38.1345L154.53 25.1549L154.706 24.902L154.726 24.9152L173.842 37.8947L173.665 38.1477ZM154.597 25.1426L173.653 38.0825L173.775 37.907L154.718 24.9671L154.597 25.1426Z" fill="#191919"/>
<path d="M154.773 2.98511H154.494V5.75713H154.773V2.98511Z" fill="#EAEAEA"/>
<path d="M154.796 5.77909H154.469V2.95987H154.796V5.77909ZM154.517 5.7319H154.748V3.00706H154.517V5.7319Z" fill="#191919"/>
<path d="M154.852 2.00955H154.414V4.78158H154.852V2.00955Z" fill="#EAEAEA"/>
<path d="M154.875 4.80414H154.389V1.98492H154.875V4.80414ZM154.437 4.75695H154.827V2.03212H154.437V4.75695Z" fill="#191919"/>
<path d="M179.977 25.0568C179.977 11.2306 168.63 0.022644 154.634 0.022644C140.637 0.022644 129.29 11.2297 129.29 25.0568C129.29 38.8839 140.636 50.09 154.634 50.09C168.631 50.09 179.977 38.882 179.977 25.0568ZM176.835 25.0568C176.835 37.168 166.895 46.9876 154.634 46.9876C142.372 46.9876 132.431 37.168 132.431 25.0568C132.431 12.9456 142.371 3.12501 154.634 3.12501C166.896 3.12501 176.835 12.9437 176.835 25.0568Z" fill="#F17832"/>
<path d="M154.632 50.1126C151.208 50.1126 147.885 49.4501 144.758 48.1438C141.736 46.8819 139.024 45.0754 136.694 42.7744C134.365 40.4733 132.536 37.7938 131.257 34.8103C129.935 31.7212 129.264 28.4395 129.264 25.0568C129.264 21.6741 129.935 18.3924 131.257 15.3032C132.535 12.3198 134.364 9.63933 136.694 7.33827C139.024 5.03722 141.736 3.23073 144.758 1.96883C147.885 0.662567 151.208 0 154.632 0C158.057 0 161.379 0.662567 164.506 1.96883C167.527 3.23073 170.239 5.03722 172.57 7.33827C174.899 9.63933 176.728 12.3189 178.007 15.3032C179.329 18.3924 180 21.6741 180 25.0568C180 28.4395 179.329 31.7212 178.007 34.8103C176.729 37.7938 174.9 40.4733 172.57 42.7744C170.24 45.0754 167.528 46.8819 164.506 48.1438C161.379 49.4501 158.057 50.1126 154.632 50.1126ZM154.632 0.0462467C151.214 0.0462467 147.898 0.707872 144.776 2.0113C141.761 3.27131 139.053 5.07403 136.728 7.37131C134.402 9.66859 132.577 12.3425 131.301 15.3212C129.981 18.4047 129.312 21.6798 129.312 25.0568C129.312 28.4338 129.982 31.7079 131.301 34.7914C132.577 37.7692 134.402 40.444 136.728 42.7413C139.053 45.0386 141.761 46.8413 144.776 48.1013C147.898 49.4057 151.213 50.0664 154.632 50.0664C158.051 50.0664 161.366 49.4048 164.487 48.1013C167.502 46.8413 170.21 45.0386 172.536 42.7413C174.861 40.444 176.686 37.7702 177.962 34.7914C179.282 31.7079 179.951 28.4329 179.951 25.0568C179.951 21.6807 179.281 18.4047 177.962 15.3212C176.686 12.3434 174.861 9.66859 172.536 7.37131C170.21 5.07403 167.503 3.27131 164.487 2.0113C161.366 0.706928 158.05 0.0462467 154.632 0.0462467ZM154.632 47.0103C151.632 47.0103 148.72 46.4298 145.981 45.2849C143.334 44.1788 140.957 42.596 138.916 40.5799C136.875 38.5639 135.272 36.2157 134.153 33.6013C132.994 30.8944 132.406 28.0195 132.406 25.0558C132.406 22.0922 132.994 19.2164 134.153 16.5104C135.272 13.896 136.875 11.5477 138.916 9.53173C140.957 7.51571 143.334 5.93197 145.981 4.82675C148.721 3.68188 151.632 3.10142 154.632 3.10142C157.632 3.10142 160.543 3.68188 163.283 4.82675C165.93 5.93291 168.306 7.51571 170.348 9.53173C172.389 11.5477 173.992 13.896 175.112 16.5104C176.271 19.2173 176.858 22.0922 176.858 25.0558C176.858 28.0195 176.271 30.8944 175.112 33.6013C173.992 36.2157 172.389 38.563 170.348 40.5799C168.307 42.596 165.93 44.1788 163.283 45.2849C160.543 46.4298 157.632 47.0103 154.632 47.0103ZM154.632 3.14861C151.638 3.14861 148.734 3.72812 145.999 4.87016C143.358 5.97349 140.986 7.55347 138.949 9.56477C136.912 11.577 135.314 13.9196 134.197 16.5283C133.04 19.2296 132.454 22.0979 132.454 25.0558C132.454 28.0138 133.04 30.8821 134.197 33.5824C135.314 36.1911 136.913 38.5337 138.949 40.546C140.986 42.5582 143.358 44.1372 145.999 45.2406C148.734 46.3826 151.637 46.9621 154.632 46.9621C157.627 46.9621 160.53 46.3826 163.264 45.2406C165.905 44.1372 168.277 42.5573 170.314 40.546C172.351 38.5347 173.95 36.1911 175.067 33.5824C176.223 30.8821 176.81 28.0129 176.81 25.0558C176.81 22.0988 176.223 19.2296 175.067 16.5283C173.95 13.9196 172.35 11.577 170.314 9.56477C168.277 7.55253 165.905 5.97349 163.264 4.87016C160.529 3.72812 157.626 3.14861 154.632 3.14861Z" fill="#191919"/>
<path d="M178.757 25.0567C178.757 38.1958 167.935 48.8837 154.634 48.8837C141.334 48.8837 130.51 38.1948 130.51 25.0567C130.51 11.9186 141.332 1.22787 154.634 1.22787C167.937 1.22787 178.757 11.9177 178.757 25.0567ZM178.231 25.0567C178.231 12.2037 167.646 1.74793 154.634 1.74793C141.623 1.74793 131.037 12.2046 131.037 25.0567C131.037 37.9089 141.623 48.3646 154.634 48.3646C167.646 48.3646 178.231 37.9089 178.231 25.0567Z" fill="#F17832"/>
<path d="M154.632 48.9074C141.317 48.9074 130.484 38.2081 130.484 25.0568C130.484 11.9055 141.317 1.20435 154.632 1.20435C167.947 1.20435 178.779 11.9045 178.779 25.0568C178.779 38.2091 167.946 48.9074 154.632 48.9074ZM154.632 1.25154C141.344 1.25154 130.532 11.931 130.532 25.0568C130.532 38.1827 141.343 48.8602 154.632 48.8602C167.921 48.8602 178.731 38.1817 178.731 25.0568C178.731 11.9319 167.92 1.25154 154.632 1.25154ZM154.632 48.3883C141.607 48.3883 131.011 37.9222 131.011 25.0568C131.011 12.1915 141.607 1.72439 154.632 1.72439C167.657 1.72439 178.252 12.1915 178.252 25.0568C178.252 37.9222 167.657 48.3883 154.632 48.3883ZM154.632 1.77158C141.633 1.77158 131.059 12.217 131.059 25.0568C131.059 37.8967 141.633 48.3411 154.632 48.3411C167.631 48.3411 178.205 37.8957 178.205 25.0568C178.205 12.2179 167.63 1.77158 154.632 1.77158Z" fill="#191919"/>
</g>
<defs>
<clipPath id="clip0_36_44">
<rect width="1440" height="4196.5" fill="white" transform="translate(-32 -20)"/>
</clipPath>
</defs>
</svg>
