<svg width="115" height="33" viewBox="0 0 115 33" fill="none" xmlns="http://www.w3.org/2000/svg">
<path d="M9.74483 2.56787L15.9277 23.5651H16.1632L22.3461 2.56787H31.5909L21.6395 32.3479H10.4514L0.5 2.56787H9.74483Z" fill="white"/>
<path d="M34.4946 32.3479V2.56787H56.2229V9.08226H42.6796V14.2007H55.1041V20.7151H42.6796V25.8336H56.1641V32.3479H34.4946Z" fill="white"/>
<path d="M60.2823 32.3479V2.56787H68.4672V25.8336H80.6562V32.3479H60.2823Z" fill="white"/>
<path d="M98.4868 16.3573L98.3477 16.4485L106.491 28.5686L106.63 28.4774L98.4868 16.3573Z" fill="white"/>
<path d="M106.499 28.5794L98.3145 16.4503L98.479 16.3423L106.664 28.4708L106.499 28.5788V28.5794ZM98.357 16.4586L106.508 28.538L106.622 28.463L98.4711 16.3843L98.3576 16.4586H98.357Z" fill="white"/>
<path d="M98.5116 16.3989L98.3479 16.4314L101.251 30.6922L101.415 30.6597L98.5116 16.3989Z" fill="white"/>
<path d="M101.246 30.7069L101.243 30.6925L98.3296 16.4185L98.5233 16.3801L98.5263 16.3945L101.44 30.6685L101.246 30.7069ZM98.3654 16.4419L101.27 30.6721L101.404 30.6458L98.4996 16.4155L98.3654 16.4419Z" fill="white"/>
<path d="M98.3743 16.4114L95.635 30.7039L95.7997 30.7347L98.5389 16.4422L98.3743 16.4114Z" fill="white"/>
<path d="M95.8193 30.755L95.625 30.7191L95.628 30.7041L98.3551 16.394L98.5494 16.4306L98.5464 16.4456L95.8193 30.755ZM95.6608 30.6951L95.7956 30.7197L98.5142 16.454L98.3794 16.4288L95.6608 30.6945V30.6951Z" fill="white"/>
<path d="M98.3943 16.3971L90.4558 28.6489L90.5965 28.7378L98.5349 16.486L98.3943 16.3971Z" fill="white"/>
<path d="M90.6022 28.7646L90.4358 28.6596L90.4437 28.647L98.388 16.3811L98.5544 16.4861L98.5465 16.4987L90.6022 28.764V28.7646ZM90.4777 28.6506L90.5931 28.7232L98.5125 16.4957L98.3971 16.4225L90.4777 28.6506Z" fill="white"/>
<path d="M98.4233 16.4059L86.4031 24.8096L86.4999 24.9447L98.5202 16.5411L98.4233 16.4059Z" fill="white"/>
<path d="M86.4998 24.9716L86.385 24.8126L86.3972 24.8042L98.4226 16.3818L98.5368 16.5414L98.5246 16.5498L86.4992 24.9716H86.4998ZM86.4275 24.8192L86.5071 24.9296L98.4955 16.5336L98.4166 16.4232L86.4281 24.8198L86.4275 24.8192Z" fill="white"/>
<path d="M98.4445 16.42L84.0801 19.6228L84.117 19.7843L98.4814 16.5815L98.4445 16.42Z" fill="white"/>
<path d="M84.1084 19.8073L84.0647 19.6165L84.0793 19.6129L98.4559 16.395L98.4996 16.5852L98.4851 16.5888L84.1084 19.8073ZM84.1011 19.6393L84.1315 19.7719L98.4638 16.5636L98.4335 16.4316L84.1011 19.6399V19.6393Z" fill="white"/>
<path d="M98.4638 16.4325L98.4371 16.5957L83.8977 14.2877L83.9244 14.1245L98.4638 16.4325Z" fill="white"/>
<path d="M98.4499 16.612L98.4347 16.6096L83.8801 14.2992L83.9117 14.1067L83.9269 14.1091L98.4815 16.4195L98.4499 16.612ZM83.9147 14.2746L98.4244 16.5779L98.4462 16.4447L83.9366 14.1415L83.9147 14.2746Z" fill="white"/>
<path d="M86.0153 8.70704L85.926 8.84717L98.3915 16.5921L98.4808 16.452L86.0153 8.70704Z" fill="white"/>
<path d="M98.39 16.6188L98.3772 16.611L85.9133 8.83584L86.019 8.6709L86.0317 8.6787L98.4956 16.4539L98.39 16.6194V16.6188ZM85.9552 8.82624L98.3809 16.5774L98.4537 16.4629L86.0281 8.71168L85.9552 8.82624Z" fill="white"/>
<path d="M90.1303 4.50284L89.9922 4.59668L98.3397 16.5804L98.4777 16.4865L90.1303 4.50284Z" fill="white"/>
<path d="M98.3321 16.6009L98.3236 16.5883L89.9785 4.58508L90.1413 4.47412L90.1498 4.48671L98.4948 16.4899L98.3315 16.6009H98.3321ZM90.021 4.59288L98.34 16.5589L98.4529 16.4821L90.1334 4.5161L90.0204 4.59288H90.021Z" fill="white"/>
<path d="M95.4049 2.28397L95.241 2.31836L98.3001 16.5468L98.4641 16.5124L95.4049 2.28397Z" fill="white"/>
<path d="M98.287 16.5629L98.284 16.5479L95.2314 2.30264L95.4252 2.26245L98.4807 16.5221L98.287 16.5629ZM95.2673 2.32603L98.3107 16.5275L98.4449 16.4993L95.4021 2.29784L95.2679 2.32603H95.2673Z" fill="white"/>
<path d="M98.4426 16.5302L98.2781 16.4978L101.183 2.23755L101.348 2.27054L98.4426 16.5302Z" fill="white"/>
<path d="M98.4543 16.5474L98.26 16.5096L98.263 16.4946L101.171 2.21997L101.365 2.25836L101.362 2.27335L98.4543 16.548V16.5474ZM98.2958 16.4856L98.4306 16.512L101.33 2.28175L101.195 2.25536L98.2958 16.4862V16.4856Z" fill="white"/>
<path d="M98.4152 16.5396L98.2773 16.446L106.645 4.47583L106.783 4.5706L98.4152 16.5396Z" fill="white"/>
<path d="M98.4188 16.5606L98.2561 16.4496L106.641 4.45483L106.804 4.5664L98.4194 16.5606H98.4188ZM98.298 16.4424L98.4109 16.5192L106.761 4.57419L106.648 4.49682L98.2974 16.4424H98.298Z" fill="white"/>
<path d="M110.63 8.44819L98.2993 16.4001L98.3909 16.5388L110.721 8.58681L110.63 8.44819Z" fill="white"/>
<path d="M98.3835 16.5594L98.2754 16.3963L98.2881 16.3879L110.634 8.43213L110.742 8.59588L110.73 8.60427L98.3829 16.56L98.3835 16.5594ZM98.3173 16.4047L98.392 16.518L110.7 8.58688L110.625 8.47352L98.3167 16.4047H98.3173Z" fill="white"/>
<path d="M112.835 13.8375L98.3347 16.3708L98.3639 16.5339L112.865 14.0005L112.835 13.8375Z" fill="white"/>
<path d="M98.35 16.5439L98.3154 16.3513L98.3306 16.3489L112.849 13.8274L112.883 14.0199L112.868 14.0223L98.35 16.5433V16.5439ZM98.3506 16.3759L98.3743 16.5091L112.848 13.9959L112.824 13.8622L98.35 16.3759H98.3506Z" fill="white"/>
<path d="M98.3438 16.5074L98.3778 16.3455L112.805 19.2635L112.771 19.426L98.3438 16.5074Z" fill="white"/>
<path d="M112.783 19.4431L112.768 19.4401L98.3264 16.5185L98.3665 16.3271L98.3811 16.3302L112.823 19.2518L112.783 19.4431ZM98.3622 16.4951L112.76 19.4077L112.787 19.2752L98.3902 16.3625L98.3622 16.4951Z" fill="white"/>
<path d="M98.3347 16.4816L98.4288 16.3455L110.565 24.5855L110.469 24.7217L98.3347 16.4816Z" fill="white"/>
<path d="M110.474 24.7423L110.461 24.7339L98.3137 16.4854L98.4254 16.3247L98.4382 16.3331L110.586 24.5815L110.474 24.7423ZM98.3562 16.4777L110.466 24.7009L110.544 24.5893L98.4333 16.3661L98.3562 16.4777Z" fill="white"/>
<path d="M98.4686 2.39673H98.2913V4.15834H98.4686V2.39673Z" fill="#EAEAEA"/>
<path d="M98.4828 4.17221H98.2751V2.38062H98.4828V4.17221ZM98.3055 4.14222H98.4525V2.41061H98.3055V4.14222Z" fill="white"/>
<path d="M98.5183 1.77686H98.2402V3.53847H98.5183V1.77686Z" fill="#EAEAEA"/>
<path d="M98.5331 3.55283H98.2246V1.76123H98.5331V3.55283ZM98.255 3.52284H98.5027V1.79122H98.255V3.52284Z" fill="white"/>
<path d="M114.485 16.423C114.485 7.63653 107.275 0.513916 98.38 0.513916C89.4853 0.513916 82.2739 7.63593 82.2739 16.423C82.2739 25.21 89.4847 32.3315 98.38 32.3315C107.275 32.3315 114.485 25.2088 114.485 16.423ZM112.489 16.423C112.489 24.1196 106.172 30.3599 98.38 30.3599C90.588 30.3599 84.2705 24.1196 84.2705 16.423C84.2705 8.72637 90.5874 2.48546 98.38 2.48546C106.172 2.48546 112.489 8.72517 112.489 16.423Z" fill="#F17832"/>
<path d="M98.3788 32.3461C96.2025 32.3461 94.0912 31.925 92.1037 31.0949C90.1837 30.293 88.4598 29.145 86.9793 27.6827C85.4989 26.2203 84.3367 24.5175 83.5242 22.6215C82.6838 20.6584 82.2576 18.5729 82.2576 16.4232C82.2576 14.2735 82.6838 12.188 83.5242 10.2249C84.3361 8.32893 85.4983 6.6255 86.9793 5.16319C88.4598 3.70088 90.1837 2.55287 92.1037 1.75094C94.0912 0.920814 96.2025 0.499756 98.3788 0.499756C100.555 0.499756 102.666 0.920814 104.654 1.75094C106.573 2.55287 108.297 3.70088 109.778 5.16319C111.259 6.6255 112.421 8.32833 113.233 10.2249C114.074 12.188 114.5 14.2735 114.5 16.4232C114.5 18.5729 114.074 20.6584 113.233 22.6215C112.421 24.5175 111.259 26.2203 109.778 27.6827C108.298 29.145 106.574 30.293 104.654 31.0949C102.666 31.925 100.555 32.3461 98.3788 32.3461ZM98.3788 0.529145C96.2067 0.529145 94.0991 0.949605 92.1153 1.77793C90.1995 2.57866 88.4786 3.72427 87.0006 5.18419C85.5226 6.6441 84.3628 8.34333 83.5522 10.2363C82.713 12.1958 82.2879 14.2771 82.2879 16.4232C82.2879 18.5693 82.7136 20.65 83.5522 22.6095C84.3628 24.5019 85.5226 26.2018 87.0006 27.6617C88.4786 29.1216 90.1995 30.2672 92.1153 31.0679C94.0991 31.8968 96.2061 32.3167 98.3788 32.3167C100.551 32.3167 102.658 31.8962 104.642 31.0679C106.557 30.2672 108.278 29.1216 109.756 27.6617C111.234 26.2018 112.394 24.5025 113.205 22.6095C114.044 20.65 114.469 18.5687 114.469 16.4232C114.469 14.2777 114.043 12.1958 113.205 10.2363C112.394 8.34393 111.234 6.6441 109.756 5.18419C108.278 3.72427 106.558 2.57866 104.642 1.77793C102.658 0.949005 100.551 0.529145 98.3788 0.529145ZM98.3788 30.3746C96.4721 30.3746 94.6219 30.0057 92.881 29.2781C91.199 28.5752 89.6882 27.5693 88.3911 26.2881C87.0941 25.007 86.0758 23.5146 85.3641 21.8532C84.6276 20.133 84.2541 18.306 84.2541 16.4226C84.2541 14.5393 84.6276 12.7117 85.3641 10.992C86.0758 9.3306 87.0941 7.83829 88.3911 6.55712C89.6882 5.27595 91.199 4.26949 92.881 3.56713C94.6225 2.83957 96.4721 2.4707 98.3788 2.4707C100.285 2.4707 102.135 2.83957 103.877 3.56713C105.559 4.27009 107.069 5.27595 108.366 6.55712C109.663 7.83829 110.682 9.3306 111.393 10.992C112.13 12.7123 112.503 14.5393 112.503 16.4226C112.503 18.306 112.13 20.133 111.393 21.8532C110.682 23.5146 109.663 25.0063 108.366 26.2881C107.069 27.5693 105.559 28.5752 103.877 29.2781C102.135 30.0057 100.285 30.3746 98.3788 30.3746ZM98.3788 2.50068C96.4763 2.50068 94.6304 2.86896 92.8925 3.59472C91.2141 4.29588 89.707 5.29995 88.4124 6.57812C87.1178 7.85689 86.1019 9.34559 85.3921 11.0034C84.6573 12.7201 84.2845 14.5429 84.2845 16.4226C84.2845 18.3024 84.6573 20.1252 85.3921 21.8412C86.1019 23.4991 87.1184 24.9878 88.4124 26.2665C89.707 27.5453 91.2141 28.5488 92.8925 29.2499C94.6304 29.9757 96.4757 30.344 98.3788 30.344C100.282 30.344 102.127 29.9757 103.864 29.2499C105.543 28.5488 107.05 27.5447 108.345 26.2665C109.639 24.9884 110.655 23.4991 111.365 21.8412C112.1 20.1252 112.472 18.3018 112.472 16.4226C112.472 14.5435 112.1 12.7201 111.365 11.0034C110.655 9.34559 109.639 7.85689 108.345 6.57812C107.05 5.29935 105.543 4.29588 103.864 3.59472C102.127 2.86896 100.281 2.50068 98.3788 2.50068Z" fill="white"/>
<path d="M113.71 16.4232C113.71 24.773 106.833 31.5651 98.3802 31.5651C89.9276 31.5651 83.0496 24.7724 83.0496 16.4232C83.0496 8.07396 89.9264 1.28003 98.3802 1.28003C106.834 1.28003 113.71 8.07336 113.71 16.4232ZM113.376 16.4232C113.376 8.2551 106.649 1.61052 98.3802 1.61052C90.1116 1.61052 83.3841 8.25569 83.3841 16.4232C83.3841 24.5906 90.1116 31.2352 98.3802 31.2352C106.649 31.2352 113.376 24.5906 113.376 16.4232Z" fill="#F17832"/>
<path d="M98.379 31.5802C89.9173 31.5802 83.0332 24.7809 83.0332 16.4233C83.0332 8.06566 89.9173 1.26514 98.379 1.26514C106.841 1.26514 113.724 8.06506 113.724 16.4233C113.724 24.7815 106.84 31.5802 98.379 31.5802ZM98.379 1.29513C89.9343 1.29513 83.0636 8.08186 83.0636 16.4233C83.0636 24.7647 89.9337 31.5502 98.379 31.5502C106.824 31.5502 113.694 24.7641 113.694 16.4233C113.694 8.08246 106.824 1.29513 98.379 1.29513ZM98.379 31.2503C90.1019 31.2503 83.3678 24.5991 83.3678 16.4233C83.3678 8.2474 90.1019 1.59562 98.379 1.59562C106.656 1.59562 113.39 8.2474 113.39 16.4233C113.39 24.5991 106.656 31.2503 98.379 31.2503ZM98.379 1.62561C90.1183 1.62561 83.3981 8.2636 83.3981 16.4233C83.3981 24.5829 90.1183 31.2203 98.379 31.2203C106.64 31.2203 113.359 24.5823 113.359 16.4233C113.359 8.2642 106.639 1.62561 98.379 1.62561Z" fill="white"/>
</svg>
