<svg width="64" height="65" viewBox="0 0 64 65" fill="none" xmlns="http://www.w3.org/2000/svg">
<path d="M32 64.0937C49.6731 64.0937 64 49.7669 64 32.0937C64 14.4206 49.6731 0.09375 32 0.09375C14.3269 0.09375 0 14.4206 0 32.0937C0 49.7669 14.3269 64.0937 32 64.0937Z" fill="#26181C"/>
<path d="M42.7436 7.7334H22.2734C20.3015 7.7334 18.6952 9.33973 18.6952 11.3116V52.9088C18.6952 54.8807 20.3015 56.487 22.2734 56.487H42.7436C44.7198 56.487 46.3218 54.8807 46.3218 52.9088V11.3116C46.3218 9.33973 44.7184 7.7334 42.7436 7.7334ZM20.3219 14.2316H44.6994V45.1116H20.3219V14.2316ZM22.2734 9.36013H42.7436C43.8227 9.36013 44.6994 10.2368 44.6994 11.3116V12.6092H20.3219V11.3116C20.3219 10.2368 21.1986 9.36013 22.2734 9.36013ZM42.7436 54.8603H22.2734C21.1986 54.8603 20.3219 53.9836 20.3219 52.9088V46.734H44.6994V52.9088C44.6994 53.9836 43.8213 54.8603 42.7436 54.8603Z" fill="#F6F9F1"/>
<path d="M32.51 47.5481C30.7158 47.5481 29.2551 49.0088 29.2551 50.7972C29.2551 52.5914 30.7158 54.0521 32.51 54.0521C34.2984 54.0521 35.7591 52.5914 35.7591 50.7972C35.7606 49.0088 34.2998 47.5481 32.51 47.5481ZM32.51 52.4253C31.6129 52.4253 30.8833 51.6957 30.8833 50.7986C30.8833 49.9074 31.6144 49.1763 32.51 49.1763C33.4013 49.1763 34.1324 49.9059 34.1324 50.7986C34.1324 51.6943 33.4027 52.4253 32.51 52.4253Z" fill="#F6F9F1"/>
<path d="M29.2565 11.7969H32.5114C32.96 11.7969 33.3197 11.4328 33.3197 10.9828C33.3197 10.5357 32.9585 10.1687 32.5114 10.1687H29.2565C28.8094 10.1687 28.4482 10.5342 28.4482 10.9828C28.4482 11.4328 28.8079 11.7969 29.2565 11.7969Z" fill="#F6F9F1"/>
<path d="M34.9464 11.7969H35.7605C36.2076 11.7969 36.5746 11.4328 36.5746 10.9828C36.5746 10.5357 36.209 10.1687 35.7605 10.1687H34.9464C34.4978 10.1687 34.1323 10.5342 34.1323 10.9828C34.1323 11.4328 34.4978 11.7969 34.9464 11.7969Z" fill="#F6F9F1"/>
<path d="M34.1018 16.6885H30.9154C30.0037 16.6885 29.2566 17.4312 29.2566 18.3428V21.5337C29.2566 22.4453 30.0037 23.1881 30.9154 23.1881H34.1018C35.0179 23.1881 35.7606 22.4453 35.7606 21.5337V18.3428C35.7606 17.4312 35.0179 16.6885 34.1018 16.6885ZM34.1324 21.5337C34.1324 21.5497 34.1208 21.5614 34.1004 21.5614L30.8819 21.5337L30.9139 18.3123L34.1324 18.3443V21.5337Z" fill="#F6F9F1"/>
<path d="M26.7895 16.6885H23.6031C22.6871 16.6885 21.9443 17.4312 21.9443 18.3428V21.5337C21.9443 22.4453 22.6871 23.1881 23.6031 23.1881H26.7895C27.7012 23.1881 28.4483 22.4453 28.4483 21.5337V18.3428C28.4483 17.4312 27.7012 16.6885 26.7895 16.6885ZM26.8216 21.5337C26.8216 21.5497 26.8099 21.5614 26.7895 21.5614L23.5711 21.5337L23.6031 18.3123L26.8216 18.3443V21.5337Z" fill="#F6F9F1"/>
<path d="M41.4169 16.6885H38.2261C37.3144 16.6885 36.5731 17.4312 36.5731 18.3428V21.5337C36.5731 22.4453 37.3144 23.1881 38.2261 23.1881H41.4169C42.33 23.1881 43.0713 22.4453 43.0713 21.5337V18.3428C43.0727 17.4312 42.33 16.6885 41.4169 16.6885ZM41.4446 21.5337C41.4446 21.5497 41.4329 21.5614 41.4169 21.5614L38.1954 21.5337L38.2275 18.3123L41.446 18.3443V21.5337H41.4446Z" fill="#F6F9F1"/>
<path d="M34.1018 23.9846H30.9154C30.0037 23.9846 29.2566 24.7259 29.2566 25.639V28.8298C29.2566 29.7415 30.0037 30.4828 30.9154 30.4828H34.1018C35.0179 30.4828 35.7606 29.7415 35.7606 28.8298V25.639C35.7606 24.7259 35.0179 23.9846 34.1018 23.9846ZM34.1324 28.8298C34.1324 28.8444 34.1208 28.8619 34.1004 28.8619L30.8819 28.8298L30.9139 25.6113L34.1324 25.639V28.8298Z" fill="#F6F9F1"/>
<path d="M26.7895 23.9846H23.6031C22.6871 23.9846 21.9443 24.7259 21.9443 25.639V28.8298C21.9443 29.7415 22.6871 30.4828 23.6031 30.4828H26.7895C27.7012 30.4828 28.4483 29.7415 28.4483 28.8298V25.639C28.4483 24.7259 27.7012 23.9846 26.7895 23.9846ZM26.8216 28.8298C26.8216 28.8444 26.8099 28.8619 26.7895 28.8619L23.5711 28.8298L23.6031 25.6113L26.8216 25.639V28.8298Z" fill="#F6F9F1"/>
<path d="M41.4169 23.9846H38.2261C37.3144 23.9846 36.5731 24.7259 36.5731 25.639V28.8298C36.5731 29.7415 37.3144 30.4828 38.2261 30.4828H41.4169C42.33 30.4828 43.0713 29.7415 43.0713 28.8298V25.639C43.0727 24.7259 42.33 23.9846 41.4169 23.9846ZM41.4446 28.8298C41.4446 28.8444 41.4329 28.8619 41.4169 28.8619L38.1954 28.8298L38.2275 25.6113L41.446 25.639V28.8298H41.4446Z" fill="#F6F9F1"/>
<path d="M34.1018 31.2969H30.9154C30.0037 31.2969 29.2566 32.0396 29.2566 32.9556V36.1421C29.2566 37.0537 30.0037 37.8009 30.9154 37.8009H34.1018C35.0179 37.8009 35.7606 37.0537 35.7606 36.1421V32.9556C35.7606 32.0396 35.0179 31.2969 34.1018 31.2969ZM34.1324 36.1421C34.1324 36.1566 34.1208 36.1741 34.1004 36.1741L30.8819 36.1421L30.9139 32.9236L34.1324 32.9556V36.1421Z" fill="#F6F9F1"/>
<path d="M26.7895 31.2969H23.6031C22.6871 31.2969 21.9443 32.0396 21.9443 32.9556V36.1421C21.9443 37.0537 22.6871 37.8009 23.6031 37.8009H26.7895C27.7012 37.8009 28.4483 37.0537 28.4483 36.1421V32.9556C28.4483 32.0396 27.7012 31.2969 26.7895 31.2969ZM26.8216 36.1421C26.8216 36.1566 26.8099 36.1741 26.7895 36.1741L23.5711 36.1421L23.6031 32.9236L26.8216 32.9556V36.1421Z" fill="#F6F9F1"/>
<path d="M41.4169 31.2969H38.2261C37.3144 31.2969 36.5731 32.0396 36.5731 32.9556V36.1421C36.5731 37.0537 37.3144 37.8009 38.2261 37.8009H41.4169C42.33 37.8009 43.0713 37.0537 43.0713 36.1421V32.9556C43.0727 32.0396 42.33 31.2969 41.4169 31.2969ZM41.4446 36.1421C41.4446 36.1566 41.4329 36.1741 41.4169 36.1741L38.1954 36.1421L38.2275 32.9236L41.446 32.9556V36.1421H41.4446Z" fill="#F6F9F1"/>
</svg>
