<svg width="64" height="65" viewBox="0 0 64 65" fill="none" xmlns="http://www.w3.org/2000/svg">
<path d="M32 64.0938C49.6731 64.0938 64 49.7669 64 32.0938C64 14.4207 49.6731 0.09375 32 0.09375C14.3269 0.09375 0 14.4207 0 32.0938C0 49.7669 14.3269 64.0938 32 64.0938Z" fill="black"/>
<path d="M13.6567 31.3419C13.6567 31.3419 29.6635 24.7754 35.2228 22.4522C37.3445 21.5257 44.5691 18.5714 44.5691 18.5714C44.5691 18.5714 47.8993 17.2823 47.6173 20.4246C47.5233 21.7137 46.7848 26.2525 46.0462 31.1539C44.9316 38.0964 43.7365 45.6835 43.7365 45.6835C43.7365 45.6835 43.5485 47.8186 41.9773 48.1812C40.4062 48.5571 37.8145 46.892 37.3446 46.516C36.9686 46.234 30.4021 42.0712 27.9984 40.0435C27.3538 39.4929 26.6152 38.3784 28.0923 37.0758C31.4226 34.0276 35.3974 30.2273 37.8146 27.8236C38.9291 26.7091 40.0302 24.1174 35.4109 27.2731C28.8443 31.8119 22.3584 36.0687 22.3584 36.0687C22.3584 36.0687 20.8812 36.9953 18.1016 36.1627C15.3219 35.3301 12.0856 34.2156 12.0856 34.2156C12.0856 34.2156 9.86992 32.8325 13.6567 31.3419Z" fill="white"/>
</svg>
