<svg width="64" height="65" viewBox="0 0 64 65" fill="none" xmlns="http://www.w3.org/2000/svg">
<path d="M32 64.0938C49.6731 64.0938 64 49.7669 64 32.0938C64 14.4207 49.6731 0.09375 32 0.09375C14.3269 0.09375 0 14.4207 0 32.0938C0 49.7669 14.3269 64.0938 32 64.0938Z" fill="black"/>
<path d="M15.5233 48.6109L17.8867 39.775C16.5438 37.3579 15.8456 34.6453 15.8456 31.8925C15.8456 22.8954 23.1641 15.5769 32.1611 15.5769C41.1582 15.5769 48.4767 22.8954 48.4767 31.8925C48.4767 40.8895 41.1582 48.2081 32.1611 48.2081C29.462 48.2081 26.7898 47.5232 24.3995 46.2341L15.5233 48.6109ZM24.8426 42.9173L25.4066 43.253C27.4612 44.475 29.7977 45.1195 32.1611 45.1195C39.4528 45.1195 45.3882 39.1841 45.3882 31.8925C45.3882 24.6008 39.4528 18.6655 32.1611 18.6655C24.8695 18.6655 18.9341 24.6008 18.9341 31.8925C18.9341 34.2962 19.6055 36.673 20.8678 38.7544L21.217 39.3184L19.901 44.2467L24.8695 42.9173H24.8426Z" fill="white"/>
<path fill-rule="evenodd" clip-rule="evenodd" d="M38.2307 34.1618C37.5593 33.759 36.6864 33.3159 35.8942 33.6381C35.2899 33.8798 34.9005 34.8333 34.511 35.3167C34.3096 35.5718 34.0679 35.5987 33.7591 35.4778C31.4762 34.5647 29.7305 33.0473 28.4817 30.9524C28.2668 30.6302 28.3071 30.375 28.5622 30.0662C28.9382 29.623 29.4217 29.1127 29.5157 28.5085C29.6231 27.9042 29.3411 27.2059 29.086 26.6688C28.7637 25.9839 28.4145 25.0036 27.7297 24.6142C27.0985 24.2516 26.266 24.4531 25.702 24.9096C24.7351 25.7019 24.2651 26.9373 24.2786 28.1727C24.2786 28.5219 24.3188 28.871 24.4128 29.2067C24.6143 30.0124 24.9768 30.7779 25.4066 31.4896C25.7288 32.0267 26.0646 32.5639 26.4406 33.0607C27.6625 34.7124 29.1799 36.1492 30.9256 37.2369C31.7985 37.7741 32.7519 38.2441 33.7322 38.5664C34.8333 38.9289 35.8136 39.3049 36.9953 39.0766C38.2307 38.8349 39.4527 38.0695 39.9496 36.8744C40.0973 36.5253 40.1644 36.1224 40.0838 35.7464C39.9093 34.9676 38.8753 34.511 38.2441 34.135L38.2307 34.1618Z" fill="white"/>
</svg>
